<svg width="1262" height="466" viewBox="0 0 1262 466" fill="none" xmlns="http://www.w3.org/2000/svg">
<path d="M413.485 220.358C385.853 179.84 384.898 121.733 344.876 60.5123C304.855 -0.708284 224.794 -0.708293 221.926 0.181024L221.98 12.5959L221.89 1.08812C219.022 0.181024 138.979 0.181018 98.9581 61.4192C58.9368 122.657 57.981 180.748 30.35 221.265C2.70117 261.782 -5.66744 298.244 3.65707 312.758C8.11191 319.694 22.3602 318.645 36.0674 310.837C59.1533 297.693 52.2635 307.226 52.2635 314.447C52.2635 338.939 58.7383 399.998 110.375 430.61C158.981 459.425 198.011 460.544 228.708 459.76C256.194 459.066 291.544 455.672 335.353 429.704C386.972 399.091 391.59 338.032 391.59 313.54C391.59 306.337 386.124 294.793 407.785 309.93C420.247 318.645 435.723 318.787 440.196 311.851C449.501 297.355 441.115 260.893 413.485 220.358Z" fill="#394167"/>
<path d="M216.817 446.594C216.891 446.594 216.941 446.568 217.016 446.498C215.95 446.568 215.802 446.594 216.817 446.594Z" fill="white"/>
<path d="M301.773 74.0644C280.425 52.4492 255.7 70.8158 239.97 85.952C228.345 97.1258 225.927 98.9286 219.849 99.0176C213.52 99.107 210.126 97.1258 198.501 85.952C182.77 70.8158 158.045 52.4492 136.698 74.0644C115.368 95.68 80.5471 133.52 86.1639 255.663C91.7807 377.805 133.676 444.809 163.218 456.198C190.378 466.642 248.359 470.765 285.935 453.628C309.238 443.009 346.707 377.841 352.324 255.68C357.959 133.52 323.12 95.68 301.773 74.0644Z" fill="white"/>
<path d="M226.888 446.509C226.938 446.557 226.987 446.583 227.037 446.583C227.929 446.583 227.805 446.557 226.888 446.509Z" fill="white"/>
<path d="M240.919 117.854C234.502 119.857 226.941 122.71 220.506 122.71C214.071 122.71 206.492 119.857 200.093 117.854C182.809 112.431 141.072 108.94 113.473 117.323L106.949 130.224C106.949 130.224 117.441 130.791 119.104 136.019C120.766 141.247 124.609 162.867 131.634 171.32C140.357 181.812 157.373 182.202 170.082 181.688C187.206 180.997 192.908 175.84 203.203 161.538C210.961 150.763 212.105 150.444 215.555 147.503C217.825 145.571 223.598 145.943 225.493 147.503C228.567 150.037 230.373 150.604 237.844 161.538C246.996 174.936 253.842 180.997 270.966 181.688C283.674 182.202 300.673 181.812 309.414 171.32C316.438 162.867 320.299 141.264 321.944 136.019C323.606 130.773 331.542 129.852 331.542 129.852L325.697 117.323C298.081 108.94 258.221 112.431 240.919 117.854Z" fill="#394167"/>
<path d="M239.675 187.25C229.324 169.955 224.508 165.784 220.174 165.784C215.84 165.784 209.931 168.596 199.311 186.772C195.712 192.952 191.701 202.25 192.65 206.804C193.599 211.357 215.536 219.756 221.768 219.24C228.143 218.704 244.743 210.974 245.764 207.186C246.892 203.054 243.49 193.641 239.675 187.25Z" fill="#FF9200"/>
<path d="M302.689 351.272C291.038 332.904 290.635 306.558 273.763 278.789C256.891 251.02 223.129 251.02 221.92 251.435L221.938 257.071L221.902 251.849C220.694 251.435 186.949 251.435 170.06 279.203C153.188 306.972 152.785 333.318 141.134 351.687C129.483 370.055 125.944 386.586 129.886 393.177C131.76 396.328 137.77 395.844 143.551 392.314C153.293 386.352 150.385 390.673 150.385 393.95C150.385 405.061 153.118 432.74 174.895 446.624C195.394 459.7 211.846 460.203 224.793 459.844C236.392 459.52 251.284 457.989 269.768 446.21C291.546 432.326 293.473 404.647 293.473 393.536C293.473 390.279 291.16 385.038 300.306 391.9C305.562 395.844 312.097 395.914 313.972 392.763C317.879 386.19 314.357 369.659 302.689 351.272Z" fill="#394167"/>
<path d="M222.032 451.919C222.057 451.919 222.081 451.892 222.107 451.871C221.66 451.892 221.585 451.919 222.032 451.919Z" fill="white"/>
<path d="M256.574 282.54C247.614 272.834 237.226 281.089 230.622 287.876C225.738 292.908 224.723 293.714 222.177 293.75C219.529 293.786 218.084 292.908 213.217 287.876C206.613 281.071 196.225 272.816 187.264 282.54C178.304 292.246 163.668 309.258 166.024 364.145C168.381 419.033 192.218 434.7 204.618 439.804C216.02 444.495 229.469 446.34 245.258 438.642C255.044 433.861 275.458 419.014 277.814 364.127C280.171 309.258 265.552 292.264 256.574 282.54Z" fill="white"/>
<path d="M221.755 451.878C221.78 451.9 221.804 451.9 221.83 451.9C222.202 451.927 222.152 451.9 221.755 451.878Z" fill="white"/>
<path d="M231.748 307.385C228.841 308.315 225.413 309.63 222.506 309.63C219.6 309.63 216.171 308.315 213.265 307.385C205.439 304.883 186.546 303.277 174.063 307.147L171.119 313.099C171.119 313.099 175.87 313.355 176.615 315.782C177.361 318.193 179.112 328.179 182.28 332.068C186.23 336.906 193.925 337.088 199.682 336.851C207.433 336.522 210.004 334.149 214.662 327.558C218.165 322.592 218.687 322.446 220.252 321.077C221.277 320.183 223.885 320.347 224.743 321.077C226.14 322.245 226.941 322.501 230.332 327.558C234.468 333.747 237.561 336.54 245.312 336.851C251.07 337.088 258.765 336.906 262.715 332.068C265.901 328.179 267.634 318.193 268.379 315.782C269.124 313.373 272.72 312.934 272.72 312.934L270.075 307.147C257.609 303.277 239.573 304.883 231.748 307.385Z" fill="#394167"/>
<path d="M228.045 332.655C224.94 327.463 223.493 326.219 222.194 326.219C220.895 326.219 219.127 327.065 215.935 332.514C214.859 334.373 213.647 337.154 213.944 338.526C214.228 339.898 220.809 342.41 222.677 342.256C224.594 342.103 229.567 339.782 229.876 338.641C230.21 337.398 229.196 334.565 228.045 332.655Z" fill="#FF9200"/>
<path d="M602.56 90.9136C631.464 90.9136 653.699 102.345 669.263 125.209C685.074 148.072 692.979 175.782 692.979 208.337C692.979 233.437 689.026 257.17 681.121 279.537C673.215 301.655 660.863 320.293 644.064 335.453C627.265 350.364 607.625 357.819 585.143 357.819C580.696 357.819 563.897 356.08 534.746 352.6C538.204 299.17 539.934 254.934 539.934 219.893C539.934 184.852 538.822 146.084 536.599 103.588C560.562 95.1384 582.549 90.9136 602.56 90.9136ZM594.408 312.341C605.772 312.341 617.012 302.276 628.129 282.146C639.493 261.768 645.176 239.899 645.176 216.538C645.176 192.929 641.099 173.545 632.947 158.386C625.041 143.226 615.53 135.646 604.413 135.646C598.484 135.646 592.925 136.64 587.737 138.629C588.725 175.409 589.22 206.349 589.22 231.449C589.22 256.301 588.478 282.27 586.996 309.359C588.725 311.347 591.196 312.341 594.408 312.341ZM831.186 348.5L822.663 296.684L767.448 298.921L753.366 369.002L701.487 364.529L767.819 94.2686L836.374 100.233L884.919 352.973L831.186 348.5ZM798.576 143.102L775.23 259.034L816.734 257.543L798.576 143.102ZM979.645 90.9136C1008.55 90.9136 1030.78 102.345 1046.35 125.209C1062.16 148.072 1070.06 175.782 1070.06 208.337C1070.06 233.437 1066.11 257.17 1058.21 279.537C1050.3 301.655 1037.95 320.293 1021.15 335.453C1004.35 350.364 984.71 357.819 962.229 357.819C957.782 357.819 940.983 356.08 911.831 352.6C915.29 299.17 917.019 254.934 917.019 219.893C917.019 184.852 915.907 146.084 913.684 103.588C937.648 95.1384 959.635 90.9136 979.645 90.9136ZM971.493 312.341C982.857 312.341 994.098 302.276 1005.21 282.146C1016.58 261.768 1022.26 239.899 1022.26 216.538C1022.26 192.929 1018.18 173.545 1010.03 158.386C1002.13 143.226 992.615 135.646 981.498 135.646C975.569 135.646 970.011 136.64 964.823 138.629C965.811 175.409 966.305 206.349 966.305 231.449C966.305 256.301 965.564 282.27 964.082 309.359C965.811 311.347 968.281 312.341 971.493 312.341ZM1208.27 348.5L1199.74 296.684L1144.53 298.921L1130.45 369.002L1078.57 364.529L1144.9 94.2686L1213.46 100.233L1262 352.973L1208.27 348.5ZM1175.66 143.102L1152.31 259.034L1193.82 257.543L1175.66 143.102Z" fill="#394167"/>
</svg>
