<svg width="24" height="24" viewBox="0 0 24 24" fill="none" xmlns="http://www.w3.org/2000/svg">
<path fill-rule="evenodd" clip-rule="evenodd" d="M5 11.4752C5 7.91149 7.92266 5 11.5 5C15.0773 5 18 7.91149 18 11.4752C18 13.2919 17.205 15.0388 15.8489 16.2733L15.7788 16.3432C14.7792 17.3389 14.8612 19.4341 14.8667 19.5736C14.8668 19.5777 14.8669 19.5801 14.8669 19.5807C14.8669 19.6972 14.8201 19.8137 14.75 19.8835C14.6799 19.9534 14.5863 20 14.4694 20H8.50719C8.41367 20 8.29676 19.9534 8.22662 19.8835C8.13309 19.7904 8.10971 19.6972 8.10971 19.5807C8.13309 19.5575 8.22662 17.368 7.19784 16.3432C5.81835 15.132 5 13.3385 5 11.4752ZM15.241 15.7376L15.241 15.7376C16.4802 14.6661 17.1817 13.1056 17.1817 11.4519C17.1817 8.30745 14.6331 5.76863 11.4766 5.76863C8.32014 5.76863 5.77158 8.30745 5.77158 11.4519C5.77158 13.1056 6.4964 14.6661 7.73561 15.7376C8.71763 16.7391 8.88129 18.4161 8.90468 19.1848H14.0719C14.0953 18.4161 14.259 16.809 15.1709 15.8307C15.1709 15.8075 15.2176 15.7609 15.241 15.7376Z" fill="#FF9D1C"/>
<path d="M11.3648 7C11.1717 7 11 7.17167 11 7.36481C11 7.55794 11.1717 7.72961 11.3648 7.72961C13.5321 7.72961 15.2702 9.48927 15.2702 11.6352C15.2702 11.8283 15.4419 12 15.635 12C15.8282 12 15.9998 11.8283 15.9998 11.6352C16.0213 9.08155 13.9398 7 11.3648 7Z" fill="#FF9D1C"/>
<path fill-rule="evenodd" clip-rule="evenodd" d="M8.96078 20H14.0392C14.5654 20 15 20.4524 15 21C15 21.5476 14.5654 21.9762 14.0163 22H8.96078C8.43464 22 8 21.5476 8 21C8 20.4524 8.43464 20 8.96078 20ZM8.96078 21.1667H14.0392C14.1307 21.1667 14.1993 21.0952 14.1993 20.9762C14.1993 20.8571 14.1078 20.7857 14.0163 20.7857H8.96078C8.84641 20.7857 8.77778 20.8571 8.77778 20.9762C8.77778 21.0952 8.86928 21.1667 8.96078 21.1667Z" fill="#FF9D1C"/>
<path fill-rule="evenodd" clip-rule="evenodd" d="M9.875 22H13.125C13.6042 22 14 22.4286 14 23C14 23.5476 13.6042 24 13.125 24H9.875C9.39583 24 9 23.5476 9 23C9 22.4524 9.39583 22 9.875 22ZM9.875 23.1667H13.125C13.2083 23.1667 13.2917 23.0952 13.2917 22.9762C13.2917 22.8571 13.2083 22.7857 13.125 22.7857H9.875C9.77083 22.7857 9.70833 22.8571 9.70833 22.9762C9.70833 23.0952 9.79167 23.1667 9.875 23.1667Z" fill="#FF9D1C"/>
<path d="M20.961 6.19747C20.8724 6.01722 20.6289 5.94962 20.4518 6.03975L18.194 7.27899C18.0169 7.36911 17.9505 7.61696 18.039 7.79722C18.1055 7.93241 18.2383 8 18.3711 8C18.4375 8 18.5039 7.97747 18.5482 7.95494L20.806 6.7157C20.9831 6.62557 21.0495 6.37772 20.961 6.19747Z" fill="#FF9D1C"/>
<path d="M2.03905 6.19747C2.12759 6.01722 2.37108 5.94962 2.54817 6.03975L4.806 7.27899C4.98309 7.36911 5.04949 7.61696 4.96095 7.79722C4.89454 7.93241 4.76173 8 4.62892 8C4.56251 8 4.4961 7.97747 4.45183 7.95494L2.194 6.7157C2.01691 6.62557 1.95051 6.37772 2.03905 6.19747Z" fill="#FF9D1C"/>
<path d="M17.8499 2.19892C17.7051 2.05982 17.4531 2.07958 17.3176 2.22484L15.6197 4.16157C15.4842 4.30682 15.5065 4.56244 15.6514 4.70154C15.76 4.80586 15.9079 4.82395 16.0327 4.77853C16.0951 4.75582 16.1498 4.71193 16.1837 4.67562L17.8816 2.73889C18.0171 2.59363 17.9948 2.33802 17.8499 2.19892Z" fill="#FF9D1C"/>
<path d="M4.65325 2.19892C4.7981 2.05982 5.05003 2.07958 5.18561 2.22484L6.88344 4.16157C7.01902 4.30682 6.99665 4.56244 6.8518 4.70154C6.74316 4.80586 6.59523 4.82395 6.47043 4.77853C6.40803 4.75582 6.35333 4.71193 6.31944 4.67562L4.62161 2.73889C4.48603 2.59363 4.5084 2.33802 4.65325 2.19892Z" fill="#FF9D1C"/>
<path d="M11.6334 0.00041328C11.4391 -0.0100358 11.2674 0.179243 11.2606 0.387832L11.2502 3.09325C11.2434 3.30184 11.4222 3.48906 11.6166 3.49951C11.7623 3.50735 11.882 3.41975 11.9444 3.29773C11.9756 3.23673 11.9877 3.16424 11.9894 3.11209L11.9998 0.40668C12.0066 0.19809 11.8278 0.0108623 11.6334 0.00041328Z" fill="#FF9D1C"/>
</svg>
