<svg width="104" height="118" viewBox="0 0 104 118" fill="none" xmlns="http://www.w3.org/2000/svg">
<g filter="url(#filter0_d)">
<path d="M97 2H5C3.89543 2 3 2.89543 3 4V109C3 110.105 3.89543 111 5 111H97C98.1046 111 99 110.105 99 109V4C99 2.89543 98.1046 2 97 2Z" fill="#CACCCC"/>
<path fill-rule="evenodd" clip-rule="evenodd" d="M29.5 73L52 112H7L29.5 73Z" fill="#F0F2F2"/>
<path fill-rule="evenodd" clip-rule="evenodd" d="M62 55L97 112H27L62 55Z" fill="#E3E5E6"/>
<path fill-rule="evenodd" clip-rule="evenodd" d="M34.5 42C38.6421 42 42 38.1944 42 33.5C42 28.8056 38.6421 25 34.5 25C30.3579 25 27 28.8056 27 33.5C27 38.1944 30.3579 42 34.5 42Z" fill="#E3E5E6"/>
</g>
<defs>
<filter id="filter0_d" x="0" y="0" width="104" height="118" filterUnits="userSpaceOnUse" color-interpolation-filters="sRGB">
<feFlood flood-opacity="0" result="BackgroundImageFix"/>
<feColorMatrix in="SourceAlpha" type="matrix" values="0 0 0 0 0 0 0 0 0 0 0 0 0 0 0 0 0 0 127 0"/>
<feOffset dx="1" dy="2"/>
<feGaussianBlur stdDeviation="2"/>
<feColorMatrix type="matrix" values="0 0 0 0 0 0 0 0 0 0 0 0 0 0 0 0 0 0 0.5 0"/>
<feBlend mode="normal" in2="BackgroundImageFix" result="effect1_dropShadow"/>
<feBlend mode="normal" in="SourceGraphic" in2="effect1_dropShadow" result="shape"/>
</filter>
</defs>
</svg>
