<svg width="338" height="145" viewBox="0 0 338 145" fill="none" xmlns="http://www.w3.org/2000/svg">
<rect width="338" height="145" fill="white"/>
<rect width="338" height="145" fill="#4BBFE8"/>
<path d="M61.874 115.119C61.874 110.635 65.509 107 69.9931 107H80.755C85.239 107 88.874 110.635 88.874 115.119C88.874 116.71 87.5842 118 85.9931 118H64.755C63.1639 118 61.874 116.71 61.874 115.119Z" fill="#FF9200"/>
<path d="M54.874 49.6667C54.874 37.7005 64.5745 28 76.5407 28C87.1229 28 96.1532 35.6471 97.5098 46.142C100.486 69.1652 102.53 91.9973 106.874 99.5C110.683 106.078 114.185 106.907 118.183 108.286C120.628 109.129 120.328 112.182 117.874 113H91.874C71.4395 113 54.874 96.4345 54.874 76V75V69.5V62.5V52V49.6667Z" fill="white"/>
<mask id="mask0" mask-type="alpha" maskUnits="userSpaceOnUse" x="54" y="28" width="66" height="85">
<path d="M54.874 49.6667C54.874 37.7005 64.5745 28 76.5407 28C87.1229 28 96.1532 35.6471 97.5098 46.142C100.486 69.1652 102.53 91.9973 106.874 99.5C110.683 106.078 114.185 106.907 118.183 108.286C120.628 109.129 120.328 112.182 117.874 113H91.874C71.4395 113 54.874 96.4345 54.874 76V75V69.5V62.5V52V49.6667Z" fill="white"/>
</mask>
<g mask="url(#mask0)">
<path d="M63.374 39C57.874 39 57.374 45 55.374 45C56.2074 38.6667 61.374 26.1 75.374 26.5C92.874 27 100.374 34.5 102.874 64.5C104.874 88.5 112.707 100.167 116.374 103C118.874 104.833 123.774 109.1 123.374 111.5C122.874 114.5 118.374 117 116.374 116.5C114.774 116.1 93.374 115 82.874 114.5C81.874 114.833 79.874 114.7 79.874 111.5L79.374 111C91.374 108 76.874 62 76.374 60.5C75.874 59 72.374 39 63.374 39Z" fill="#394167"/>
</g>
<path d="M56.0713 58.8935C55.672 58.0123 55.4673 58.0097 54.7271 58.0116C53.9871 58.0136 51.9809 58.6613 50.1732 62.8203C49.5637 64.2392 48.8786 66.3619 49.0505 67.4074C49.2153 68.4529 51.816 66.8125 52.88 66.6925C53.9723 66.5724 57.9551 68.3412 58.129 67.4708C58.3169 66.5221 56.7305 60.3481 56.0713 58.8935Z" fill="#FF9200"/>
<path d="M96.2198 83.7169C98.7364 78.413 96.4767 72.0732 91.1727 69.5566C85.8688 67.0401 79.529 69.2997 77.0124 74.6037C74.4959 79.9077 70.1737 100.119 75.4777 102.636C80.7817 105.153 93.7032 89.0209 96.2198 83.7169Z" fill="#394167"/>
<ellipse cx="63.6334" cy="55.0752" rx="3.7594" ry="5.07519" fill="#394167"/>
<path d="M137.847 105.582C139.165 103.052 142.285 102.068 144.816 103.386L147.181 104.618C149.712 105.936 150.695 109.056 149.377 111.587C148.909 112.485 147.802 112.834 146.904 112.366L138.626 108.055C137.728 107.588 137.379 106.481 137.847 105.582Z" fill="#FF9200"/>
<path d="M141.974 81.5556C141.974 75.1736 147.148 70 153.53 70C159.174 70 163.99 74.0785 164.713 79.6757C166.3 91.9547 167.391 104.132 169.707 108.133C171.739 111.642 173.607 112.084 175.739 112.819C177.043 113.269 176.883 114.897 175.574 115.333H161.707C150.809 115.333 141.974 106.498 141.974 95.6V95.0667V92.1333V88.4V82.8V81.5556Z" fill="white"/>
<mask id="mask1" mask-type="alpha" maskUnits="userSpaceOnUse" x="141" y="70" width="36" height="46">
<path d="M141.974 81.5556C141.974 75.1736 147.148 70 153.53 70C159.174 70 163.99 74.0785 164.713 79.6757C166.3 91.9547 167.391 104.132 169.707 108.133C171.739 111.642 173.607 112.084 175.739 112.819C177.043 113.269 176.883 114.897 175.574 115.333H161.707C150.809 115.333 141.974 106.498 141.974 95.6V95.0667V92.1333V88.4V82.8V81.5556Z" fill="white"/>
</mask>
<g mask="url(#mask1)">
<path d="M146.507 75.8666C143.574 75.8666 143.307 79.0666 142.241 79.0666C142.685 75.6889 145.441 68.9866 152.907 69.2C162.241 69.4666 166.241 73.4667 167.574 89.4667C168.641 102.267 172.819 108.489 174.774 110C176.107 110.978 178.721 113.253 178.507 114.533C178.241 116.133 175.841 117.467 174.774 117.2C173.921 116.987 162.507 116.4 156.907 116.133C156.374 116.311 155.307 116.24 155.307 114.533L155.041 114.267C161.441 112.667 153.707 88.1333 153.441 87.3333C153.174 86.5333 151.307 75.8666 146.507 75.8666Z" fill="#394167"/>
</g>
<path d="M147 116.546C147 113.79 149.667 111.821 152.301 112.631L158.063 114.404C159.214 114.758 160 115.822 160 117.026C160 117.564 159.564 118 159.026 118H148.454C147.651 118 147 117.349 147 116.546Z" fill="#FF9200"/>
<path d="M142.643 86.3909C142.471 86.0109 142.382 86.0098 142.063 86.0106C141.744 86.0115 140.879 86.2907 140.1 88.0841C139.837 88.6959 139.541 89.6112 139.616 90.062C139.687 90.5128 140.808 89.8055 141.267 89.7537C141.738 89.7019 143.455 90.4646 143.53 90.0893C143.611 89.6802 142.927 87.0181 142.643 86.3909Z" fill="#FF9200"/>
<path d="M161.905 100.376C164.336 98.4028 164.707 94.8325 162.734 92.4016C160.761 89.9707 157.19 89.5997 154.759 91.573C152.328 93.5464 145.6 102.278 147.573 104.709C149.546 107.14 159.475 102.35 161.905 100.376Z" fill="#394167"/>
<ellipse cx="146.759" cy="84" rx="2.22222" ry="3" fill="#394167"/>
<path d="M248.847 105.582C250.165 103.052 253.285 102.068 255.816 103.386L258.181 104.618C260.712 105.936 261.695 109.056 260.377 111.587C259.909 112.485 258.802 112.834 257.904 112.366L249.626 108.055C248.728 107.588 248.379 106.481 248.847 105.582Z" fill="#FF9200"/>
<path d="M252.974 81.5556C252.974 75.1736 258.148 70 264.53 70C270.174 70 274.99 74.0785 275.713 79.6757C277.3 91.9547 278.391 104.132 280.707 108.133C282.739 111.642 284.607 112.084 286.739 112.819C288.043 113.269 287.883 114.897 286.574 115.333H272.707C261.809 115.333 252.974 106.498 252.974 95.6V95.0667V92.1333V88.4V82.8V81.5556Z" fill="white"/>
<mask id="mask2" mask-type="alpha" maskUnits="userSpaceOnUse" x="252" y="70" width="36" height="46">
<path d="M252.974 81.5556C252.974 75.1736 258.148 70 264.53 70C270.174 70 274.99 74.0785 275.713 79.6757C277.3 91.9547 278.391 104.132 280.707 108.133C282.739 111.642 284.607 112.084 286.739 112.819C288.043 113.269 287.883 114.897 286.574 115.333H272.707C261.809 115.333 252.974 106.498 252.974 95.6V95.0667V92.1333V88.4V82.8V81.5556Z" fill="white"/>
</mask>
<g mask="url(#mask2)">
<path d="M257.507 75.8666C254.574 75.8666 254.307 79.0666 253.241 79.0666C253.685 75.6889 256.441 68.9866 263.907 69.2C273.241 69.4666 277.241 73.4667 278.574 89.4667C279.641 102.267 283.819 108.489 285.774 110C287.107 110.978 289.721 113.253 289.507 114.533C289.241 116.133 286.841 117.467 285.774 117.2C284.921 116.987 273.507 116.4 267.907 116.133C267.374 116.311 266.307 116.24 266.307 114.533L266.041 114.267C272.441 112.667 264.707 88.1333 264.441 87.3333C264.174 86.5333 262.307 75.8666 257.507 75.8666Z" fill="#394167"/>
</g>
<path d="M258 116.546C258 113.79 260.667 111.821 263.301 112.631L269.063 114.404C270.214 114.758 271 115.822 271 117.026C271 117.564 270.564 118 270.026 118H259.454C258.651 118 258 117.349 258 116.546Z" fill="#FF9200"/>
<path d="M253.643 86.3909C253.471 86.0109 253.382 86.0098 253.063 86.0106C252.744 86.0115 251.879 86.2907 251.1 88.0841C250.837 88.6959 250.541 89.6112 250.616 90.062C250.687 90.5128 251.808 89.8055 252.267 89.7537C252.738 89.7019 254.455 90.4646 254.53 90.0893C254.611 89.6802 253.927 87.0181 253.643 86.3909Z" fill="#FF9200"/>
<path d="M272.765 98.9194C274.922 96.6493 274.829 93.0609 272.559 90.9045C270.289 88.7481 266.701 88.8402 264.544 91.1103C262.388 93.3804 256.84 102.906 259.11 105.062C261.38 107.219 270.609 101.189 272.765 98.9194Z" fill="#394167"/>
<ellipse cx="257.759" cy="84" rx="2.22222" ry="3" fill="#394167"/>
<path d="M199.406 116.167C199.406 113.313 201.719 111 204.573 111H207.24C210.093 111 212.406 113.313 212.406 116.167C212.406 117.179 211.585 118 210.573 118H201.24C200.227 118 199.406 117.179 199.406 116.167Z" fill="#FF9200"/>
<path d="M196.38 81.5556C196.38 75.1736 201.554 70 207.936 70C213.58 70 218.396 74.0785 219.119 79.6757C220.707 91.9547 221.797 104.132 224.114 108.133C226.145 111.642 228.013 112.084 230.145 112.819C231.449 113.269 231.289 114.897 229.98 115.333H216.114C205.215 115.333 196.38 106.498 196.38 95.6V95.0667V92.1333V88.4V82.8V81.5556Z" fill="white"/>
<mask id="mask3" mask-type="alpha" maskUnits="userSpaceOnUse" x="196" y="70" width="36" height="46">
<path d="M196.38 81.5556C196.38 75.1736 201.554 70 207.936 70C213.58 70 218.396 74.0785 219.119 79.6757C220.707 91.9547 221.797 104.132 224.114 108.133C226.145 111.642 228.013 112.084 230.145 112.819C231.449 113.269 231.289 114.897 229.98 115.333H216.114C205.215 115.333 196.38 106.498 196.38 95.6V95.0667V92.1333V88.4V82.8V81.5556Z" fill="white"/>
</mask>
<g mask="url(#mask3)">
<path d="M200.914 75.8666C197.98 75.8666 197.714 79.0666 196.647 79.0666C197.091 75.6889 199.847 68.9866 207.314 69.2C216.647 69.4666 220.647 73.4667 221.98 89.4667C223.047 102.267 227.225 108.489 229.18 110C230.514 110.978 233.127 113.253 232.914 114.533C232.647 116.133 230.247 117.467 229.18 117.2C228.327 116.987 216.914 116.4 211.314 116.133C210.78 116.311 209.714 116.24 209.714 114.533L209.447 114.267C215.847 112.667 208.114 88.1333 207.847 87.3333C207.58 86.5333 205.714 75.8666 200.914 75.8666Z" fill="#394167"/>
</g>
<path d="M197.049 86.3909C196.877 86.0109 196.789 86.0098 196.469 86.0106C196.15 86.0115 195.285 86.2907 194.506 88.0841C194.243 88.6959 193.948 89.6112 194.022 90.062C194.093 90.5128 195.214 89.8055 195.673 89.7537C196.144 89.7019 197.861 90.4646 197.936 90.0893C198.017 89.6802 197.333 87.0181 197.049 86.3909Z" fill="#FF9200"/>
<path d="M223.244 90.0197C220.594 88.352 217.094 89.1482 215.426 91.7982C213.758 94.4481 214.554 97.9482 217.204 99.616C219.854 101.284 230.285 104.849 231.953 102.199C233.62 99.5492 225.894 91.6874 223.244 90.0197Z" fill="#394167"/>
<ellipse cx="201.166" cy="84" rx="2.22222" ry="3" fill="#394167"/>
</svg>
