<svg width="17" height="17" viewBox="0 0 17 17" fill="none" xmlns="http://www.w3.org/2000/svg">
<path d="M14.5342 2.46583C14.0797 2.01139 13.3429 2.01139 12.8885 2.46583L8.5 6.85432L4.11151 2.46583C3.65707 2.01139 2.92027 2.01139 2.46583 2.46583C2.01139 2.92027 2.01139 3.65707 2.46583 4.11151L6.85432 8.5L2.46583 12.8885C2.01139 13.3429 2.01139 14.0797 2.46583 14.5342C2.92027 14.9886 3.65707 14.9886 4.11151 14.5342L8.5 10.1457L12.8885 14.5342C13.3429 14.9886 14.0797 14.9886 14.5342 14.5342C14.9886 14.0797 14.9886 13.3429 14.5342 12.8885L10.1457 8.5L14.5342 4.11151C14.9886 3.65707 14.9886 2.92027 14.5342 2.46583Z" fill="#FF9D1C"/>
</svg>
