<svg width="117" height="143" viewBox="0 0 117 143" fill="none" xmlns="http://www.w3.org/2000/svg">
<path d="M93.3781 86.7639C87.138 77.6137 86.9222 64.4912 77.8841 50.6656C68.8459 36.84 50.7656 36.84 50.1181 37.0409L50.1303 39.8445L50.1099 37.2457C49.4623 37.0409 31.386 37.0409 22.3479 50.8704C13.3098 64.7 13.094 77.8186 6.85401 86.9687C0.610011 96.1188 -1.27989 104.353 0.825883 107.631C1.83193 109.197 5.04964 108.96 8.14517 107.197C13.3587 104.229 11.8028 106.382 11.8028 108.012C11.8028 113.543 13.265 127.332 24.9262 134.246C35.903 140.753 44.7172 141.005 51.6495 140.829C57.8569 140.672 65.84 139.905 75.7335 134.041C87.3906 127.128 88.4335 113.338 88.4335 107.807C88.4335 106.181 87.1992 103.574 92.091 106.992C94.9053 108.96 98.4002 108.992 99.4104 107.426C101.512 104.152 99.6179 95.9179 93.3781 86.7639Z" fill="#394167"/>
<path d="M48.9653 137.855C48.9822 137.855 48.9935 137.849 49.0104 137.833C48.7684 137.849 48.7346 137.855 48.9653 137.855Z" fill="white"/>
<path d="M68.1499 53.7262C63.329 48.8448 57.7453 52.9925 54.1928 56.4108C51.5676 58.9342 51.0216 59.3413 49.6488 59.3614C48.2197 59.3816 47.4531 58.9342 44.8279 56.4108C41.2754 52.9925 35.6917 48.8448 30.8707 53.7262C26.0537 58.6077 18.1901 67.1532 19.4586 94.7368C20.727 122.321 30.1883 137.452 36.8598 140.024C42.9933 142.383 56.0874 143.314 64.5733 139.444C69.8358 137.046 78.2976 122.329 79.5661 94.7409C80.8386 67.1532 72.9709 58.6077 68.1499 53.7262Z" fill="white"/>
<path d="M51.2385 137.836C51.2498 137.847 51.261 137.853 51.2723 137.853C51.475 137.853 51.4468 137.847 51.2385 137.836Z" fill="white"/>
<path d="M54.4072 63.6152C52.958 64.0674 51.2505 64.7118 49.7973 64.7118C48.3441 64.7118 46.6326 64.0674 45.1875 63.6152C41.2841 62.3905 31.8585 61.6022 25.6259 63.4952L24.1526 66.4087C24.1526 66.4087 26.522 66.5368 26.8975 67.7174C27.2729 68.898 28.1407 73.7806 29.7272 75.6896C31.6971 78.0589 35.54 78.1469 38.41 78.0309C42.277 77.8748 43.5647 76.7102 45.8898 73.4805C47.6418 71.0472 47.9001 70.9751 48.6792 70.3108C49.1918 69.8745 50.4957 69.9586 50.9235 70.3108C51.6179 70.8831 52.0256 71.0111 53.7129 73.4805C55.7796 76.5061 57.3256 77.8748 61.1928 78.0309C64.0628 78.1469 67.9016 78.0589 69.8756 75.6896C71.4619 73.7806 72.3339 68.902 72.7053 67.7174C73.0806 66.5328 74.8729 66.3247 74.8729 66.3247L73.5529 63.4952C67.3163 61.6022 58.3146 62.3905 54.4072 63.6152Z" fill="#394167"/>
<path d="M54.1263 79.287C51.7888 75.3811 50.701 74.4392 49.7223 74.4392C48.7437 74.4392 47.4091 75.0743 45.0109 79.179C44.1981 80.5746 43.2922 82.6745 43.5065 83.7028C43.7208 84.7311 48.6749 86.6279 50.0823 86.5112C51.5219 86.3903 55.2708 84.6447 55.5013 83.7892C55.7561 82.856 54.9878 80.7302 54.1263 79.287Z" fill="#FF9200"/>
<path d="M50.1422 139.058C50.1478 139.058 50.1534 139.052 50.1591 139.047C50.0576 139.052 50.0406 139.058 50.1422 139.058Z" fill="white"/>
<path d="M57.9425 100.806C55.919 98.6145 53.5731 100.479 52.0816 102.012C50.9786 103.148 50.7494 103.33 50.1746 103.338C49.5765 103.346 49.2502 103.148 48.1511 102.012C46.6596 100.475 44.3137 98.6105 42.2901 100.806C40.2666 102.998 36.9614 106.84 37.4934 119.236C38.0256 131.631 43.4087 135.169 46.2091 136.322C48.7841 137.381 51.8214 137.798 55.3869 136.059C57.5969 134.98 62.2071 131.627 62.7392 119.232C63.2713 106.84 59.9699 103.002 57.9425 100.806Z" fill="white"/>
<path d="M50.0793 139.049C50.0849 139.053 50.0906 139.053 50.0963 139.053C50.1809 139.06 50.1696 139.053 50.0793 139.049Z" fill="white"/>
<path d="M97.3333 100C96.5049 100 95.8333 98.4609 95.8333 96.5624C95.9303 93.1648 96.4907 89.9231 97.4353 87.295C98.2616 85.0691 98.7519 82.2911 98.8332 79.375C98.8332 76.8587 97.4592 74.5625 96.1332 72.2938C94.5103 69.5439 92.8333 66.7182 92.8333 62.1875C92.9526 58.3377 93.67 54.7132 94.8553 51.9713C95.2902 50.7338 95.8333 49.2214 95.8333 48.4377C95.8333 46.5392 96.5049 45 97.3333 45C98.1617 45 98.8333 46.5392 98.8333 48.4377C98.6996 51.4128 98.1184 54.1885 97.1893 56.289C96.4689 57.8643 95.9928 59.9355 95.8333 62.1878C95.8333 63.2465 97.0843 65.3641 97.9093 66.7598C99.6582 69.716 101.833 73.3872 101.833 79.3756C101.764 83.6708 101.093 87.8003 99.9192 91.1525C99.333 92.672 98.9551 94.554 98.8332 96.5631C98.8333 98.4609 98.1617 100 97.3333 100Z" fill="#394167"/>
<path d="M102.086 44.747L97.8361 40.497C97.283 39.944 96.3862 39.944 95.8329 40.497L91.5829 44.747C91.029 45.2995 91.0279 46.1966 91.5804 46.7505C91.8462 47.0169 92.2069 47.1666 92.5831 47.1668H101.083C101.866 47.1682 102.501 46.535 102.502 45.7526C102.503 45.3754 102.353 45.0135 102.086 44.747Z" fill="#C62828"/>
<path d="M96.8333 0C85.8848 0.0124844 77.0125 8.88489 77 19.8333C77 30.9995 89.002 43.9166 96.8333 43.9166C104.665 43.9166 116.667 30.9994 116.667 19.8333C116.654 8.88489 107.782 0.0124844 96.8333 0Z" fill="#F44336"/>
<path d="M84.0832 20.25C83.3008 20.25 82.6665 19.6157 82.6665 18.8333C82.6759 11.0132 89.0131 4.67604 96.8332 4.66675C97.6156 4.66675 98.2499 5.30106 98.2499 6.08346C98.2499 6.86586 97.6156 7.50004 96.8332 7.50004C90.574 7.50004 85.4999 12.5741 85.4999 18.8333C85.4999 19.6157 84.8656 20.25 84.0832 20.25Z" fill="#F2F2F2"/>
</svg>
