<svg width="112" height="88" viewBox="0 0 112 88" fill="none" xmlns="http://www.w3.org/2000/svg">
<path d="M123.095 66.8949C154.23 164.03 72.4017 123.224 33.7305 123.224C-4.94081 123.224 0.230232 110.336 0.230232 71.5344C0.230232 32.7333 12.559 48.5302 51.2302 48.5302C83.434 34.6116 109.885 -9.98867 123.095 66.8949Z" fill="#F2EDB9"/>
<path d="M75.8322 47.5243C75.1156 50.9466 71.7603 53.1399 68.338 52.4233C64.9157 51.7066 62.7224 48.3513 63.439 44.929C64.1557 41.5067 69.3854 30.3628 72.8077 31.0794C76.23 31.7961 76.5489 44.102 75.8322 47.5243Z" fill="#394167"/>
<path d="M41.0359 62.1373C43.9811 64.0218 47.8964 63.1618 49.7808 60.2165C51.6652 57.2713 50.8053 53.356 47.86 51.4716C44.9148 49.5872 33.2965 45.5186 31.4121 48.4638C29.5276 51.4091 38.0906 60.2529 41.0359 62.1373Z" fill="#394167"/>
<path d="M66.5627 74.0256C66.5807 74.0256 66.5928 74.0191 66.6108 74.0022C66.3524 74.0191 66.3163 74.0256 66.5627 74.0256Z" fill="white"/>
<path d="M69.0065 74.0048C69.0185 74.0165 69.0305 74.023 69.0425 74.023C69.259 74.023 69.2289 74.0165 69.0065 74.0048Z" fill="white"/>
<path d="M47.5677 28.5911C47.7993 28.3848 55.3519 25.213 61.7351 29.84C64.8576 32.2948 72.2669 40.4951 76.9244 53.6578C77.9682 56.1434 80.1375 62.5163 76.57 67.6682C73.5416 72.0398 70.354 73.7813 67.7898 74.9435C64.9271 76.2402 61.1994 77.6731 55.3853 76.6738C49.2092 75.6137 45.9975 69.6787 44.9536 67.193C37.8508 52.5128 37.7417 42.731 38.5751 39.6752C39.7446 31.8764 47.2584 28.612 47.5677 28.5911Z" fill="#394167"/>
<path d="M67.8279 75.3175C67.8339 75.3175 67.8399 75.311 67.846 75.3058C67.7376 75.311 67.7195 75.3175 67.8279 75.3175Z" fill="white"/>
<path d="M58.242 32.2939C55.3256 30.9643 53.7774 33.7871 52.9375 35.9258C52.3177 37.5103 52.1663 37.786 51.6003 38.0331C51.0112 38.29 50.6055 38.2294 49.044 37.5609C46.9274 36.6591 43.828 35.7881 42.7369 38.8053C41.6443 41.8183 39.9684 46.999 45.6519 59.0563C51.3356 71.1137 58.1399 72.3791 61.3933 72.3558C64.3849 72.3341 67.5668 71.4833 70.3756 68.278C72.1156 66.2892 75.2876 61.0498 70.6583 48.55C66.0307 36.0541 61.1638 33.6257 58.242 32.2939Z" fill="white"/>
<path d="M67.761 75.3077C67.767 75.3129 67.773 75.313 67.7791 75.313C67.8695 75.3195 67.8574 75.3129 67.761 75.3077Z" fill="white"/>
<path d="M57.7055 46.1511C56.0473 44.9313 55.4295 44.7319 55.0219 44.9031C54.6144 45.0742 54.171 45.5727 53.8875 47.7025C53.7948 48.4275 53.7809 49.4599 54.0548 49.8512C54.3248 50.2441 56.7205 50.1653 57.2863 49.871C57.8676 49.5701 59.122 48.1869 59.0687 47.7882C59.0096 47.354 58.3181 46.5988 57.7055 46.1511Z" fill="#FF9200"/>
<path d="M60.8632 41.2148C61.4999 42.731 60.0934 42.4512 58.9703 42.9229C57.8471 43.3946 57.4326 44.4392 56.7958 42.9229C56.159 41.4066 56.5533 39.795 57.6765 39.3233C58.7997 38.8517 60.2264 39.6985 60.8632 41.2148Z" fill="#394167"/>
<path d="M51.7411 45.0457C52.3779 46.562 51.1597 46.2821 50.0365 46.7538C48.9134 47.2255 48.3105 48.2701 47.6737 46.7538C47.037 45.2375 47.4313 43.626 48.5544 43.1543C49.6776 42.6826 51.1043 43.5294 51.7411 45.0457Z" fill="#394167"/>
<path d="M51.778 79.4658C51.778 76.6964 54.023 74.4514 56.7924 74.4514H60.1084C62.8777 74.4514 65.1227 76.6964 65.1227 79.4658C65.1227 80.4485 64.3261 81.2451 63.3435 81.2451H53.5573C52.5746 81.2451 51.778 80.4485 51.778 79.4658Z" fill="#FF9200"/>
<rect x="64.8798" y="65.1654" width="9.70526" height="12.1316" rx="4.85263" transform="rotate(-24.7204 64.8798 65.1654)" fill="#FF9200"/>
<rect x="63.9095" y="18.7121" width="6.30842" height="9.70526" rx="3.15421" fill="#ABABA8"/>
<rect x="60.3813" y="8.76428" width="13.3447" height="13.3447" rx="6.67237" fill="#F2DE29"/>
<rect x="63.9095" y="16.5284" width="6.30842" height="9.22" rx="3.15421" fill="#F2DE29"/>
<path d="M66.9318 5.73131V1" stroke="#F2DE29" stroke-width="1.58759" stroke-linecap="round"/>
<path d="M74.5851 8.22759L77.9307 4.88205" stroke="#F2DE29" stroke-width="1.58759" stroke-linecap="round"/>
<path d="M59.1778 8.22759L55.8323 4.88205" stroke="#F2DE29" stroke-width="1.58759" stroke-linecap="round"/>
<path d="M77.2545 15.5579H81.9858" stroke="#F2DE29" stroke-width="1.58759" stroke-linecap="round"/>
<path d="M56.5093 15.5579H51.778" stroke="#F2DE29" stroke-width="1.58759" stroke-linecap="round"/>
<circle cx="65.1226" cy="14.1021" r="2.66895" fill="#FFF171"/>
</svg>
