<svg width="116" height="85" viewBox="0 0 116 85" fill="none" xmlns="http://www.w3.org/2000/svg">
<path d="M145.786 44.4795C203.615 130.109 103.87 113.083 61.4292 123.741C18.9881 134.399 21.5242 120.474 12.0738 82.8413C2.62332 45.2086 20.0014 57.132 62.4425 46.474C94.3956 24.0991 112.562 -26.4481 145.786 44.4795Z" fill="#B6E0DE"/>
<path d="M74.2321 61.2922C74.2515 61.2922 74.2645 61.2852 74.2838 61.2671C74.0061 61.2852 73.9674 61.2922 74.2321 61.2922Z" fill="white"/>
<path d="M76.8578 61.2698C76.8708 61.2824 76.8836 61.2894 76.8966 61.2894C77.1291 61.2894 77.0968 61.2824 76.8578 61.2698Z" fill="white"/>
<path d="M64.1285 11.0714C64.4434 10.9625 73.2446 10.9395 77.6618 18.1668C79.7434 21.8921 83.7011 33.0874 82.8782 48.0661C82.8858 50.9627 82.4023 58.1794 76.7346 61.8136C71.9241 64.8968 68.043 65.3061 65.0197 65.3985C61.6448 65.501 57.3557 65.3809 52.003 61.9862C46.3165 58.3817 45.5851 51.1682 45.5776 48.2717C44.6028 30.777 48.5386 21.0315 50.6283 18.3456C55.0122 11.0952 63.8131 10.9643 64.1285 11.0714Z" fill="#394167"/>
<path d="M75.5921 62.6802C75.5985 62.6802 75.6049 62.6733 75.6115 62.6677C75.495 62.6733 75.4756 62.6802 75.5921 62.6802Z" fill="white"/>
<path d="M73.1838 19.1563C70.8413 16.6321 68.139 18.7913 66.422 20.5651C65.1522 21.8802 64.8882 22.091 64.2247 22.102C63.5343 22.1132 63.157 21.8854 61.8848 20.5769C60.1586 18.8076 57.445 16.6625 55.1157 19.2036C52.7865 21.7398 48.9829 26.1846 49.6344 40.4913C50.2861 54.7982 56.5107 58.8661 59.7468 60.1879C62.7224 61.4032 66.2296 61.8749 70.3402 59.8575C72.888 58.6045 78.1996 54.7201 78.7764 40.4104C79.3532 26.1052 75.5307 21.685 73.1838 19.1563Z" fill="white"/>
<path d="M75.5196 62.6697C75.526 62.6753 75.5324 62.6753 75.539 62.6753C75.6361 62.6823 75.6231 62.6753 75.5196 62.6697Z" fill="white"/>
<path d="M65.7808 32.2399C64.9679 30.8885 64.5898 30.5654 64.2511 30.5663C63.9126 30.5672 63.4521 30.7889 62.6238 32.2114C62.3445 32.6967 62.0304 33.4226 62.1088 33.78C62.1838 34.1374 63.9011 34.7879 64.3879 34.7465C64.8876 34.7051 66.1823 34.0969 66.2621 33.7992C66.3484 33.4748 66.082 32.737 65.7808 32.2399Z" fill="#FF9200"/>
<path d="M49.4374 66.9287C49.4374 63.9533 51.8494 61.5412 54.8249 61.5412H58.3876C61.363 61.5412 63.7751 63.9533 63.7751 66.9287C63.7751 67.9845 62.9192 68.8404 61.8634 68.8404H51.3491C50.2933 68.8404 49.4374 67.9845 49.4374 66.9287Z" fill="#FF9200"/>
<path d="M66.075 66.9287C66.075 63.9533 68.4871 61.5412 71.4625 61.5412H75.0252C78.0007 61.5412 80.4127 63.9533 80.4127 66.9287C80.4127 67.9845 79.5568 68.8404 78.501 68.8404H67.9867C66.9309 68.8404 66.075 67.9845 66.075 66.9287Z" fill="#FF9200"/>
<ellipse cx="69.4286" cy="28.9541" rx="2.40566" ry="3.24764" fill="#394167"/>
<ellipse cx="58.8826" cy="29.0744" rx="2.40566" ry="3.24764" fill="#394167"/>
<rect x="48.3812" y="20.1704" width="12.992" height="14.2718" rx="6.04056" stroke="#FF9200" stroke-width="1.72587"/>
<rect x="66.9387" y="20.1705" width="12.992" height="14.2718" rx="6.04056" stroke="#FF9200" stroke-width="1.72587"/>
<path d="M61.5961 29.2261C62.3426 28.4795 64.3477 27.4343 66.3954 29.2261" stroke="#FF9200" stroke-width="1.72587"/>
<path d="M62.7593 32.6131L42.5151 30.1859V54.9436L62.7593 57.3709V32.6131Z" fill="#FEEFEE"/>
<path d="M65.5518 32.6131L85.796 30.1859V54.9436L65.5518 57.3709V32.6131Z" fill="#FEEFEE"/>
<path d="M66.9479 33.0985L86.4751 31.2255C86.8596 31.1886 87.1922 31.4909 87.1922 31.8772V55.3196C87.1922 55.6569 86.9359 55.939 86.6001 55.9713L66.9479 57.8562V33.0985Z" fill="#77B3B0"/>
<path d="M69.7403 36.0113L84.3999 34.555V41.8367L69.7403 43.293V36.0113Z" fill="#A0EBE7"/>
<path d="M61.3632 33.0985L41.836 31.2255C41.4515 31.1886 41.1189 31.4909 41.1189 31.8772V55.3196C41.1189 55.6569 41.3752 55.939 41.711 55.9713L61.3632 57.8562V33.0985Z" fill="#77B3B0"/>
<rect x="60.6651" y="32.6132" width="6.98079" height="25.7286" rx="1.30928" fill="#50757A"/>
<path d="M90.6671 48.115C91.9031 47.6522 92.0626 45.0268 91.0234 42.251C89.9841 39.4751 88.1397 37.6 86.9037 38.0627C85.6677 38.5255 82.2756 42.3611 83.3148 45.137C84.3541 47.9128 89.4311 48.5777 90.6671 48.115Z" fill="#394167"/>
<path d="M38.238 48.115C37.002 47.6522 36.8425 45.0268 37.8817 42.251C38.921 39.4751 40.7654 37.6 42.0014 38.0627C43.2374 38.5255 46.6295 42.3611 45.5903 45.137C44.551 47.9128 39.474 48.5777 38.238 48.115Z" fill="#394167"/>
</svg>
