<svg width="107" height="85" viewBox="0 0 107 85" fill="none" xmlns="http://www.w3.org/2000/svg">
<path d="M38.9734 125.041C-49.6888 74.6057 38.1683 49.2641 66.6367 23.0912C95.1051 -3.08161 100.021 9.90604 126.282 38.47C152.543 67.034 132.775 63.749 104.307 89.9219C90.0198 121.964 100.733 172.699 38.9734 125.041Z" fill="#A3A6FB"/>
<path d="M68.4607 43.3088C65.0286 43.3196 62.2551 46.1105 62.2658 49.5426C62.2765 52.9746 65.0675 55.7482 68.4995 55.7375C71.9316 55.7267 83.6814 52.9078 83.6707 49.4757C83.6599 46.0437 71.8928 43.2981 68.4607 43.3088Z" fill="#394167"/>
<path d="M34.6603 47.7822C36.617 44.9625 40.489 44.2629 43.3087 46.2196C46.1284 48.1762 46.828 52.0482 44.8713 54.8679C42.9147 57.6876 33.9252 65.7619 31.1055 63.8052C28.2858 61.8486 32.7036 50.6019 34.6603 47.7822Z" fill="#394167"/>
<path d="M62.0989 70.5107C62.1166 70.5107 62.1285 70.5043 62.1462 70.4877C61.8925 70.5043 61.8571 70.5107 62.0989 70.5107Z" fill="white"/>
<path d="M64.497 70.4903C64.5089 70.5017 64.5206 70.5081 64.5324 70.5081C64.7448 70.5081 64.7153 70.5017 64.497 70.4903Z" fill="white"/>
<path d="M52.8679 24.6293C53.1556 24.5298 61.1963 24.5088 65.2318 31.1117C67.1336 34.5151 70.7493 44.743 69.9975 58.4275C70.0044 61.0737 69.5627 67.6668 64.3848 70.987C59.9899 73.8039 56.4442 74.1777 53.6821 74.2622C50.5988 74.3558 46.6803 74.2461 41.7902 71.1447C36.595 67.8517 35.9268 61.2615 35.9199 58.6152C35.0294 42.6323 38.625 33.7288 40.5342 31.275C44.5394 24.6511 52.5798 24.5314 52.8679 24.6293Z" fill="#394167"/>
<path d="M63.3406 71.7787C63.3465 71.7787 63.3524 71.7723 63.3584 71.7672C63.2519 71.7723 63.2342 71.7787 63.3406 71.7787Z" fill="white"/>
<path d="M61.1403 32.0156C59.0002 29.7096 56.5314 31.6822 54.9627 33.3027C53.8026 34.5042 53.5614 34.6967 52.9553 34.7068C52.3245 34.7171 51.9799 34.5089 50.8176 33.3135C49.2405 31.697 46.7614 29.7374 44.6334 32.0588C42.5055 34.3759 39.0305 38.4367 39.6257 51.5071C40.2211 64.5778 45.9079 68.2942 48.8643 69.5019C51.5828 70.6121 54.787 71.0431 58.5423 69.2C60.87 68.0553 65.7226 64.5065 66.2496 51.4332C66.7766 38.3641 63.2844 34.3258 61.1403 32.0156Z" fill="white"/>
<path d="M63.2749 71.7691C63.2808 71.7742 63.2866 71.7743 63.2926 71.7743C63.3814 71.7806 63.3695 71.7742 63.2749 71.7691Z" fill="white"/>
<path d="M55.1592 44.4998C54.0904 42.7232 53.5933 42.2984 53.1481 42.2995C52.703 42.3007 52.0975 42.5922 51.0086 44.4624C50.6414 45.1004 50.2285 46.0548 50.3314 46.5247C50.4301 46.9946 52.6878 47.8498 53.3278 47.7954C53.9849 47.741 55.687 46.9413 55.792 46.55C55.9054 46.1235 55.5552 45.1534 55.1592 44.4998Z" fill="#FF9200"/>
<path d="M60.1531 40.9228C60.1573 42.537 59.1839 43.9133 57.9882 43.9164C56.7925 43.9196 55.8272 42.5483 55.8229 40.9341C55.8214 40.3384 59.1496 38.0056 59.1496 38.0056C60.3454 38.0024 60.1489 39.3085 60.1531 40.9228Z" fill="#394167"/>
<path d="M45.8975 40.9197C45.8933 42.5339 46.8666 43.9102 48.0624 43.9134C49.2581 43.9165 50.2234 42.5453 50.2277 40.931C50.2292 40.3353 46.901 38.0025 46.901 38.0025C45.7052 37.9993 45.9017 39.3054 45.8975 40.9197Z" fill="#394167"/>
<path d="M39.4467 75.6601C39.4467 72.9418 41.6503 70.7382 44.3686 70.7382H47.6235C50.3418 70.7382 52.5455 72.9418 52.5455 75.6601C52.5455 76.6247 51.7635 77.4067 50.799 77.4067H41.1932C40.2286 77.4067 39.4467 76.6247 39.4467 75.6601Z" fill="#FF9200"/>
<path d="M54.646 75.6601C54.646 72.9418 56.8496 70.7382 59.568 70.7382H62.8228C65.5412 70.7382 67.7448 72.9418 67.7448 75.6601C67.7448 76.6247 66.9629 77.4067 65.9983 77.4067H56.3925C55.4279 77.4067 54.646 76.6247 54.646 75.6601Z" fill="#FF9200"/>
<path d="M56.7115 5.55382C56.7115 3.50768 54.9576 2.04615 54.0807 1.46153C53.4971 1.07245 52.5794 1.17142 52.7519 1.85132C52.7909 2.00518 52.8432 2.16765 52.9115 2.33845C53.4961 3.79998 54.0807 3.79998 54.0807 5.55382C54.0807 7.30766 51.4499 7.30766 51.1576 10.523C50.8653 13.7384 54.0807 14.0307 54.0807 16.0769C54.0807 18.123 53.2038 18.4153 52.9115 19.2922C52.7713 19.7128 53.4889 19.8551 53.8149 19.5546C54.9451 18.5125 56.7115 17.7363 56.7115 16.0769C57.0038 13.1538 54.6653 12.2769 54.6653 10.523C54.6653 8.7692 56.7115 7.59997 56.7115 5.55382Z" fill="#C4C4C4"/>
<path d="M48.7843 14.1324C48.7843 12.8502 47.6853 11.9344 47.1358 11.5681C46.7701 11.3243 46.1951 11.3863 46.3031 11.8124C46.3276 11.9088 46.3604 12.0106 46.4032 12.1176C46.7695 13.0334 47.1358 13.0334 47.1358 14.1324C47.1358 15.2313 45.4874 15.2313 45.3042 17.2461C45.121 19.2609 47.1358 19.444 47.1358 20.7262C47.1358 22.0083 46.5863 22.1915 46.4032 22.7409C46.3153 23.0045 46.765 23.0937 46.9692 22.9053C47.6775 22.2524 48.7843 21.766 48.7843 20.7262C48.9674 18.8946 47.5021 18.3451 47.5021 17.2461C47.5021 16.1471 48.7843 15.4145 48.7843 14.1324Z" fill="#C4C4C4"/>
</svg>
