<svg width="125" height="80" viewBox="0 0 125 80" fill="none" xmlns="http://www.w3.org/2000/svg">
<path d="M130.406 50.1138C186.913 135.035 97.0451 118.156 59.8473 128.729C22.6495 139.302 24.0997 125.491 13.4912 88.1687C2.88262 50.846 19.0606 62.6702 56.2584 52.0972C83.4297 29.9042 96.6789 -20.2287 130.406 50.1138Z" fill="#4BBFE8"/>
<rect x="89.8662" y="14.6542" width="8.20641" height="6.44789" rx="3.22395" fill="#394167"/>
<rect x="42.3859" y="14.6542" width="8.20641" height="6.44789" rx="3.22395" fill="#394167"/>
<path d="M78.7808 36.0301C76.8095 41.7866 77.8507 47.3571 81.1063 48.4719C84.362 49.5868 88.5992 45.8239 90.5705 40.0674C92.5418 34.3108 96.6564 13.6846 93.4007 12.5697C90.1451 11.4549 80.7521 30.2735 78.7808 36.0301Z" fill="#394167"/>
<path d="M64.2707 35.7346C67.0634 41.6893 66.8016 47.701 63.6859 49.1622C60.5703 50.6234 55.7807 46.9807 52.988 41.026C50.1954 35.0713 43.1532 13.4856 46.2688 12.0244C49.3844 10.5632 61.478 29.7799 64.2707 35.7346Z" fill="#394167"/>
<path d="M80.3391 62.4922C80.3568 62.4922 80.3687 62.4858 80.3865 62.4692C80.1321 62.4858 80.0966 62.4922 80.3391 62.4922Z" fill="white"/>
<path d="M82.7442 62.4718C82.7561 62.4833 82.7678 62.4897 82.7797 62.4897C82.9927 62.4897 82.9631 62.4833 82.7442 62.4718Z" fill="white"/>
<path d="M71.1471 16.4883C71.4358 16.3894 79.4979 16.3889 83.5273 23.0197C85.4254 26.437 89.0245 36.7014 88.2356 50.4205C88.2358 53.0738 87.7761 59.6833 82.5758 62.9991C78.162 65.8121 74.6059 66.1779 71.8362 66.2555C68.7444 66.3415 64.8158 66.2214 59.9206 63.0993C54.72 59.7841 54.067 53.1747 54.0668 50.5213C53.2149 34.4935 56.843 25.5756 58.7635 23.1201C62.7963 16.4888 70.8584 16.3895 71.1471 16.4883Z" fill="#394167"/>
<path d="M81.5843 63.7637C81.5902 63.7637 81.5961 63.7573 81.6021 63.7522C81.4953 63.7573 81.4775 63.7637 81.5843 63.7637Z" fill="white"/>
<path d="M79.4232 23.9156C77.2834 21.5979 74.8029 23.5695 73.2259 25.1902C72.0597 26.3919 71.8173 26.5844 71.2095 26.593C70.5771 26.6016 70.232 26.392 69.0697 25.1905C67.4926 23.5656 65.0119 21.5944 62.8723 23.9166C60.7327 26.2344 57.2381 30.2971 57.8014 43.4038C58.3649 56.5109 64.0572 60.2517 67.0185 61.4702C69.7414 62.5903 72.953 63.0307 76.723 61.1923C79.0598 60.0505 83.9345 56.5047 84.4964 43.398C85.0583 30.2954 81.5671 26.2374 79.4232 23.9156Z" fill="white"/>
<path d="M81.5181 63.754C81.524 63.7592 81.5299 63.7592 81.5359 63.7592C81.6249 63.7656 81.613 63.7592 81.5181 63.754Z" fill="white"/>
<path d="M73.7641 36.4892C72.6288 34.5909 72.0996 34.1364 71.6247 34.1364C71.1498 34.1364 70.5031 34.4458 69.3363 36.4379C68.9429 37.1176 68.4998 38.1346 68.6083 38.6362C68.7123 39.1377 71.1185 40.0562 71.8014 39.9999C72.5025 39.9436 74.3206 39.0952 74.4336 38.678C74.5557 38.2233 74.1848 37.1875 73.7641 36.4892Z" fill="#FF9200"/>
<path d="M57.0404 67.6554C57.0404 64.9299 59.2499 62.7203 61.9755 62.7203H65.2391C67.9646 62.7203 70.1742 64.9299 70.1742 67.6554C70.1742 68.6226 69.3901 69.4066 68.423 69.4066H58.7916C57.8244 69.4066 57.0404 68.6226 57.0404 67.6554Z" fill="#FF9200"/>
<path d="M72.8667 67.6554C72.8667 64.9299 75.0762 62.7203 77.8018 62.7203H81.0653C83.7909 62.7203 86.0005 64.9299 86.0005 67.6554C86.0005 68.6226 85.2164 69.4066 84.2493 69.4066H74.6179C73.6507 69.4066 72.8667 68.6226 72.8667 67.6554Z" fill="#FF9200"/>
<path d="M77.584 30.4973L74.061 32.833L77.5743 34.3074" stroke="#394167" stroke-width="1.64529" stroke-linecap="round" stroke-linejoin="round"/>
<path d="M65.2748 30.4659L68.7858 32.8195L65.265 34.276" stroke="#394167" stroke-width="1.64529" stroke-linecap="round" stroke-linejoin="round"/>
<rect x="34.6471" y="0.0812988" width="6.44789" height="26.4754" rx="1.64529" transform="rotate(0.169443 34.6471 0.0812988)" fill="#EB758A"/>
<rect width="6.44789" height="26.4754" rx="1.64529" transform="matrix(-0.999996 0.00295733 0.00295733 0.999996 105.693 0)" fill="#EB758A"/>
<rect x="29.0539" y="4.42651" width="6.44789" height="18.2242" rx="1.64529" transform="rotate(0.169443 29.0539 4.42651)" fill="#EB758A"/>
<rect width="6.44789" height="18.2242" rx="1.64529" transform="matrix(-0.999996 0.00295733 0.00295733 0.999996 111.287 4.34521)" fill="#EB758A"/>
<rect x="40.6279" y="11.7234" width="59.7895" height="3.51703" fill="#EB758A"/>
</svg>
