<svg width="7" height="23" viewBox="0 0 7 23" fill="none" xmlns="http://www.w3.org/2000/svg">
<path d="M6 11.5C6 12.8808 4.88077 14 3.5 14C2.11923 14 1 12.8808 1 11.5C1 10.1192 2.11923 9 3.5 9C4.88077 9 6 10.1192 6 11.5Z" stroke="#394167"/>
<path d="M6 3.5C6 4.88077 4.88077 6 3.5 6C2.11923 6 1 4.88077 1 3.5C1 2.11923 2.11923 1 3.5 1C4.88077 1 6 2.11923 6 3.5Z" stroke="#394167"/>
<path d="M6 19.5C6 20.8808 4.88077 22 3.5 22C2.11923 22 1 20.8808 1 19.5C1 18.1192 2.11923 17 3.5 17C4.88077 17 6 18.1192 6 19.5Z" stroke="#394167"/>
</svg>
