<svg width="21" height="24" viewBox="0 0 21 24" fill="none" xmlns="http://www.w3.org/2000/svg">
<path d="M14.563 9.51378L14.563 9.51381C13.533 10.5439 12.2849 11.0609 10.8293 11.0609C9.37413 11.0609 8.12613 10.5438 7.09589 9.51393C6.06572 8.48393 5.54865 7.23598 5.54865 5.78025C5.54865 4.32489 6.06572 3.07693 7.09574 2.04691C8.12573 1.01692 9.37351 0.5 10.8293 0.5C12.2846 0.5 13.5326 1.01689 14.5628 2.04669C15.593 3.07708 16.1099 4.32506 16.1099 5.78025C16.1099 7.23601 15.593 8.48379 14.563 9.51378Z" stroke="#394167"/>
<path d="M20.4448 18.4897L20.4447 18.4893C20.4138 18.0425 20.3508 17.5505 20.2569 17.0266L20.4448 18.4897ZM20.4448 18.4897C20.476 18.9345 20.4919 19.3998 20.4921 19.8723L20.4448 18.4897ZM19.8999 15.566L19.8999 15.5659C19.7557 15.1153 19.5589 14.6684 19.3147 14.2387C19.0653 13.8001 18.7764 13.4252 18.4586 13.1212L18.4585 13.1211C18.1367 12.8132 17.7365 12.5596 17.2625 12.3717L19.8999 15.566ZM19.8999 15.566C20.0426 16.0115 20.1629 16.5029 20.2569 17.0264L19.8999 15.566ZM14.0641 13.0438L14.0636 13.0442C13.7007 13.2754 13.2315 13.4788 12.6825 13.6561C12.122 13.8375 11.549 13.9307 10.9799 13.9307C10.4107 13.9307 9.83801 13.8375 9.27711 13.6562L14.0641 13.0438ZM14.0641 13.0438C14.4326 12.8084 14.7633 12.5952 15.0464 12.4105C15.5007 12.1148 15.6283 12.0931 15.7131 12.0931C16.2804 12.0931 16.8003 12.1889 17.2622 12.3716L14.0641 13.0438ZM7.89645 13.0442L7.89611 13.044C7.531 12.8107 7.20014 12.5975 6.91279 12.4103L6.91269 12.4102C6.4592 12.1146 6.33141 12.0929 6.24658 12.0929C5.67913 12.0929 5.15933 12.1889 4.69762 12.3718L4.69754 12.3718C4.22395 12.5593 3.82357 12.8129 3.50135 13.1212L7.89645 13.0442ZM7.89645 13.0442C8.25917 13.2756 8.72852 13.479 9.277 13.6562L7.89645 13.0442ZM2.64553 14.2385L2.6455 14.2385C2.40137 14.6683 2.20459 15.1151 2.06022 15.566L2.64553 14.2385ZM2.64553 14.2385C2.89432 13.8004 3.18334 13.4257 3.50125 13.1213L2.64553 14.2385ZM1.51553 18.4898L1.51552 18.4899C1.4845 18.9371 1.46875 19.4021 1.46875 19.8725C1.46875 21.0115 1.82645 21.8866 2.49702 22.5253C3.16444 23.1604 4.05986 23.5001 5.20233 23.5001H16.7585C17.901 23.5001 18.796 23.1606 19.4636 22.5253L19.4636 22.5253C20.1342 21.8872 20.492 21.0122 20.4921 19.8725L1.51553 18.4898ZM1.51553 18.4898C1.5465 18.0418 1.60949 17.5497 1.70332 17.0266L1.51553 18.4898ZM1.70333 17.0266C1.79729 16.503 1.91768 16.0118 2.06018 15.5662L1.70333 17.0266Z" stroke="#394167"/>
</svg>
