<svg width="151" height="93" viewBox="0 0 151 93" fill="none" xmlns="http://www.w3.org/2000/svg">
<path d="M69.0094 122.305C-54.9503 49.3612 65.2108 17.409 103.509 -17.8013C141.808 -53.0115 149.043 -34.8635 186.242 5.59816C223.441 46.0598 196.086 40.8122 157.788 76.0224C139.238 119.858 155.801 190.451 69.0094 122.305Z" fill="#A3A6FB"/>
<path fill-rule="evenodd" clip-rule="evenodd" d="M115.224 65.6785L102.609 59.556L103.68 73.5834L95.3434 62.2758L89.7994 75.1962L87.6515 61.294L76.7625 70.1476L81.2952 56.8355L67.5556 59.594L77.7305 49.9218L64.288 45.9533L77.774 42.1367L67.7081 32.3502L81.4159 35.2636L77.0325 21.9013L87.8217 30.8771L90.125 17L95.524 29.9821L103.986 18.7693L102.758 32.7837L115.441 26.8039L107.867 38.6399L121.865 39.263L109.681 46.2093L121.787 53.2926L107.783 53.7578L115.224 65.6785Z" fill="white"/>
<path fill-rule="evenodd" clip-rule="evenodd" d="M93.9625 47.0764C94.1058 46.6915 94.3899 46.3875 94.6803 46.0971L95.4785 45.2989C101.271 39.506 110.663 39.506 116.456 45.2989C120.055 48.8981 126.02 56.7133 126.02 56.7133L114.914 67.8193C114.914 67.8193 106.276 64.7343 98.8719 57.3303C93.1668 51.6252 93.5063 48.3013 93.9625 47.0764Z" fill="#394167"/>
<path fill-rule="evenodd" clip-rule="evenodd" d="M112.894 43.3351C111.93 40.5358 113.418 37.4852 116.217 36.5214C117.711 36.0068 119.373 36.1771 120.474 37.3112C121.783 38.6591 123.462 40.9168 124.478 44.303C126.328 50.473 125.96 57.1605 125.96 57.1605L118.534 59.7172L112.894 43.3351Z" fill="#394167"/>
<path fill-rule="evenodd" clip-rule="evenodd" d="M112.83 43.1785C112.072 40.9769 113.242 38.5776 115.444 37.8195C116.754 37.3683 118.208 37.5968 119.11 38.6486C120.294 40.0287 121.89 42.374 122.963 45.8564C124.858 52.0111 124.922 58.5496 124.922 58.5496L118.843 60.6428L112.83 43.1785Z" fill="#394167"/>
<path fill-rule="evenodd" clip-rule="evenodd" d="M97.2722 55.7306C94.2454 52.7038 92.9856 48.2052 95.4212 44.6852C96.1814 43.5865 97.1153 42.4281 98.2549 41.2884C99.646 39.8974 101.176 38.7015 102.637 37.7091C106.314 35.2102 111.091 36.2313 114.235 39.3751C116.273 41.4141 117.66 44.1081 117.233 46.9599C116.851 49.5111 115.851 52.6913 113.371 55.1708C111.027 57.5151 108.057 58.5372 105.583 58.9643C102.468 59.5023 99.5077 57.9661 97.2722 55.7306Z" fill="#394167"/>
<path d="M113.68 67.2023L125.094 55.7878L131.34 62.0333C132.32 63.0139 132.32 64.6037 131.34 65.5843L123.476 73.4477C122.496 74.4283 120.906 74.4283 119.925 73.4477L113.68 67.2023Z" fill="#394167"/>
<path d="M114.605 58.8728C113.924 58.1913 113.924 57.0864 114.605 56.4049C115.287 55.7233 116.392 55.7233 117.073 56.4049L120.775 60.1068L118.307 62.5748L114.605 58.8728Z" fill="#394167"/>
<rect x="112.754" y="59.4898" width="6.98051" height="0.872564" rx="0.436282" transform="rotate(-45 112.754 59.4898)" fill="white"/>
<rect x="114.605" y="60.1068" width="6.98051" height="0.872564" rx="0.436282" transform="rotate(-15 114.605 60.1068)" fill="white"/>
<rect width="6.98051" height="0.872564" rx="0.436282" transform="matrix(-0.258819 0.965926 0.965926 0.258819 118.571 56.1407)" fill="white"/>
<path d="M117.69 71.2127L125.119 63.7836C125.446 63.4568 125.976 63.4568 126.302 63.7836L128.204 65.6849C128.531 66.0118 128.531 66.5417 128.204 66.8686L120.775 74.2977L117.69 71.2127Z" fill="#FF9D1C"/>
<path fill-rule="evenodd" clip-rule="evenodd" d="M89.7141 47.0764C89.5708 46.6915 89.2866 46.3875 88.9962 46.0971L88.1981 45.2989C82.4052 39.506 73.0131 39.506 67.2202 45.2989C63.6211 48.8981 57.6568 56.7133 57.6568 56.7133L68.7627 67.8193C68.7627 67.8193 77.4006 64.7343 84.8046 57.3303C90.5097 51.6252 90.1702 48.3013 89.7141 47.0764Z" fill="#394167"/>
<path fill-rule="evenodd" clip-rule="evenodd" d="M70.7828 43.3351C71.7467 40.5358 70.2588 37.4852 67.4595 36.5214C65.9652 36.0068 64.3031 36.1771 63.2023 37.3112C61.894 38.6591 60.2148 40.9168 59.1989 44.303C57.348 50.473 57.7167 57.1605 57.7167 57.1605L65.142 59.7172L70.7828 43.3351Z" fill="#394167"/>
<path fill-rule="evenodd" clip-rule="evenodd" d="M70.8467 43.1785C71.6048 40.9769 70.4346 38.5776 68.2329 37.8195C66.9226 37.3683 65.4685 37.5968 64.5662 38.6486C63.3823 40.0287 61.7862 42.374 60.7138 45.8564C58.8185 52.0111 58.7543 58.5496 58.7543 58.5496L64.8333 60.6428L70.8467 43.1785Z" fill="#394167"/>
<path fill-rule="evenodd" clip-rule="evenodd" d="M86.4042 55.7306C89.431 52.7038 90.6908 48.2052 88.2552 44.6852C87.495 43.5865 86.5611 42.4281 85.4215 41.2884C84.0304 39.8974 82.5 38.7015 81.0397 37.7091C77.3625 35.2102 72.5857 36.2313 69.4419 39.3751C67.4029 41.4141 66.0169 44.1081 66.4435 46.9599C66.8251 49.5111 67.8255 52.6913 70.3051 55.1708C72.6493 57.5151 75.6198 58.5372 78.093 58.9643C81.2084 59.5023 84.1687 57.9661 86.4042 55.7306Z" fill="#394167"/>
<path d="M69.9968 67.2023L58.5823 55.7878L52.3369 62.0333C51.3563 63.0139 51.3563 64.6037 52.3369 65.5843L60.2003 73.4477C61.1809 74.4283 62.7707 74.4283 63.7513 73.4477L69.9968 67.2023Z" fill="#394167"/>
<path d="M69.0714 58.8728C69.7529 58.1913 69.7529 57.0864 69.0714 56.4049C68.3899 55.7233 67.2849 55.7233 66.6034 56.4049L62.9014 60.1068L65.3694 62.5748L69.0714 58.8728Z" fill="#394167"/>
<rect width="6.98051" height="0.872564" rx="0.436282" transform="matrix(-0.707107 -0.707107 -0.707107 0.707107 70.9226 59.4898)" fill="white"/>
<rect width="6.98051" height="0.872564" rx="0.436282" transform="matrix(-0.965926 -0.258819 -0.258819 0.965926 69.0716 60.1068)" fill="white"/>
<rect x="65.105" y="56.1407" width="6.98051" height="0.872564" rx="0.436282" transform="rotate(75 65.105 56.1407)" fill="white"/>
<path d="M65.9868 71.2127L58.5576 63.7836C58.2308 63.4568 57.7008 63.4568 57.374 63.7836L55.4727 65.6849C55.1458 66.0118 55.1458 66.5417 55.4727 66.8686L62.9018 74.2977L65.9868 71.2127Z" fill="#FF9D1C"/>
</svg>
