<svg width="151" height="93" viewBox="0 0 151 93" fill="none" xmlns="http://www.w3.org/2000/svg">
<path d="M69.0094 122.305C-54.9503 49.3612 65.2108 17.409 103.509 -17.8013C141.808 -53.0115 149.043 -34.8635 186.242 5.59816C223.441 46.0598 196.086 40.8122 157.788 76.0224C139.238 119.858 155.801 190.451 69.0094 122.305Z" fill="#A3A6FB"/>
<path d="M105.638 81.6205C106.699 81.6201 107.716 81.1983 108.466 80.4479L124.458 64.4442C125.208 63.6938 125.629 62.6762 125.629 61.6154L125.62 38.9908C125.62 37.93 125.198 36.9127 124.448 36.1628L108.444 20.1706C107.694 19.4207 106.676 18.9996 105.615 19L82.9907 19.0081C81.9299 19.0085 80.9126 19.4303 80.1627 20.1807L64.1705 36.1845C63.4207 36.9349 62.9996 37.9524 63 39.0133L63.0081 61.6377C63.0085 62.6986 63.4303 63.7159 64.1807 64.4657L80.1844 80.458C80.9348 81.2079 81.9523 81.629 83.0132 81.6286L105.638 81.6205Z" fill="#394167" stroke="white" stroke-width="8" stroke-linejoin="round"/>
<path fill-rule="evenodd" clip-rule="evenodd" d="M93.5189 23.0042L82.9922 23.0079L67 39.0117L67.0081 61.6361L83.0118 77.6284L93.5189 77.6246V23.0042Z" fill="#394167"/>
<path fill-rule="evenodd" clip-rule="evenodd" d="M99.0352 55.8832C100.171 55.8832 101.161 55.6438 102.005 55.165C102.849 54.6863 103.499 54.0084 103.955 53.1316C104.412 52.2547 104.64 51.2245 104.64 50.041C104.64 48.8575 104.415 47.8273 103.963 46.9505C103.512 46.0736 102.865 45.3985 102.021 44.9251C101.177 44.4517 100.182 44.215 99.0352 44.215C97.8887 44.215 96.8935 44.4517 96.0495 44.9251C95.2056 45.3985 94.5554 46.0736 94.0989 46.9505C93.6425 47.8273 93.4142 48.8575 93.4142 50.041C93.4142 51.2245 93.6425 52.2547 94.0989 53.1316C94.5554 54.0084 95.2056 54.6863 96.0495 55.165C96.8935 55.6438 97.8887 55.8832 99.0352 55.8832ZM79.4298 55.4394C78.7238 55.7353 77.9038 55.8832 76.9696 55.8832C76.1204 55.8832 75.3322 55.7891 74.605 55.6008C73.8778 55.4125 73.2807 55.1516 72.8136 54.8181C72.6332 54.6782 72.5031 54.5329 72.4235 54.3823C72.3439 54.2317 72.3041 54.038 72.3041 53.8013C72.3041 53.4786 72.3996 53.1988 72.5907 52.9621C72.7818 52.7254 73.0047 52.6071 73.2595 52.6071C73.3975 52.6071 73.5302 52.6286 73.6576 52.6716C73.7849 52.7147 73.9442 52.7954 74.1353 52.9137C74.5705 53.1612 75.0031 53.3387 75.433 53.4463C75.8629 53.5539 76.3486 53.6077 76.89 53.6077C77.5163 53.6077 77.9913 53.5135 78.3151 53.3252C78.6389 53.137 78.8008 52.8599 78.8008 52.4941C78.8008 52.2466 78.6495 52.0341 78.347 51.8566C78.0444 51.6791 77.4685 51.5043 76.6193 51.3321C75.5684 51.1062 74.7456 50.8372 74.1512 50.5252C73.5567 50.2132 73.1401 49.8447 72.9012 49.4197C72.6624 48.9947 72.5429 48.481 72.5429 47.8784C72.5429 47.1899 72.7446 46.5658 73.148 46.0064C73.5514 45.4469 74.1061 45.0085 74.812 44.6911C75.5179 44.3737 76.3114 44.215 77.1925 44.215C77.9675 44.215 78.6575 44.301 79.2626 44.4732C79.8676 44.6453 80.4196 44.9143 80.9186 45.2801C81.1097 45.42 81.245 45.5679 81.3246 45.7239C81.4042 45.8799 81.444 46.0709 81.444 46.2969C81.444 46.6196 81.3512 46.8994 81.1654 47.1361C80.9796 47.3728 80.7593 47.4911 80.5046 47.4911C80.3666 47.4911 80.2392 47.4723 80.1224 47.4346C80.0056 47.397 79.8411 47.3136 79.6288 47.1845C79.5757 47.1522 79.4244 47.0688 79.175 46.9343C78.9255 46.7998 78.6336 46.6923 78.2992 46.6116C77.9648 46.5309 77.6012 46.4905 77.2085 46.4905C76.6671 46.4905 76.2318 46.5954 75.9027 46.8052C75.5737 47.015 75.4091 47.2921 75.4091 47.6364C75.4091 47.8408 75.4675 48.0076 75.5843 48.1367C75.701 48.2658 75.9187 48.3922 76.2371 48.5159C76.5556 48.6396 77.028 48.7661 77.6543 48.8952C78.6734 49.1211 79.4749 49.3928 80.0587 49.7102C80.6426 50.0276 81.0566 50.3961 81.3007 50.8157C81.5449 51.2353 81.667 51.7302 81.667 52.3004C81.667 53.0105 81.4706 53.6372 81.0778 54.1806C80.685 54.7239 80.1357 55.1435 79.4298 55.4394ZM88.7587 55.4233C88.488 55.6869 88.1297 55.8187 87.6839 55.8187C87.238 55.8187 86.8798 55.6869 86.6091 55.4233C86.3384 55.1597 86.203 54.8073 86.203 54.3662V46.7649H83.9578C83.4907 46.7649 83.1431 46.6654 82.9149 46.4663C82.6866 46.2673 82.5725 45.9633 82.5725 45.5545C82.5725 45.1456 82.6866 44.8444 82.9149 44.6507C83.1431 44.4571 83.4907 44.3602 83.9578 44.3602H91.4099C91.877 44.3602 92.2247 44.4571 92.4529 44.6507C92.6811 44.8444 92.7953 45.1456 92.7953 45.5545C92.7953 45.9633 92.6811 46.2673 92.4529 46.4663C92.2247 46.6654 91.877 46.7649 91.4099 46.7649H89.1647V54.3662C89.1647 54.8073 89.0294 55.1597 88.7587 55.4233ZM97.0447 52.7039C97.5224 53.3064 98.1859 53.6077 99.0351 53.6077C99.8843 53.6077 100.548 53.3037 101.026 52.6958C101.503 52.0879 101.742 51.203 101.742 50.041C101.742 48.879 101.501 47.9968 101.018 47.3943C100.535 46.7918 99.8737 46.4905 99.0351 46.4905C98.1859 46.4905 97.5224 46.7891 97.0447 47.3862C96.567 47.9833 96.3281 48.8683 96.3281 50.041C96.3281 51.2138 96.567 52.1014 97.0447 52.7039ZM108.412 55.8348C108.868 55.8348 109.229 55.703 109.495 55.4394C109.76 55.1758 109.893 54.8181 109.893 54.3662V51.6226H112.393C113.624 51.6226 114.587 51.2998 115.283 50.6543C115.978 50.0088 116.326 49.1211 116.326 47.9914C116.326 46.851 115.981 45.9606 115.291 45.3205C114.601 44.6803 113.635 44.3602 112.393 44.3602H108.316C107.881 44.3602 107.547 44.4786 107.313 44.7153C107.08 44.952 106.963 45.2909 106.963 45.732V54.3662C106.963 54.8181 107.093 55.1758 107.353 55.4394C107.613 55.703 107.966 55.8348 108.412 55.8348ZM109.893 49.3955H111.995C112.536 49.3955 112.937 49.2825 113.197 49.0566C113.457 48.8306 113.587 48.481 113.587 48.0076C113.587 47.0715 113.056 46.6035 111.995 46.6035H109.893V49.3955Z" fill="white"/>
<path d="M83 23L67 39V61.5L83 77.5H105.5L121.5 61.5V39L105.5 23H83Z" stroke="black"/>
</svg>
