<svg width="152" height="93" viewBox="0 0 152 93" fill="none" xmlns="http://www.w3.org/2000/svg">
<path d="M69.0094 118.688C-54.9503 45.7449 65.2108 13.7926 103.509 -21.4176C141.808 -56.6279 149.043 -38.4798 186.242 1.98183C223.441 42.4435 196.086 37.1958 157.788 72.4061C139.238 116.242 155.801 186.835 69.0094 118.688Z" fill="#A3A6FB"/>
<rect x="75.4619" y="64.8849" width="12.9974" height="9.28386" transform="rotate(-14 75.4619 64.8849)" stroke="white" stroke-width="5.62286" stroke-linejoin="round"/>
<path fill-rule="evenodd" clip-rule="evenodd" d="M62.1427 57.5103C61.8495 56.9093 62.0203 56.1849 62.5512 55.7782L97.3694 29.101C98.0747 28.5606 99.0983 28.802 99.4878 29.6007L113.194 57.7026C113.577 58.4878 113.159 59.4285 112.319 59.6699L70.3701 71.7272C69.7141 71.9157 69.0175 71.6058 68.7183 70.9924L62.1427 57.5103Z" fill="#394167"/>
<path fill-rule="evenodd" clip-rule="evenodd" d="M62.1419 57.5103L65.9791 65.3778L107.144 45.3003L99.487 29.6007C99.0975 28.802 98.074 28.5606 97.3686 29.101L62.5504 55.7782C62.0196 56.1849 61.8488 56.9093 62.1419 57.5103Z" fill="#394167"/>
<rect x="97.92" y="26.3866" width="6.80816" height="38.3733" rx="2.81143" transform="rotate(-26 97.92 26.3866)" fill="#FFFDF8"/>
<rect x="54.4344" y="57.2366" width="6.80816" height="22.2813" rx="2.81143" transform="rotate(-26 54.4344 57.2366)" fill="#FFFDF8"/>
<line x1="113.201" y1="29.9282" x2="122.489" y2="19.0008" stroke="#FF9D1C" stroke-width="3.51429" stroke-linecap="round"/>
<line x1="120.626" y1="44.9592" x2="134.966" y2="45.1704" stroke="#FF9D1C" stroke-width="3.51429" stroke-linecap="round"/>
<line x1="118.959" y1="36.6086" x2="131.813" y2="30.2488" stroke="#FF9D1C" stroke-width="3.51429" stroke-linecap="round"/>
</svg>
