<svg width="151" height="93" viewBox="0 0 151 93" fill="none" xmlns="http://www.w3.org/2000/svg">
<path d="M69.0094 122.305C-54.9503 49.3612 65.2108 17.409 103.509 -17.8013C141.808 -53.0115 149.043 -34.8635 186.242 5.59816C223.441 46.0598 196.086 40.8122 157.788 76.0224C139.238 119.858 155.801 190.451 69.0094 122.305Z" fill="#A3A6FB"/>
<path fill-rule="evenodd" clip-rule="evenodd" d="M115.619 68.3621C115.619 68.3621 112.496 37.1337 82.517 37.1337C82.517 37.1337 63.78 38.3829 55.036 49.0005L58.7834 55.2462C58.7834 55.2462 68.7765 46.5022 72.5239 55.2462C74.3976 60.8673 68.7765 59.6182 68.7765 68.3621H115.619Z" fill="#394167"/>
<rect width="53.7128" height="12.4914" rx="2.32857" transform="matrix(-1 0 0 1 119.367 66.4884)" fill="white"/>
<circle r="8.43166" transform="matrix(-1 0 0 1 55.3484 57.4322)" fill="white"/>
<path d="M117.773 50.0897C118.07 50.0897 118.288 50.0276 118.427 49.9036C118.566 49.7796 118.635 49.5829 118.635 49.3136C118.635 49.0514 118.564 48.86 118.422 48.7395C118.28 48.619 118.064 48.5588 117.773 48.5588H115.205L118.259 44.1044C118.411 43.8776 118.487 43.6438 118.487 43.4028C118.487 43.1689 118.416 42.9758 118.274 42.8234C118.131 42.671 117.941 42.5948 117.703 42.5948H113.897C113.599 42.5948 113.379 42.6569 113.237 42.7809C113.095 42.9049 113.024 43.1016 113.024 43.3709C113.024 43.626 113.095 43.8156 113.237 43.9397C113.379 44.0637 113.599 44.1257 113.897 44.1257H116.296L113.242 48.5801C113.09 48.8069 113.014 49.0372 113.014 49.2711C113.014 49.505 113.085 49.6999 113.227 49.8558C113.37 50.0117 113.563 50.0897 113.807 50.0897H117.773Z" fill="#FF9D1C"/>
<path d="M131.659 41.9703C132.121 41.9703 132.46 41.8773 132.676 41.6912C132.892 41.5052 133 41.2102 133 40.8062C133 40.4129 132.89 40.1258 132.669 39.9451C132.448 39.7644 132.111 39.674 131.659 39.674H127.664L132.414 32.9925C132.651 32.6523 132.769 32.3015 132.769 31.94C132.769 31.5892 132.658 31.2995 132.437 31.0709C132.216 30.8424 131.921 30.7281 131.551 30.7281H125.629C125.166 30.7281 124.824 30.8211 124.603 31.0072C124.382 31.1932 124.272 31.4882 124.272 31.8922C124.272 32.2749 124.382 32.5593 124.603 32.7453C124.824 32.9314 125.166 33.0244 125.629 33.0244H129.361L124.611 39.7059C124.375 40.0461 124.256 40.3916 124.256 40.7424C124.256 41.0933 124.367 41.3856 124.588 41.6195C124.809 41.8534 125.11 41.9703 125.49 41.9703H131.659Z" fill="#FF9D1C"/>
<path d="M118.785 30.7281C119.497 30.7281 120.019 30.5896 120.351 30.3127C120.684 30.0358 120.85 29.5968 120.85 28.9955C120.85 28.4101 120.68 27.9829 120.339 27.7139C119.999 27.4449 119.481 27.3104 118.785 27.3104H112.638L119.948 17.3661C120.312 16.8598 120.494 16.3376 120.494 15.7997C120.494 15.2775 120.324 14.8464 119.983 14.5062C119.643 14.166 119.188 13.9959 118.619 13.9959H109.505C108.793 13.9959 108.267 14.1344 107.927 14.4112C107.587 14.6881 107.416 15.1272 107.416 15.7285C107.416 16.2981 107.587 16.7213 107.927 16.9982C108.267 17.2751 108.793 17.4135 109.505 17.4135H115.249L107.939 27.3579C107.575 27.8642 107.393 28.3785 107.393 28.9006C107.393 29.4227 107.563 29.8578 107.903 30.2059C108.243 30.554 108.706 30.7281 109.291 30.7281H118.785Z" fill="#FF9D1C"/>
</svg>
