<svg width="151" height="93" viewBox="0 0 151 93" fill="none" xmlns="http://www.w3.org/2000/svg">
<path d="M69.0094 122.305C-54.9503 49.3612 65.2108 17.409 103.509 -17.8013C141.808 -53.0115 149.043 -34.8635 186.242 5.59816C223.441 46.0598 196.086 40.8122 157.788 76.0224C139.238 119.858 155.801 190.451 69.0094 122.305Z" fill="#A3A6FB"/>
<path d="M60.1859 70.8927C53.2854 66.2251 52.0028 58.217 53.8596 53.8421" stroke="#394167" stroke-width="3.25439" stroke-linecap="round"/>
<path d="M120.638 63.3664C127.539 58.6988 128.821 50.6907 126.964 46.3158" stroke="#394167" stroke-width="3.25439" stroke-linecap="round"/>
<path d="M49.1574 68.2973C45.8457 65.7366 45.4871 61.6727 46.5809 59.5322" stroke="#394167" stroke-width="3.25439" stroke-linecap="round"/>
<path d="M131.667 60.771C134.978 58.2103 135.337 54.1463 134.243 52.0059" stroke="#394167" stroke-width="3.25439" stroke-linecap="round"/>
<mask id="mask0" mask-type="alpha" maskUnits="userSpaceOnUse" x="53" y="34" width="69" height="39">
<path d="M53.5786 34H122V73H53.5786V34Z" fill="#C4C4C4"/>
</mask>
<g mask="url(#mask0)">
<path d="M64.7419 61.5325C64.9816 55.3958 70.1507 50.6154 76.2873 50.8551L78.2738 50.9327C84.4105 51.1724 89.1909 56.3415 88.9512 62.4782C88.8319 65.5337 86.2581 67.9139 83.2026 67.7945L70.0582 67.2811C67.0027 67.1617 64.6225 64.588 64.7419 61.5325Z" fill="#FF9D1C"/>
<path d="M129.507 8.6029C125.054 2.65867 116.625 1.45024 110.68 5.90379C104.736 10.3573 103.528 18.7864 107.981 24.7306C112.435 30.6749 132.512 47.4298 138.456 42.9763C144.4 38.5227 133.961 14.5471 129.507 8.6029Z" fill="#394167"/>
<path d="M101.009 52.3502C101.048 52.3502 101.073 52.3364 101.112 52.3006C100.563 52.3364 100.486 52.3502 101.009 52.3502Z" fill="white"/>
<path d="M106.2 52.3063C106.226 52.3311 106.251 52.3449 106.277 52.3449C106.737 52.3449 106.673 52.3311 106.2 52.3063Z" fill="white"/>
<path d="M112.023 -45.4741C112.682 -45.4718 129.122 -39.7712 132.65 -23.3998C134.104 -15.0887 134.184 8.38815 122.873 35.8066C120.997 41.2174 115.385 54.3707 102.436 57.4547C91.4458 60.0697 83.9353 58.3007 78.2324 56.5002C71.8667 54.489 63.9403 51.4658 56.1658 41.6371C47.9051 31.1989 51.2476 17.2587 53.1237 11.8479C62.7214 -21.4391 76.4267 -37.059 82.0797 -40.7081C94.9932 -51.3789 111.504 -45.8798 112.023 -45.4741Z" fill="#394167"/>
<path d="M103.698 55.0946C103.71 55.0946 103.723 55.0808 103.736 55.0698C103.506 55.0808 103.467 55.0946 103.698 55.0946Z" fill="white"/>
<path d="M123.646 -24.4754C120.921 -30.715 114.469 -28.4487 110.107 -26.2589C106.878 -24.633 106.248 -24.412 105.003 -24.8243C103.707 -25.2539 103.151 -25.9253 101.631 -29.1976C99.564 -33.6264 95.8994 -39.4006 89.8939 -36.1783C83.8916 -32.9648 73.892 -27.1515 65.7717 -0.0253301C57.6513 27.1015 66.6138 38.7557 71.7907 43.3346C76.5512 47.5445 82.789 50.7137 91.7772 49.6311C97.3499 48.9553 109.798 45.1719 120.213 18.8416C130.625 -7.48028 126.376 -18.2244 123.646 -24.4754Z" fill="white"/>
<path d="M103.554 55.074C103.567 55.0851 103.58 55.0851 103.593 55.0851C103.785 55.0989 103.759 55.0851 103.554 55.074Z" fill="white"/>
<path d="M94.3668 60.2338C92.638 53.8368 96.5318 47.2751 102.975 45.7274C109.429 44.1772 115.886 48.2705 117.238 54.7688L117.391 55.5018L115.38 57.4755C114.626 58.216 113.75 58.8213 112.791 59.2649L107.232 61.8352L99.517 62.1311L96.2186 61.3661L94.5694 60.9835L94.3668 60.2338Z" fill="#FF9D1C"/>
<path d="M117.391 55.5018C106.248 53.1952 97.5337 58.1952 94.5698 60.9836C96.5726 62.8385 102.08 63.0729 107.233 61.8351C113.122 60.4205 118.236 56.8563 117.391 55.5018Z" fill="#D57D07"/>
</g>
</svg>
