<svg width="151" height="93" viewBox="0 0 151 93" fill="none" xmlns="http://www.w3.org/2000/svg">
<path d="M69.0094 122.305C-54.9503 49.3612 65.2108 17.409 103.509 -17.8013C141.808 -53.0115 149.043 -34.8635 186.242 5.59816C223.441 46.0598 196.086 40.8122 157.788 76.0224C139.238 119.858 155.801 190.451 69.0094 122.305Z" fill="#A3A6FB"/>
<path fill-rule="evenodd" clip-rule="evenodd" d="M82.5907 28.5529C83.7266 23.0982 88.5613 19 94.3531 19C100.963 19 106.326 24.3373 106.368 30.9372C106.86 30.8208 107.374 30.7592 107.902 30.7592C111.573 30.7592 114.548 33.735 114.548 37.4058L117.105 37.4057C121.34 37.4057 124.774 40.8393 124.774 45.0748C124.774 49.3103 121.34 52.7439 117.105 52.7439H74.6693C70.4338 52.7439 67.0002 49.3103 67.0002 45.0748C67.0002 41.4746 69.481 38.4538 72.8264 37.6286C72.6942 37.0645 72.6243 36.4764 72.6243 35.8719C72.6243 31.6364 76.0578 28.2029 80.2933 28.2029C81.0937 28.2029 81.8654 28.3255 82.5907 28.5529Z" fill="#394167"/>
<path fill-rule="evenodd" clip-rule="evenodd" d="M67.2757 43.0297C67.096 43.6808 67 44.3666 67 45.0748C67 49.3103 70.4336 52.7439 74.6691 52.7439H117.105C121.34 52.7439 124.774 49.3103 124.774 45.0748C124.774 44.3666 124.678 43.6808 124.498 43.0297C123.603 46.2724 120.632 48.6537 117.105 48.6537H74.6691C71.1418 48.6537 68.1707 46.2724 67.2757 43.0297Z" fill="#394167"/>
<path d="M114.281 67.4117C113.171 69.5859 110.544 70.4665 108.412 69.3787C106.281 68.2909 105.452 65.6466 106.562 63.4724C107.672 61.2983 114.321 57.8003 114.321 57.8003C114.321 57.8003 115.391 65.2376 114.281 67.4117Z" fill="white"/>
<path d="M96.8239 78.4939C95.7143 80.6681 93.0869 81.5487 90.9554 80.4609C88.8239 79.3731 87.9954 76.7287 89.105 74.5546C90.2145 72.3804 96.8644 68.8825 96.8644 68.8825C96.8644 68.8825 97.9335 76.3198 96.8239 78.4939Z" fill="white"/>
<path d="M79.6168 67.4117C78.5072 69.5859 75.8798 70.4665 73.7483 69.3787C71.6168 68.2909 70.7883 65.6466 71.8979 63.4724C73.0074 61.2983 79.6573 57.8003 79.6573 57.8003C79.6573 57.8003 80.7264 65.2376 79.6168 67.4117Z" fill="white"/>
</svg>
