<svg width="143" height="155" viewBox="0 0 143 155" fill="none" xmlns="http://www.w3.org/2000/svg">
<path d="M42.454 122.87C-33.6724 77.742 39.7562 58.5944 63.0708 37.1598C86.3854 15.7251 90.8779 26.8689 113.789 51.7891C136.699 76.7094 119.939 73.3972 96.6244 94.8319C85.4275 121.621 95.8153 164.927 42.454 122.87Z" fill="#A3A6FB"/>
<path d="M86.2762 66.5802C81 66.5967 76.7361 70.8873 76.7526 76.1635C76.769 81.4398 81.0596 85.7037 86.3359 85.6872C91.6121 85.6707 109.675 81.337 109.659 76.0608C109.643 70.7845 91.5525 66.5637 86.2762 66.5802Z" fill="#394167"/>
<path d="M34.3137 73.4574C37.3217 69.1225 43.2743 68.047 47.6091 71.055C51.944 74.063 53.0195 80.0156 50.0115 84.3504C47.0035 88.6853 33.1837 101.098 28.8489 98.0901C24.514 95.0821 31.3057 77.7922 34.3137 73.4574Z" fill="#394167"/>
<path d="M76.4965 108.399C76.5237 108.399 76.5419 108.389 76.5691 108.363C76.1791 108.389 76.1247 108.399 76.4965 108.399Z" fill="white"/>
<path d="M80.1832 108.367C80.2014 108.385 80.2194 108.395 80.2377 108.395C80.5642 108.395 80.5188 108.385 80.1832 108.367Z" fill="white"/>
<path d="M62.305 37.8636C62.7473 37.7107 75.1085 37.6783 81.3125 47.8292C84.2362 53.0613 89.7948 68.785 88.639 89.8227C88.6496 93.8909 87.9706 104.027 80.0104 109.131C73.254 113.461 67.803 114.036 63.5568 114.166C58.8166 114.31 52.7926 114.141 45.2748 109.373C37.2881 104.311 36.2609 94.1795 36.2502 90.1114C34.8812 65.5402 40.409 51.8526 43.344 48.0802C49.5013 37.8971 61.8621 37.7131 62.305 37.8636Z" fill="#394167"/>
<path d="M78.405 110.348C78.414 110.348 78.4231 110.338 78.4323 110.33C78.2686 110.338 78.2413 110.348 78.405 110.348Z" fill="white"/>
<path d="M75.0225 49.2185C71.7325 45.6734 67.9371 48.706 65.5255 51.1971C63.7421 53.0442 63.3713 53.3403 62.4394 53.3558C61.4698 53.3716 60.9399 53.0516 59.1531 51.2138C56.7286 48.7287 52.9174 45.716 49.6459 49.2849C46.3746 52.8471 41.0323 59.0898 41.9475 79.1835C42.8627 99.2775 51.6052 104.991 56.1502 106.847C60.3295 108.554 65.2554 109.217 71.0286 106.383C74.607 104.624 82.0671 99.1679 82.8773 79.0698C83.6874 58.9782 78.3187 52.7701 75.0225 49.2185Z" fill="white"/>
<path d="M78.3044 110.333C78.3135 110.341 78.3225 110.341 78.3317 110.341C78.4681 110.351 78.4499 110.341 78.3044 110.333Z" fill="white"/>
<path d="M65.8277 68.4112C64.1846 65.6799 63.4204 65.0268 62.736 65.0286C62.0516 65.0304 61.1209 65.4786 59.4468 68.3536C58.8824 69.3345 58.2475 70.8018 58.4058 71.5241C58.5575 72.2465 62.0284 73.5612 63.0123 73.4776C64.0223 73.3939 66.6392 72.1645 66.8005 71.5629C66.9748 70.9072 66.4364 69.416 65.8277 68.4112Z" fill="#FF9200"/>
<path d="M73.5051 62.9117C73.5116 65.3934 72.0152 67.5092 70.1769 67.514C68.3386 67.5188 66.8547 65.4108 66.8482 62.9292C66.8458 62.0133 71.9624 58.427 71.9624 58.427C73.8006 58.4222 73.4986 60.4301 73.5051 62.9117Z" fill="#074B77"/>
<path d="M51.5894 62.9073C51.5829 65.389 53.0793 67.5048 54.9176 67.5096C56.7558 67.5145 58.2398 65.4064 58.2463 62.9248C58.2487 62.0089 53.1321 58.4226 53.1321 58.4226C51.2938 58.4178 51.5959 60.4257 51.5894 62.9073Z" fill="#074B77"/>
<path d="M41.6724 116.315C41.6724 112.136 45.0601 108.748 49.2391 108.748H54.2429C58.4219 108.748 61.8097 112.136 61.8097 116.315C61.8097 117.798 60.6076 119 59.1247 119H44.3573C42.8745 119 41.6724 117.798 41.6724 116.315Z" fill="#FF9200"/>
<path d="M65.0389 116.315C65.0389 112.136 68.4267 108.748 72.6057 108.748H77.6095C81.7885 108.748 85.1762 112.136 85.1762 116.315C85.1762 117.798 83.9741 119 82.4913 119H67.7239C66.241 119 65.0389 117.798 65.0389 116.315Z" fill="#FF9200"/>
<path d="M64.1696 2.24687C63.8725 2.04883 63.6141 1.82351 63.3924 1.59158C62.9071 1.08372 61.9528 1.13811 61.9783 1.84015C61.9964 2.33671 62.1037 2.92407 62.3721 3.59499C63.2708 5.84185 64.1696 5.84185 64.1696 8.53809C64.1696 11.2343 60.1252 11.2343 59.6759 16.1774C59.2265 21.1205 64.1696 21.5699 64.1696 24.7155C64.1696 27.8611 62.8215 28.3105 62.3721 29.6586C62.1566 30.3053 63.2598 30.524 63.7609 30.062C65.4985 28.46 68.2139 27.2666 68.214 24.7155C68.6633 20.2218 65.0683 18.8737 65.0683 16.1774C65.0683 13.4812 68.214 11.6837 68.214 8.53809C68.214 5.39248 65.5177 3.14561 64.1696 2.24687Z" fill="#C4C4C4"/>
<path d="M53.4932 17.7839C53.3071 17.6598 53.1451 17.5186 53.0062 17.3733C52.7021 17.055 52.1041 17.0891 52.1201 17.529C52.1314 17.8402 52.1987 18.2082 52.3669 18.6286C52.93 20.0365 53.4932 20.0365 53.4932 21.726C53.4932 23.4155 50.959 23.4155 50.6774 26.5129C50.3958 29.6102 53.4932 29.8918 53.4932 31.8629C53.4932 33.8339 52.6485 34.1155 52.3669 34.9603C52.2318 35.3654 52.9231 35.5025 53.2371 35.213C54.3259 34.2092 56.0274 33.4614 56.0274 31.8629C56.309 29.0471 54.0564 28.2023 54.0564 26.5129C54.0564 24.8234 56.0274 23.6971 56.0274 21.726C56.0274 19.7549 54.3379 18.347 53.4932 17.7839Z" fill="#C4C4C4"/>
</svg>
