<svg width="105" height="122" viewBox="0 0 105 122" fill="none" xmlns="http://www.w3.org/2000/svg">
<path d="M99.4133 69.5259C124.559 148.141 58.4727 115.115 27.2412 115.115C-3.99027 115.115 0.185939 104.684 0.185939 73.2809C0.185939 41.8775 10.1428 54.6626 41.3743 54.6626C67.3825 43.3978 88.7448 7.30094 99.4133 69.5259Z" fill="#F2EDB9"/>
<path d="M88.7719 69.8378C87.7115 74.9014 82.7471 78.1467 77.6834 77.0863C72.6198 76.0259 69.3746 71.0614 70.4349 65.9978C71.4953 60.9342 79.2332 44.4456 84.2968 45.5059C89.3604 46.5663 89.8323 64.7742 88.7719 69.8378Z" fill="#394167"/>
<path d="M37.288 91.4593C41.6458 94.2475 47.4388 92.9751 50.227 88.6173C53.0153 84.2595 51.7429 78.4665 47.3851 75.6782C43.0273 72.89 25.8369 66.8701 23.0486 71.2279C20.2604 75.5857 32.9302 88.671 37.288 91.4593Z" fill="#394167"/>
<path d="M75.0574 109.049C75.084 109.049 75.1019 109.039 75.1286 109.014C74.7462 109.039 74.6928 109.049 75.0574 109.049Z" fill="white"/>
<path d="M78.6732 109.018C78.6911 109.035 78.7087 109.045 78.7266 109.045C79.0468 109.045 79.0023 109.035 78.6732 109.018Z" fill="white"/>
<path d="M46.952 41.8241C47.2946 41.5189 58.4696 36.8259 67.914 43.672C72.5341 47.3041 83.497 59.4372 90.3882 78.9128C91.9327 82.5906 95.1423 92.0199 89.8639 99.6427C85.383 106.111 80.6666 108.688 76.8726 110.407C72.637 112.326 67.1215 114.446 58.5189 112.967C49.3807 111.399 44.6287 102.617 43.0842 98.9396C32.5748 77.2186 32.4135 62.7455 33.6465 58.2241C35.377 46.6851 46.4944 41.8551 46.952 41.8241Z" fill="#394167"/>
<path d="M76.9294 110.96C76.9382 110.96 76.9471 110.951 76.9561 110.943C76.7956 110.951 76.7689 110.96 76.9294 110.96Z" fill="white"/>
<path d="M62.7462 47.3026C58.4311 45.3354 56.1404 49.5119 54.8977 52.6764C53.9806 55.0209 53.7566 55.4287 52.9191 55.7943C52.0475 56.1744 51.4473 56.0847 49.1368 55.0957C46.0051 53.7613 41.4192 52.4727 39.8049 56.9369C38.1882 61.395 35.7086 69.0603 44.1179 86.9003C52.5274 104.74 62.5951 106.613 67.4089 106.578C71.8352 106.546 76.5432 105.287 80.6991 100.545C83.2737 97.6021 87.9669 89.85 81.1174 71.3552C74.2703 52.8662 67.0693 49.2732 62.7462 47.3026Z" fill="white"/>
<path d="M76.8304 110.946C76.8393 110.954 76.8481 110.954 76.8572 110.954C76.9909 110.963 76.973 110.954 76.8304 110.946Z" fill="white"/>
<path d="M61.9519 67.8055C59.4984 66.0006 58.5842 65.7056 57.9811 65.9589C57.3782 66.2121 56.7221 66.9496 56.3026 70.101C56.1655 71.1737 56.145 72.7012 56.5503 73.2801C56.9497 73.8615 60.4944 73.7449 61.3315 73.3094C62.1916 72.8642 64.0477 70.8177 63.9688 70.2277C63.8814 69.5853 62.8582 68.4679 61.9519 67.8055Z" fill="#FF9200"/>
<path d="M66.6241 60.5017C67.5662 62.7452 65.4852 62.3311 63.8233 63.029C62.1615 63.7269 61.5481 65.2725 60.606 63.029C59.6638 60.7855 60.2472 58.401 61.9091 57.7031C63.5709 57.0052 65.6819 58.2582 66.6241 60.5017Z" fill="#394167"/>
<path d="M53.127 66.1701C54.0692 68.4136 52.2668 67.9996 50.6049 68.6975C48.9431 69.3954 48.0511 70.941 47.1089 68.6975C46.1667 66.454 46.7502 64.0695 48.412 63.3716C50.0739 62.6737 52.1848 63.9266 53.127 66.1701Z" fill="#394167"/>
<path d="M53.1816 117.098C53.1816 113 56.5034 109.679 60.6009 109.679H65.5072C69.6048 109.679 72.9265 113 72.9265 117.098C72.9265 118.552 71.7479 119.731 70.2939 119.731H55.8143C54.3603 119.731 53.1816 118.552 53.1816 117.098Z" fill="#FF9200"/>
<rect x="72.5675" y="95.9395" width="14.3599" height="17.9499" rx="7.17996" transform="rotate(-24.7204 72.5675 95.9395)" fill="#FF9200"/>
<rect x="71.1312" y="27.207" width="9.33395" height="14.3599" rx="4.66698" fill="#ABABA8"/>
<rect x="65.9115" y="12.4883" width="19.7449" height="19.7449" rx="8.73174" fill="#F2DE29"/>
<rect x="71.1312" y="23.9761" width="9.33395" height="13.6419" rx="4.66698" fill="#F2DE29"/>
<path d="M75.6035 8.00046V1" stroke="#F2DE29" stroke-width="1.58759" stroke-linecap="round"/>
<path d="M86.9275 11.6942L91.8776 6.74414" stroke="#F2DE29" stroke-width="1.58759" stroke-linecap="round"/>
<path d="M64.1306 11.6942L59.1805 6.74414" stroke="#F2DE29" stroke-width="1.58759" stroke-linecap="round"/>
<path d="M90.876 22.54H97.8765" stroke="#F2DE29" stroke-width="1.58759" stroke-linecap="round"/>
<path d="M60.1821 22.54H53.1816" stroke="#F2DE29" stroke-width="1.58759" stroke-linecap="round"/>
<circle cx="72.9264" cy="20.386" r="3.94898" fill="#FFF171"/>
</svg>
