<svg width="140" height="127" viewBox="0 0 140 127" fill="none" xmlns="http://www.w3.org/2000/svg">
<path d="M117.684 39.81C168.678 116.447 87.5775 101.214 54.0086 110.756C20.4398 120.298 21.7486 107.834 12.175 74.1524C2.60139 40.4708 17.2011 51.1415 50.7699 41.6C75.2904 21.5721 87.247 -23.6699 117.684 39.81Z" fill="#4BBFE8"/>
<rect x="98.5721" y="26.3247" width="11.9419" height="9.38291" rx="4.69146" fill="#394167"/>
<rect x="29.479" y="26.3247" width="11.9419" height="9.38291" rx="4.69146" fill="#394167"/>
<path d="M82.4403 57.4307C79.5717 65.8077 81.0868 73.9137 85.8243 75.536C90.5619 77.1584 96.728 71.6827 99.5966 63.3058C102.465 54.9288 108.453 24.9138 103.715 23.2915C98.9775 21.6691 85.3089 49.0538 82.4403 57.4307Z" fill="#394167"/>
<path d="M61.3257 57.0005C65.3896 65.6657 65.0087 74.414 60.4748 76.5403C55.941 78.6666 48.9712 73.3657 44.9073 64.7005C40.8435 56.0352 30.5958 24.624 35.1296 22.4977C39.6634 20.3714 57.2619 48.3352 61.3257 57.0005Z" fill="#394167"/>
<path d="M84.7089 95.9383C84.7347 95.9383 84.752 95.929 84.7778 95.9048C84.4077 95.929 84.356 95.9383 84.7089 95.9383Z" fill="white"/>
<path d="M88.2086 95.9087C88.2259 95.9254 88.243 95.9347 88.2603 95.9347C88.5702 95.9347 88.5271 95.9254 88.2086 95.9087Z" fill="white"/>
<path d="M71.3318 28.9935C71.752 28.8495 83.4839 28.8488 89.3474 38.4979C92.1096 43.4707 97.347 58.4074 96.199 78.3712C96.1992 82.2322 95.5302 91.8504 87.9628 96.6755C81.5399 100.769 76.365 101.301 72.3347 101.414C67.8355 101.539 62.1187 101.365 54.9952 96.8213C47.4274 91.9971 46.477 82.3791 46.4768 78.518C45.2371 55.1945 50.5166 42.2172 53.3114 38.644C59.1799 28.9942 70.9118 28.8497 71.3318 28.9935Z" fill="#394167"/>
<path d="M86.5206 97.7882C86.5292 97.7882 86.5378 97.7789 86.5465 97.7715C86.3912 97.7789 86.3653 97.7882 86.5206 97.7882Z" fill="white"/>
<path d="M83.3756 39.8022C80.2617 36.4295 76.6522 39.2985 74.3573 41.657C72.6602 43.4058 72.3076 43.6858 71.4231 43.6983C70.5028 43.7109 70.0007 43.4059 68.3093 41.6574C66.0143 39.293 62.4044 36.4244 59.2908 39.8036C56.1774 43.1765 51.092 49.0885 51.9118 68.1613C52.7317 87.2346 61.0152 92.6782 65.3243 94.4513C69.2867 96.0813 73.9602 96.7221 79.4463 94.0469C82.8468 92.3854 89.9404 87.2256 90.758 68.1528C91.5757 49.0861 86.4954 43.1809 83.3756 39.8022Z" fill="white"/>
<path d="M86.4243 97.7744C86.4329 97.7819 86.4415 97.7819 86.4502 97.7819C86.5797 97.7912 86.5623 97.7819 86.4243 97.7744Z" fill="white"/>
<path d="M75.1403 58.0988C73.4882 55.3364 72.7181 54.675 72.027 54.675C71.336 54.6751 70.3949 55.1253 68.697 58.0242C68.1245 59.0132 67.4796 60.4932 67.6376 61.223C67.789 61.9528 71.2904 63.2894 72.2842 63.2075C73.3044 63.1257 75.95 61.891 76.1145 61.2839C76.2922 60.6222 75.7524 59.1149 75.1403 58.0988Z" fill="#FF9200"/>
<path d="M50.8046 103.452C50.8046 99.4853 54.0198 96.27 57.9861 96.27H62.7352C66.7014 96.27 69.9167 99.4853 69.9167 103.452C69.9167 104.859 68.7758 106 67.3684 106H53.3528C51.9455 106 50.8046 104.859 50.8046 103.452Z" fill="#FF9200"/>
<path d="M73.8348 103.452C73.8348 99.4853 77.0501 96.27 81.0164 96.27H85.7654C89.7317 96.27 92.947 99.4853 92.947 103.452C92.947 104.859 91.806 106 90.3987 106H76.3831C74.9757 106 73.8348 104.859 73.8348 103.452Z" fill="#FF9200"/>
<path d="M80.6989 49.3798L75.5722 52.7787L80.6847 54.9242" stroke="#394167" stroke-width="1.64529" stroke-linecap="round" stroke-linejoin="round"/>
<path d="M62.7875 49.3341L67.8967 52.7591L62.7733 54.8785" stroke="#394167" stroke-width="1.64529" stroke-linecap="round" stroke-linejoin="round"/>
<rect x="18.2174" y="4.11816" width="9.38291" height="38.5267" rx="1.64529" transform="rotate(0.169443 18.2174 4.11816)" fill="#EB758A"/>
<rect width="9.38291" height="38.5267" rx="1.64529" transform="matrix(-0.999996 0.00295733 0.00295733 0.999996 121.603 4)" fill="#EB758A"/>
<rect x="10.0784" y="10.4414" width="9.38291" height="26.5197" rx="1.64529" transform="rotate(0.169443 10.0784 10.4414)" fill="#EB758A"/>
<rect width="9.38291" height="26.5197" rx="1.64529" transform="matrix(-0.999996 0.00295733 0.00295733 0.999996 129.742 10.3232)" fill="#EB758A"/>
<rect x="26.921" y="21.0596" width="87.0052" height="5.11795" fill="#EB758A"/>
</svg>
