<svg width="137" height="115" viewBox="0 0 137 115" fill="none" xmlns="http://www.w3.org/2000/svg">
<path d="M117.932 36.2148C164.827 106.006 84.1245 92.0058 49.8107 100.623C15.497 109.24 17.5288 97.9069 9.83191 67.2571C2.13505 36.6074 16.2081 46.3385 50.5219 37.7215C76.3359 19.5512 90.9591 -21.5734 117.932 36.2148Z" fill="#B6E0DE"/>
<path d="M88.4891 94.2549C88.5193 94.2549 88.5395 94.244 88.5696 94.2158C88.1375 94.244 88.0772 94.2549 88.4891 94.2549Z" fill="white"/>
<path d="M92.5747 94.2202C92.5949 94.2397 92.6148 94.2506 92.635 94.2506C92.9968 94.2506 92.9465 94.2397 92.5747 94.2202Z" fill="white"/>
<path d="M72.7676 16.111C73.2576 15.9416 86.9522 15.9058 93.8254 27.1516C97.0645 32.9481 103.223 50.368 101.942 73.675C101.954 78.182 101.202 89.4112 92.3828 95.0661C84.8976 99.8636 78.8586 100.5 74.1543 100.644C68.9029 100.804 62.2291 100.617 53.9003 95.3347C45.052 89.726 43.914 78.5018 43.9022 73.9948C42.3855 46.7731 48.5096 31.609 51.7612 27.4297C58.5826 16.1481 72.2768 15.9443 72.7676 16.111Z" fill="#394167"/>
<path d="M90.6047 96.4146C90.6147 96.4146 90.6247 96.4037 90.635 96.395C90.4536 96.4037 90.4234 96.4146 90.6047 96.4146Z" fill="white"/>
<path d="M86.8576 28.6911C83.2128 24.7635 79.0079 28.1232 76.3362 30.8832C74.3604 32.9295 73.9496 33.2575 72.9172 33.2747C71.843 33.2921 71.2559 32.9376 69.2764 30.9016C66.5904 28.1485 62.3681 24.8108 58.7437 28.7646C55.1194 32.7111 49.2009 39.6272 50.2148 61.8884C51.2288 84.15 60.9143 90.4797 65.9496 92.5365C70.5797 94.4274 76.037 95.1614 82.4329 92.0224C86.3973 90.0727 94.6622 84.0285 95.5597 61.7625C96.4573 39.5036 90.5094 32.6257 86.8576 28.6911Z" fill="white"/>
<path d="M90.4922 96.3984C90.5022 96.4071 90.5122 96.4072 90.5224 96.4072C90.6735 96.418 90.6533 96.4071 90.4922 96.3984Z" fill="white"/>
<path d="M75.3387 49.0494C74.0737 46.9467 73.4854 46.4439 72.9585 46.4453C72.4317 46.4467 71.7151 46.7917 70.4263 49.0051C69.9918 49.7602 69.503 50.8898 69.6249 51.4459C69.7417 52.002 72.4137 53.0141 73.1712 52.9498C73.9488 52.8854 75.9634 51.9389 76.0876 51.4758C76.2217 50.971 75.8073 49.8229 75.3387 49.0494Z" fill="#FF9200"/>
<path d="M49.9086 103.026C49.9086 98.3958 53.6618 94.6426 58.2915 94.6426H63.8351C68.4649 94.6426 72.2181 98.3958 72.2181 103.026C72.2181 104.668 70.8863 106 69.2435 106H52.8832C51.2403 106 49.9086 104.668 49.9086 103.026Z" fill="#FF9200"/>
<path d="M75.797 103.026C75.797 98.3958 79.5502 94.6426 84.18 94.6426H89.7235C94.3533 94.6426 98.1065 98.3958 98.1065 103.026C98.1065 104.668 96.7747 106 95.1319 106H78.7716C77.1288 106 75.797 104.668 75.797 103.026Z" fill="#FF9200"/>
<ellipse cx="81.0147" cy="43.9366" rx="3.74322" ry="5.05334" fill="#394167"/>
<ellipse cx="64.605" cy="44.1237" rx="3.74322" ry="5.05334" fill="#394167"/>
<rect x="47.7853" y="29.7892" width="21.1751" height="23.1665" rx="6.04056" stroke="#FF9200" stroke-width="1.72587"/>
<rect x="76.661" y="29.7892" width="21.1751" height="23.1665" rx="6.04056" stroke="#FF9200" stroke-width="1.72587"/>
<path d="M68.8273 44.3592C69.9889 43.1975 73.1088 41.5712 76.295 44.3592" stroke="#FF9200" stroke-width="1.72587"/>
<path d="M70.6373 49.6303L39.1371 45.8535V84.3766L70.6373 88.1534V49.6303Z" fill="#FEEFEE"/>
<path d="M74.9818 49.6303L106.482 45.8535V84.3766L74.9818 88.1534V49.6303Z" fill="#FEEFEE"/>
<path d="M77.1547 50.3857L107.938 47.433C108.322 47.3962 108.655 47.6985 108.655 48.0847V85.2925C108.655 85.6298 108.399 85.912 108.063 85.9442L77.1547 88.9088V50.3857Z" fill="#77B3B0"/>
<path d="M81.5001 54.9179L104.311 52.6519V63.9822L81.5001 66.2482V54.9179Z" fill="#A0EBE7"/>
<path d="M68.4644 50.3857L37.6813 47.433C37.2968 47.3962 36.9642 47.6985 36.9642 48.0847V85.2925C36.9642 85.6298 37.2205 85.912 37.5563 85.9442L68.4644 88.9088V50.3857Z" fill="#77B3B0"/>
<rect x="67.3787" y="49.6304" width="10.8621" height="40.0338" rx="1.30928" fill="#50757A"/>
<path d="M114.062 73.7509C115.985 73.0308 116.233 68.9457 114.616 64.6265C112.999 60.3072 110.129 57.3895 108.206 58.1095C106.283 58.8295 101.005 64.7978 102.622 69.1171C104.239 73.4363 112.139 74.4709 114.062 73.7509Z" fill="#394167"/>
<path d="M32.4823 73.7509C30.5591 73.0308 30.3109 68.9457 31.928 64.6265C33.545 60.3072 36.415 57.3895 38.3382 58.1095C40.2614 58.8295 45.5396 64.7978 43.9225 69.1171C42.3054 73.4363 34.4055 74.4709 32.4823 73.7509Z" fill="#394167"/>
</svg>
