<svg width="23" height="23" viewBox="0 0 23 23" fill="none" xmlns="http://www.w3.org/2000/svg">
<path d="M21.7379 9.00258L19.9362 8.77354C19.7877 8.31642 19.6046 7.87558 19.3909 7.45679L20.5035 6.02408C20.954 5.44429 20.9013 4.62587 20.3866 4.12754L18.8773 2.61817C18.3741 2.09875 17.5557 2.047 16.975 2.49646L15.5442 3.60908C15.1254 3.39538 14.6845 3.21233 14.2265 3.06379L13.9974 1.265C13.9112 0.543375 13.2988 0 12.5733 0H10.4267C9.70121 0 9.08883 0.543375 9.00258 1.26213L8.77354 3.06379C8.31546 3.21233 7.87463 3.39442 7.45583 3.60908L6.02408 2.49646C5.44525 2.047 4.62683 2.09875 4.12754 2.61337L2.61817 4.12179C2.09875 4.62587 2.04604 5.44429 2.49646 6.02504L3.60908 7.45679C3.39442 7.87558 3.21233 8.31642 3.06379 8.77354L1.265 9.00258C0.543375 9.08883 0 9.70121 0 10.4267V12.5733C0 13.2988 0.543375 13.9112 1.26213 13.9974L3.06379 14.2265C3.21233 14.6836 3.39538 15.1244 3.60908 15.5432L2.49646 16.9759C2.04604 17.5557 2.09875 18.3741 2.61338 18.8725L4.12275 20.3818C4.62683 20.9003 5.44429 20.952 6.02504 20.5026L7.45679 19.39C7.87558 19.6046 8.31642 19.7877 8.77354 19.9352L9.00258 21.7331C9.08883 22.4566 9.70121 23 10.4267 23H12.5733C13.2988 23 13.9112 22.4566 13.9974 21.7379L14.2265 19.9362C14.6836 19.7877 15.1244 19.6046 15.5432 19.3909L16.9759 20.5035C17.5557 20.954 18.3741 20.9013 18.8725 20.3866L20.3818 18.8772C20.9013 18.3732 20.954 17.5557 20.5035 16.975L19.3909 15.5432C19.6056 15.1244 19.7886 14.6836 19.9362 14.2265L21.734 13.9974C22.4557 13.9112 22.999 13.2988 22.999 12.5733V10.4267C23 9.70121 22.4566 9.08883 21.7379 9.00258ZM11.5 16.2917C8.85788 16.2917 6.70833 14.1421 6.70833 11.5C6.70833 8.85787 8.85788 6.70833 11.5 6.70833C14.1421 6.70833 16.2917 8.85787 16.2917 11.5C16.2917 14.1421 14.1421 16.2917 11.5 16.2917Z" fill="white"/>
</svg>
