<svg width="24" height="24" viewBox="0 0 24 24" fill="none" xmlns="http://www.w3.org/2000/svg">
<g clip-path="url(#clip0)">
<path d="M14.9998 13.001C14.4469 13.001 13.9999 13.4491 13.9999 14.001V18.001C13.9999 18.552 13.5519 19.001 12.9998 19.001H9.99983V4.00112C9.99983 3.14712 9.45583 2.38413 8.63791 2.10014L8.34183 2.00108H12.9998C13.5519 2.00108 13.9999 2.45005 13.9999 3.00119V6.00116C13.9999 6.55304 14.4469 7.00109 14.9998 7.00109C15.5528 7.00109 15.9998 6.55304 15.9998 6.00116V3.00119C15.9998 1.34722 14.6538 0.0012207 12.9998 0.0012207H2.24998C2.21189 0.0012207 2.18003 0.0182494 2.14304 0.0231931C2.09489 0.0191649 2.04893 0.0012207 2.00004 0.0012207C0.897024 0.0012207 0 0.898062 0 2.00108V20.0009C0 20.8549 0.544001 21.6179 1.36192 21.9019L7.37999 23.908C7.58397 23.971 7.78684 24.001 7.99998 24.001C9.10299 24.001 9.99983 23.104 9.99983 22.0009V21.001H12.9998C14.6538 21.001 15.9998 19.655 15.9998 18.001V14.001C15.9998 13.4491 15.5528 13.001 14.9998 13.001Z" fill="white"/>
<path d="M23.707 9.29316L19.7069 5.29327C19.4211 5.00726 18.991 4.9212 18.6171 5.07611C18.2441 5.2312 18 5.59612 18 6.00023V9.0002H14.0001C13.4481 9.0002 13 9.44807 13 10.0001C13 10.5522 13.4481 11.0001 14.0001 11.0001H18V14C18 14.4041 18.2441 14.7691 18.6171 14.9241C18.991 15.0791 19.4211 14.993 19.7069 14.7072L23.707 10.7071C24.0979 10.3162 24.0979 9.68409 23.707 9.29316Z" fill="white"/>
</g>
<defs>
<clipPath id="clip0">
<rect width="24" height="24" fill="white"/>
</clipPath>
</defs>
</svg>
