<svg width="19" height="20" viewBox="0 0 19 20" fill="none" xmlns="http://www.w3.org/2000/svg">
<path d="M16.2175 2.92891C14.4232 1.0402 12.0375 0 9.5 0C6.96246 0 4.57681 1.0402 2.78246 2.92891C0.988186 4.8177 0 7.32891 0 10C0 12.6711 0.988186 15.1823 2.78246 17.0711C4.57681 18.9598 6.96246 20 9.5 20C12.0375 20 14.4232 18.9598 16.2175 17.0711C18.0118 15.1823 19 12.6711 19 10C19 7.32891 18.0118 4.8177 16.2175 2.92891ZM9.5 2.73438C10.6254 2.73438 11.541 3.69816 11.541 4.88281C11.541 6.06746 10.6254 7.03125 9.5 7.03125C8.37458 7.03125 7.45898 6.06746 7.45898 4.88281C7.45898 3.69816 8.37458 2.73438 9.5 2.73438ZM12.0977 16.4062H6.90234V15.2344H8.01562V9.375H6.90234V8.20312H10.9844V15.2344H12.0977V16.4062Z" fill="white"/>
</svg>
