<svg width="24" height="24" viewBox="0 0 24 24" fill="none" xmlns="http://www.w3.org/2000/svg">
<g clip-path="url(#clip0)">
<path d="M11.8295 11.5609C13.4177 11.5609 14.793 10.9912 15.9167 9.86733C17.0405 8.74362 17.6101 7.36868 17.6101 5.78025C17.6101 4.19237 17.0405 2.81725 15.9166 1.69317C14.7927 0.569639 13.4175 0 11.8295 0C10.241 0 8.86609 0.569639 7.74237 1.69335C6.61865 2.81707 6.04883 4.19218 6.04883 5.78025C6.04883 7.36868 6.61865 8.7438 7.74255 9.86751C8.86645 10.991 10.2416 11.5609 11.8295 11.5609Z" fill="white"/>
<path d="M21.9435 18.4549C21.9111 17.9872 21.8456 17.4771 21.7491 16.9384C21.6517 16.3957 21.5262 15.8826 21.3761 15.4137C21.221 14.929 21.0101 14.4504 20.7493 13.9917C20.4787 13.5156 20.1608 13.1011 19.8041 12.7599C19.4312 12.4031 18.9745 12.1161 18.4464 11.9069C17.9202 11.6987 17.337 11.5932 16.7131 11.5932C16.4681 11.5932 16.2312 11.6937 15.7736 11.9916C15.492 12.1753 15.1626 12.3877 14.7949 12.6226C14.4805 12.8229 14.0546 13.0106 13.5286 13.1805C13.0153 13.3466 12.4942 13.4308 11.9799 13.4308C11.4655 13.4308 10.9446 13.3466 10.4308 13.1805C9.90527 13.0108 9.47937 12.8231 9.16534 12.6228C8.80115 12.3901 8.47156 12.1777 8.18573 11.9915C7.7287 11.6935 7.49158 11.593 7.24658 11.593C6.62256 11.593 6.03955 11.6987 5.51349 11.907C4.98578 12.116 4.52893 12.4029 4.15558 12.7601C3.79907 13.1014 3.48102 13.5158 3.21075 13.9917C2.9502 14.4504 2.73926 14.9288 2.58398 15.4139C2.43402 15.8828 2.30859 16.3957 2.21118 16.9384C2.11469 17.4764 2.04913 17.9867 2.01672 18.4554C1.98486 18.9146 1.96875 19.3913 1.96875 19.8726C1.96875 21.1255 2.367 22.1397 3.15234 22.8877C3.92798 23.6257 4.95428 24.0002 6.20233 24.0002H17.7585C19.0065 24.0002 20.0325 23.6259 20.8083 22.8877C21.5938 22.1402 21.9921 21.1258 21.9921 19.8725C21.9919 19.3889 21.9756 18.9119 21.9435 18.4549Z" fill="white"/>
</g>
<defs>
<clipPath id="clip0">
<rect width="24" height="24" fill="white"/>
</clipPath>
</defs>
</svg>
