<svg width="15" height="23" viewBox="0 0 15 23" fill="none" xmlns="http://www.w3.org/2000/svg">
<path d="M7.00781 23C8.49639 23 9.70312 21.7933 9.70312 20.3047C9.70312 18.8161 8.49639 17.6094 7.00781 17.6094C5.51923 17.6094 4.3125 18.8161 4.3125 20.3047C4.3125 21.7933 5.51923 23 7.00781 23Z" fill="white"/>
<path d="M7.00781 0C3.14368 0 0 3.14368 0 7.00781V7.68164H5.39062V7.00781C5.39062 6.11607 6.11607 5.39062 7.00781 5.39062C7.89956 5.39062 8.625 6.11607 8.625 7.00781C8.625 7.483 8.41643 7.93275 8.0527 8.24186L4.3125 11.4217V16.2617H9.70312V13.9142L11.5438 12.3492C13.1147 11.0144 14.0156 9.06762 14.0156 7.00781C14.0156 3.14368 10.8719 0 7.00781 0V0Z" fill="white"/>
</svg>
