<svg width="79" height="77" viewBox="0 0 79 77" fill="none" xmlns="http://www.w3.org/2000/svg">
<path d="M65.4654 30.5232C62.4888 26.6244 56.915 25.8766 53.016 28.8531C49.117 31.8295 48.3692 37.403 51.3458 41.3018C54.3223 45.2007 67.6811 56.1455 71.5801 53.169C75.4791 50.1926 68.442 34.4221 65.4654 30.5232Z" fill="#394167"/>
<path d="M13.1745 30.5232C16.1511 26.6244 21.7249 25.8766 25.6239 28.8531C29.5229 31.8295 30.2707 37.403 27.2941 41.3018C24.3176 45.2007 10.9588 56.1455 7.05981 53.169C3.16078 50.1926 10.1979 34.4221 13.1745 30.5232Z" fill="#394167"/>
<path d="M52.4297 65.7361C52.455 65.7361 52.472 65.7268 52.4973 65.7029C52.1347 65.7268 52.084 65.7361 52.4297 65.7361Z" fill="white"/>
<path d="M55.8577 65.7065C55.8746 65.7231 55.8913 65.7324 55.9083 65.7324C56.2119 65.7324 56.1697 65.7231 55.8577 65.7065Z" fill="white"/>
<path d="M39.2365 0.162244C39.6476 0.0201236 51.1399 -0.00994608 56.9077 9.42684C59.6259 14.2909 64.7937 28.9086 63.7191 48.4664C63.729 52.2484 63.0978 61.6712 55.6971 66.4164C49.4157 70.4422 44.3479 70.9766 40.4002 71.0972C35.9933 71.2311 30.3928 71.0742 23.4035 66.6418C15.9782 61.9354 15.0232 52.5167 15.0133 48.7347C13.7405 25.892 18.8797 13.1673 21.6084 9.66023C27.3328 0.193383 38.8246 0.0224096 39.2365 0.162244Z" fill="#394167"/>
<path d="M54.205 67.5482C54.2134 67.5482 54.2218 67.539 54.2304 67.5316C54.0782 67.539 54.0528 67.5482 54.205 67.5482Z" fill="white"/>
<path d="M51.0601 10.7189C48.0014 7.4231 44.4729 10.2424 42.2308 12.5583C40.5728 14.2755 40.228 14.5507 39.3616 14.5651C38.4602 14.5798 37.9675 14.2823 36.3064 12.5738C34.0523 10.2636 30.509 7.46278 27.4675 10.7806C24.4261 14.0922 19.4594 19.8958 20.3103 38.576C21.1612 57.2565 29.2891 62.568 33.5146 64.2939C37.4001 65.8807 41.9797 66.4966 47.347 63.8625C50.6739 62.2265 57.6095 57.1546 58.3627 38.4703C59.1159 19.7921 54.1246 14.0206 51.0601 10.7189Z" fill="white"/>
<path d="M54.1106 67.5343C54.119 67.5417 54.1274 67.5417 54.136 67.5417C54.2628 67.551 54.2458 67.5417 54.1106 67.5343Z" fill="white"/>
<path d="M41.8019 28.279C40.5314 26.1672 39.9405 25.6623 39.4113 25.6636C38.8822 25.665 38.1625 26.0116 36.868 28.2345C36.4316 28.9929 35.9407 30.1273 36.0632 30.6858C36.1805 31.2443 38.8642 32.2608 39.6249 32.1962C40.4059 32.1315 42.4293 31.181 42.5541 30.7158C42.6888 30.2089 42.2725 29.0559 41.8019 28.279Z" fill="#FF9200"/>
<path d="M42.2625 72.4127C42.2625 68.3569 45.5503 65.0691 49.606 65.0691H50.9197C54.9754 65.0691 58.2632 68.3569 58.2632 72.4127C58.2632 74.432 56.6262 76.0691 54.6068 76.0691H45.9189C43.8995 76.0691 42.2625 74.432 42.2625 72.4127Z" fill="#FF9200"/>
<path d="M22.2612 72.4127C22.2612 68.3569 25.5491 65.0691 29.6048 65.0691H30.9184C34.9742 65.0691 38.262 68.3569 38.262 72.4127C38.262 74.432 36.625 76.0691 34.6056 76.0691H25.9177C23.8983 76.0691 22.2612 74.432 22.2612 72.4127Z" fill="#FF9200"/>
<path d="M50.2628 22.1443C50.2628 24.9472 48.5796 23.5691 46.5032 23.5691C44.4269 23.5691 42.7437 24.9472 42.7437 22.1443C42.7437 19.3413 44.4269 17.0691 46.5032 17.0691C48.5796 17.0691 50.2628 19.3413 50.2628 22.1443Z" fill="#394167"/>
<path d="M35.7809 22.1443C35.7809 24.9472 34.0977 23.5691 32.0213 23.5691C29.9449 23.5691 28.2617 24.9472 28.2617 22.1443C28.2617 19.3413 29.9449 17.0691 32.0213 17.0691C34.0977 17.0691 35.7809 19.3413 35.7809 22.1443Z" fill="#394167"/>
<path d="M39.6 36.8882C40.3913 37.2403 40.3913 38.3635 39.6 38.7156L29.8199 43.0668C29.1586 43.361 28.4134 42.8769 28.4134 42.1531L28.4134 33.4507C28.4134 32.7269 29.1586 32.2428 29.8199 32.537L39.6 36.8882Z" fill="#4BBFE8"/>
<path d="M39.0536 36.8882C38.2622 37.2403 38.2622 38.3635 39.0536 38.7156L48.8336 43.0668C49.495 43.361 50.2401 42.8769 50.2401 42.1531L50.2401 33.4507C50.2401 32.7269 49.495 32.2428 48.8336 32.537L39.0536 36.8882Z" fill="#4BBFE8"/>
</svg>
