<svg width="79" height="94" viewBox="0 0 79 94" fill="none" xmlns="http://www.w3.org/2000/svg">
<path d="M65.4622 48.4541C62.4857 44.5553 56.9122 43.8075 53.0134 46.784C49.1145 49.7604 48.3668 55.3339 51.3432 59.2328C54.3196 63.1316 67.6777 74.0764 71.5766 71.0999C75.4754 68.1235 68.4386 52.353 65.4622 48.4541Z" fill="#074B77"/>
<path d="M13.1738 48.4541C16.1503 44.5553 21.7238 43.8075 25.6226 46.784C29.5215 49.7604 30.2692 55.3339 27.2928 59.2328C24.3163 63.1316 10.9583 74.0764 7.05942 71.0999C3.16057 68.1235 10.1974 52.353 13.1738 48.4541Z" fill="#074B77"/>
<path d="M52.427 83.6666C52.4523 83.6666 52.4693 83.6575 52.4946 83.6338C52.132 83.6575 52.0814 83.6666 52.427 83.6666Z" fill="white"/>
<path d="M55.855 83.6375C55.8719 83.6538 55.8886 83.663 55.9056 83.663C56.2092 83.663 56.167 83.6538 55.855 83.6375Z" fill="white"/>
<path d="M39.2345 18.0932C39.6457 17.951 51.1374 17.921 56.9049 27.3577C59.623 32.2218 64.7905 46.8395 63.716 66.3973C63.7259 70.1793 63.0947 79.6021 55.6944 84.3473C49.4133 88.3731 44.3458 88.9075 40.3982 89.0282C35.9915 89.162 30.3913 89.0052 23.4023 84.5728C15.9774 79.8663 15.0225 70.4476 15.0126 66.6656C13.7398 43.8229 18.8788 31.0982 21.6073 27.5911C27.3315 18.1243 38.8228 17.9533 39.2345 18.0932Z" fill="#074B77"/>
<path d="M54.2021 85.4789C54.2105 85.4789 54.2189 85.4698 54.2274 85.4625C54.0753 85.4698 54.0499 85.4789 54.2021 85.4789Z" fill="white"/>
<path d="M51.0577 28.6498C47.9991 25.354 44.4707 28.1733 42.2288 30.4892C40.5708 32.2064 40.2261 32.4816 39.3597 32.496C38.4583 32.5107 37.9657 32.2132 36.3046 30.5047C34.0507 28.1945 30.5076 25.3937 27.4662 28.7115C24.425 32.0231 19.4585 37.8267 20.3093 56.5069C21.1602 75.1875 29.2877 80.4989 33.513 82.2249C37.3983 83.8116 41.9777 84.4275 47.3448 81.7934C50.6714 80.1574 57.6068 75.0855 58.3599 56.4013C59.1131 37.723 54.122 31.9515 51.0577 28.6498Z" fill="white"/>
<path d="M54.1079 85.4652C54.1163 85.4725 54.1247 85.4725 54.1333 85.4725C54.2601 85.4817 54.2431 85.4725 54.1079 85.4652Z" fill="white"/>
<path d="M41.7999 46.2099C40.5295 44.0981 39.9386 43.5932 39.4094 43.5946C38.8803 43.5959 38.1607 43.9425 36.8663 46.1654C36.4299 46.9238 35.939 48.0582 36.0614 48.6167C36.1788 49.1753 38.8623 50.1918 39.6231 50.1271C40.404 50.0625 42.4273 49.1119 42.552 48.6468C42.6868 48.1398 42.2705 46.9868 41.7999 46.2099Z" fill="#FF9200"/>
<path d="M42.2603 90.3436C42.2603 86.2878 45.5481 83 49.6038 83H50.9167C54.9724 83 58.2603 86.2878 58.2603 90.3436C58.2603 92.363 56.6232 94 54.6038 94H45.9167C43.8973 94 42.2603 92.363 42.2603 90.3436Z" fill="#FF9200"/>
<path d="M22.2603 90.3436C22.2603 86.2878 25.5481 83 29.6038 83H30.9167C34.9724 83 38.2603 86.2878 38.2603 90.3436C38.2603 92.363 36.6232 94 34.6038 94H25.9167C23.8973 94 22.2603 92.363 22.2603 90.3436Z" fill="#FF9200"/>
<path d="M50.2603 40.0752C50.2603 42.8781 48.5771 41.5 46.5009 41.5C44.4246 41.5 42.7415 42.8781 42.7415 40.0752C42.7415 37.2722 44.4246 35 46.5009 35C48.5771 35 50.2603 37.2722 50.2603 40.0752Z" fill="#074B77"/>
<path d="M35.779 40.0752C35.779 42.8781 34.0959 41.5 32.0197 41.5C29.9434 41.5 28.2603 42.8781 28.2603 40.0752C28.2603 37.2722 29.9434 35 32.0197 35C34.0959 35 35.779 37.2722 35.779 40.0752Z" fill="#074B77"/>
<path d="M29.7506 17.4761C30.5961 17.3645 31.1843 18.2946 30.7211 19.0107L21.0358 33.9832C20.6394 34.596 19.7412 34.5914 19.351 33.9745L11.3577 21.3357C10.9675 20.7188 11.3483 19.9053 12.0719 19.8098L29.7506 17.4761Z" fill="#FF629A"/>
<path d="M24.2502 20.9547C23.787 21.6708 24.3752 22.6009 25.2207 22.4893L42.8994 20.1556C43.623 20.0601 44.0038 19.2466 43.6137 18.6297L35.6203 5.99084C35.2302 5.37395 34.332 5.36935 33.9355 5.98222L24.2502 20.9547Z" fill="#FF629A"/>
</svg>
