<svg width="93" height="138" viewBox="0 0 93 138" fill="none" xmlns="http://www.w3.org/2000/svg">
<path d="M80.3112 80.1149C79.1079 85.861 73.4743 89.5436 67.7282 88.3403C61.9822 87.137 58.2996 81.5034 59.5029 75.7574C60.7062 70.0113 69.4868 51.3005 75.2329 52.5038C80.9789 53.7071 81.5145 74.3689 80.3112 80.1149Z" fill="#394167"/>
<path d="M21.8874 104.65C26.8325 107.814 33.4063 106.37 36.5703 101.425C39.7343 96.4801 38.2904 89.9063 33.3453 86.7423C28.4001 83.5783 8.89296 76.7471 5.72896 81.6922C2.56496 86.6373 16.9423 101.486 21.8874 104.65Z" fill="#394167"/>
<path d="M64.7474 124.611C64.7777 124.611 64.798 124.6 64.8283 124.572C64.3943 124.6 64.3337 124.611 64.7474 124.611Z" fill="white"/>
<path d="M68.8503 124.576C68.8706 124.595 68.8906 124.606 68.9109 124.606C69.2743 124.606 69.2237 124.595 68.8503 124.576Z" fill="white"/>
<path d="M32.8545 48.3258C33.2433 47.9795 45.9243 42.654 56.6416 50.4227C61.8844 54.5444 74.3248 68.3127 82.1447 90.4131C83.8974 94.5865 87.5395 105.287 81.5497 113.937C76.4649 121.277 71.1129 124.201 66.8076 126.152C62.0012 128.329 55.7423 130.735 45.9804 129.057C35.6106 127.277 30.2181 117.312 28.4654 113.139C16.5397 88.4906 16.3566 72.0669 17.7557 66.9361C19.7195 53.8419 32.3352 48.361 32.8545 48.3258Z" fill="#394167"/>
<path d="M66.8719 126.78C66.8819 126.78 66.892 126.769 66.9022 126.76C66.7201 126.769 66.6898 126.78 66.8719 126.78Z" fill="white"/>
<path d="M50.7773 54.5427C45.8807 52.3104 43.2812 57.0498 41.8711 60.6407C40.8303 63.3012 40.5762 63.764 39.6259 64.1789C38.6368 64.6103 37.9556 64.5085 35.3338 63.3861C31.7799 61.8719 26.576 60.4096 24.7442 65.4755C22.9096 70.5344 20.0958 79.2328 29.6384 99.4771C39.1814 119.722 50.6059 121.846 56.0685 121.807C61.0913 121.771 66.4338 120.342 71.1498 114.961C74.0713 111.621 79.3971 102.824 71.6245 81.837C63.8546 60.8562 55.683 56.7789 50.7773 54.5427Z" fill="white"/>
<path d="M66.7591 126.763C66.7691 126.772 66.7792 126.772 66.7894 126.772C66.9412 126.783 66.9209 126.772 66.7591 126.763Z" fill="white"/>
<path d="M49.876 77.8092C47.0919 75.7611 46.0545 75.4263 45.3702 75.7137C44.686 76.001 43.9414 76.8379 43.4654 80.4141C43.3098 81.6313 43.2866 83.3647 43.7465 84.0217C44.1997 84.6814 48.2222 84.549 49.1721 84.0548C50.1481 83.5497 52.2543 81.2273 52.1648 80.5578C52.0656 79.8289 50.9045 78.5609 49.876 77.8092Z" fill="#FF9200"/>
<path d="M55.1782 69.521C56.2474 72.0669 53.8859 71.597 52 72.389C50.1142 73.1809 49.4182 74.9348 48.3491 72.389C47.2799 69.8431 47.942 67.1373 49.8278 66.3453C51.7136 65.5534 54.1091 66.9752 55.1782 69.521Z" fill="#394167"/>
<path d="M39.862 75.9532C40.9312 78.499 38.8858 78.0292 37 78.8211C35.1142 79.6131 34.102 81.367 33.0328 78.8211C31.9637 76.2753 32.6257 73.5694 34.5116 72.7775C36.3974 71.9855 38.7929 73.4073 39.862 75.9532Z" fill="#394167"/>
<path d="M39.9233 133.745C39.9233 129.095 43.6927 125.326 48.3426 125.326H53.9101C58.5599 125.326 62.3293 129.095 62.3293 133.745C62.3293 135.395 60.9918 136.732 59.3418 136.732H42.9108C41.2609 136.732 39.9233 135.395 39.9233 133.745Z" fill="#FF9200"/>
<rect x="61.9219" y="109.734" width="16.2953" height="20.3691" rx="8.14763" transform="rotate(-24.7204 61.9219 109.734)" fill="#FF9200"/>
<rect x="60.2924" y="31.7388" width="10.5919" height="16.2953" rx="5.29596" fill="#ABABA8"/>
<rect x="54.3682" y="15.0362" width="22.406" height="22.406" rx="11.203" fill="#F2DE29"/>
<rect x="60.2924" y="28.0724" width="10.5919" height="15.4805" rx="5.29596" fill="#F2DE29"/>
<path d="M65.3674 9.94393V2" stroke="#F2DE29" stroke-width="2.03691" stroke-linecap="round"/>
<path d="M78.2171 14.1353L83.8344 8.51807" stroke="#F2DE29" stroke-width="2.03691" stroke-linecap="round"/>
<path d="M52.3485 14.1353L46.7313 8.51807" stroke="#F2DE29" stroke-width="2.03691" stroke-linecap="round"/>
<path d="M82.6984 26.4429H90.6423" stroke="#F2DE29" stroke-width="2.03691" stroke-linecap="round"/>
<path d="M47.8673 26.4429H39.9233" stroke="#F2DE29" stroke-width="2.03691" stroke-linecap="round"/>
<circle cx="62.3293" cy="23.9986" r="4.48119" fill="#FFF171"/>
</svg>
