<svg width="89" height="91" viewBox="0 0 89 91" fill="none" xmlns="http://www.w3.org/2000/svg">
<path d="M59.7474 78.6108C59.7777 78.6108 59.798 78.5999 59.8283 78.5716C59.3943 78.5999 59.3337 78.6108 59.7474 78.6108Z" fill="white"/>
<path d="M63.8503 78.5759C63.8706 78.5955 63.8906 78.6064 63.9109 78.6064C64.2743 78.6064 64.2237 78.5955 63.8503 78.5759Z" fill="white"/>
<path d="M43.9578 0.129142C44.45 -0.0409554 58.2038 -0.0769443 65.1067 11.2175C68.3598 17.0391 74.5446 34.5342 73.2586 57.9421C73.2704 62.4685 72.5149 73.7463 63.6579 79.4256C56.1403 84.2439 50.0752 84.8834 45.3506 85.0278C40.0764 85.188 33.3738 85.0003 25.009 79.6954C16.1225 74.0625 14.9796 62.7897 14.9677 58.2632C13.4444 30.9238 19.595 15.6942 22.8607 11.4968C29.7116 0.16641 43.465 -0.0382193 43.9578 0.129142Z" fill="#074B77"/>
<path d="M61.8719 80.7799C61.8819 80.7799 61.892 80.769 61.9022 80.7603C61.7201 80.769 61.6898 80.7799 61.8719 80.7799Z" fill="white"/>
<path d="M58.1085 12.7638C54.4479 8.81922 50.2249 12.1935 47.5416 14.9653C45.5573 17.0205 45.1447 17.3499 44.1079 17.3672C43.029 17.3847 42.4394 17.0287 40.4513 14.9839C37.7537 12.2188 33.5131 8.86671 29.8731 12.8377C26.2331 16.8012 20.289 23.7472 21.3073 46.1046C22.3257 68.4625 32.0531 74.8195 37.1101 76.8852C41.7603 78.7843 47.2411 79.5215 53.6647 76.3688C57.6463 74.4108 65.9469 68.3404 66.8483 45.9782C67.7497 23.623 61.7761 16.7154 58.1085 12.7638Z" fill="white"/>
<path d="M61.7591 80.7635C61.7691 80.7722 61.7792 80.7722 61.7894 80.7722C61.9412 80.7832 61.9209 80.7722 61.7591 80.7635Z" fill="white"/>
<path d="M46.5398 33.2099C45.2694 31.0981 44.6785 30.5932 44.1493 30.5946C43.6202 30.5959 42.9006 30.9425 41.6062 33.1654C41.1698 33.9238 40.6789 35.0582 40.8013 35.6167C40.9186 36.1753 43.6022 37.1918 44.3629 37.1271C45.1439 37.0625 47.1672 36.1119 47.2919 35.6468C47.4267 35.1398 47.0104 33.9868 46.5398 33.2099Z" fill="#FF9200"/>
<path d="M21 87.4192C21 82.7694 24.7694 79 29.4192 79H34.9867C39.6366 79 43.406 82.7694 43.406 87.4192C43.406 89.0691 42.0684 90.4067 40.4185 90.4067H23.9875C22.3375 90.4067 21 89.0691 21 87.4192Z" fill="#FF9200"/>
<path d="M47 87.4192C47 82.7694 50.7694 79 55.4192 79H60.9867C65.6366 79 69.406 82.7694 69.406 87.4192C69.406 89.0691 68.0684 90.4067 66.4185 90.4067H49.9875C48.3375 90.4067 47 89.0691 47 87.4192Z" fill="#FF9200"/>
<ellipse cx="52.2406" cy="28.0752" rx="3.7594" ry="5.07519" fill="#074B77"/>
<ellipse cx="35.7594" cy="28.2631" rx="3.7594" ry="5.07519" fill="#074B77"/>
<rect x="19" y="14" width="21" height="23" rx="7" stroke="#FF9200" stroke-width="2"/>
<rect x="48" y="14" width="21" height="23" rx="7" stroke="#FF9200" stroke-width="2"/>
<path d="M40 28.5C41.1667 27.3333 44.3 25.7 47.5 28.5" stroke="#FF9200" stroke-width="2"/>
<path d="M41.8182 33.7931L10.1818 30V68.6897L41.8182 72.4828V33.7931Z" fill="#FEEFEE"/>
<path d="M46.1818 33.7931L77.8182 30V68.6897L46.1818 72.4828V33.7931Z" fill="#FEEFEE"/>
<path d="M48.3636 34.5517L79.169 31.5969C79.6145 31.5542 80 31.9045 80 32.3521V69.5175C80 69.9084 79.703 70.2354 79.3138 70.2727L48.3636 73.2414V34.5517Z" fill="#77B3B0"/>
<path d="M52.7272 39.1035L75.6363 36.8276V48.2069L52.7272 50.4828V39.1035Z" fill="#A0EBE7"/>
<path d="M39.6364 34.5517L8.83104 31.5969C8.38549 31.5542 7.99999 31.9045 7.99999 32.3521V69.5175C7.99999 69.9084 8.29704 70.2354 8.68618 70.2727L39.6364 73.2414V34.5517Z" fill="#77B3B0"/>
<rect x="38.5455" y="33.7931" width="10.9091" height="40.2069" rx="1.51724" fill="#50757A"/>
<path d="M85.4303 58.0183C87.3618 57.2952 87.6111 53.1924 85.987 48.8545C84.3629 44.5166 81.4806 41.5862 79.549 42.3094C77.6175 43.0325 72.3166 49.0266 73.9406 53.3645C75.5647 57.7024 83.4988 58.7415 85.4303 58.0183Z" fill="#074B77"/>
<path d="M3.49732 58.0183C1.56579 57.2952 1.31655 53.1924 2.94061 48.8545C4.56467 44.5166 7.44704 41.5862 9.37857 42.3094C11.3101 43.0325 16.6111 49.0266 14.987 53.3645C13.3629 57.7024 5.42885 58.7415 3.49732 58.0183Z" fill="#074B77"/>
</svg>
