<svg width="78" height="105" viewBox="0 0 78 105" fill="none" xmlns="http://www.w3.org/2000/svg">
<path d="M57.271 58.4152C52.6418 58.4297 48.9009 62.1941 48.9153 66.8233C48.9298 71.4525 52.6942 75.1935 57.3234 75.179C61.9526 75.1646 77.8008 71.3624 77.7863 66.7332C77.7719 62.104 61.9002 58.4008 57.271 58.4152Z" fill="#074B77"/>
<path d="M11.681 64.4491C14.3202 60.6458 19.5428 59.7022 23.346 62.3413C27.1492 64.9805 28.0929 70.2031 25.4537 74.0063C22.8146 77.8095 10.6896 88.7002 6.88634 86.061C3.08311 83.4219 9.04187 68.2523 11.681 64.4491Z" fill="#074B77"/>
<path d="M48.6898 95.1053C48.7136 95.1053 48.7296 95.0967 48.7535 95.0744C48.4113 95.0967 48.3635 95.1053 48.6898 95.1053Z" fill="white"/>
<path d="M51.925 95.0777C51.941 95.0932 51.9568 95.1018 51.9728 95.1018C52.2593 95.1018 52.2195 95.0932 51.925 95.0777Z" fill="white"/>
<path d="M36.2394 33.2201C36.6274 33.086 47.4727 33.0576 52.9159 41.9636C55.481 46.5541 60.3579 60.3496 59.3439 78.8073C59.3532 82.3766 58.7575 91.2694 51.7734 95.7478C45.8456 99.5471 41.0631 100.051 37.3376 100.165C33.1787 100.292 27.8935 100.144 21.2976 95.9605C14.2903 91.5188 13.3891 82.6299 13.3798 79.0606C12.1786 57.5027 17.0285 45.4936 19.6036 42.1839C25.0058 33.2495 35.8507 33.0881 36.2394 33.2201Z" fill="#074B77"/>
<path d="M50.365 96.8157C50.373 96.8157 50.3809 96.8071 50.389 96.8002C50.2454 96.8071 50.2214 96.8157 50.365 96.8157Z" fill="white"/>
<path d="M47.3974 43.1829C44.5109 40.0725 41.1809 42.7332 39.0651 44.9189C37.5004 46.5395 37.175 46.7992 36.3574 46.8128C35.5067 46.8266 35.0418 46.5459 33.4742 44.9335C31.347 42.7532 28.0032 40.1099 25.1329 43.2412C22.2627 46.3665 17.5756 51.8437 18.3785 69.4732C19.1815 87.103 26.8519 92.1157 30.8395 93.7446C34.5063 95.2421 38.8281 95.8234 43.8933 93.3374C47.0329 91.7934 53.5782 87.0068 54.289 69.3735C54.9997 51.7458 50.2894 46.2989 47.3974 43.1829Z" fill="white"/>
<path d="M50.2761 96.8027C50.284 96.8096 50.292 96.8096 50.3001 96.8096C50.4197 96.8183 50.4037 96.8096 50.2761 96.8027Z" fill="white"/>
<path d="M39.3294 60.0218C37.8878 57.6254 37.2173 57.0524 36.6168 57.054C36.0164 57.0555 35.1998 57.4488 33.731 59.9713C33.2358 60.8318 32.6787 62.1192 32.8177 62.7529C32.9508 63.3867 35.996 64.5402 36.8592 64.4668C37.7454 64.3934 40.0413 63.3148 40.1829 62.787C40.3358 62.2117 39.8635 60.9033 39.3294 60.0218Z" fill="#FF9200"/>
<path d="M46.066 55.1968C46.0717 57.3742 44.7587 59.2305 43.1459 59.2347C41.5331 59.239 40.2311 57.3894 40.2254 55.2121C40.2233 54.4086 44.7124 51.2621 44.7124 51.2621C46.3253 51.2579 46.0603 53.0195 46.066 55.1968Z" fill="#074B77"/>
<path d="M26.8376 55.1928C26.8319 57.3701 28.1448 59.2264 29.7577 59.2307C31.3705 59.2349 32.6725 57.3854 32.6782 55.208C32.6803 54.4045 28.1911 51.258 28.1911 51.258C26.5783 51.2538 26.8433 53.0154 26.8376 55.1928Z" fill="#074B77"/>
<path d="M18.1362 102.051C18.1362 98.3845 21.1085 95.4122 24.775 95.4122H29.1652C32.8317 95.4122 35.804 98.3845 35.804 102.051C35.804 103.352 34.7493 104.407 33.4483 104.407H20.4919C19.1909 104.407 18.1362 103.352 18.1362 102.051Z" fill="#FF9200"/>
<path d="M38.6382 102.051C38.6382 98.3845 41.6105 95.4122 45.277 95.4122H49.6672C53.3337 95.4122 56.306 98.3845 56.306 102.051C56.306 103.352 55.2513 104.407 53.9503 104.407H40.9939C39.6929 104.407 38.6382 103.352 38.6382 102.051Z" fill="#FF9200"/>
<path d="M37.875 1.97133C37.6852 1.8448 37.5134 1.70558 37.3589 1.56068C36.8465 1.08006 35.9003 1.14826 35.968 1.84749C36.005 2.23048 36.1032 2.66722 36.2979 3.15412C37.0864 5.12545 37.875 5.12545 37.875 7.49104C37.875 9.85663 34.3266 9.85663 33.9323 14.1935C33.5381 18.5305 37.875 18.9247 37.875 21.6846C37.875 24.4444 36.6922 24.8387 36.2979 26.0215C36.1088 26.5888 37.0767 26.7807 37.5164 26.3754C39.0409 24.9698 41.4234 23.9228 41.4234 21.6846C41.8176 17.7419 38.6635 16.5591 38.6635 14.1935C38.6635 11.828 41.4234 10.2509 41.4234 7.49104C41.4234 4.73118 39.0578 2.75986 37.875 1.97133Z" fill="#C4C4C4"/>
<path d="M28.5079 15.6031C28.3889 15.5238 28.2813 15.4366 28.1845 15.3458C27.8634 15.0446 27.2705 15.0874 27.3129 15.5255C27.3361 15.7655 27.3976 16.0392 27.5197 16.3443C28.0138 17.5795 28.5079 17.5795 28.5079 19.0618C28.5078 20.5441 26.2844 20.5441 26.0374 23.2616C25.7903 25.9792 28.5079 26.2262 28.5079 27.9556C28.5079 29.6849 27.7667 29.932 27.5197 30.6731C27.4012 31.0286 28.0077 31.1488 28.2832 30.8948C29.2384 30.0141 30.7313 29.3581 30.7313 27.9556C30.9783 25.4851 29.002 24.7439 29.002 23.2616C29.002 21.7793 30.7313 20.7911 30.7313 19.0618C30.7313 17.3325 29.249 16.0972 28.5079 15.6031Z" fill="#C4C4C4"/>
</svg>
