<svg width="141" height="119" viewBox="0 0 141 119" fill="none" xmlns="http://www.w3.org/2000/svg">
<rect x="104" y="25" width="14" height="11" rx="5.5" fill="#394167"/>
<rect x="23" y="25" width="14" height="11" rx="5.5" fill="#394167"/>
<path d="M85.0893 61.4667C81.7263 71.2874 83.5025 80.7904 89.0565 82.6924C94.6106 84.5943 101.839 78.1749 105.202 68.3543C108.565 58.5337 115.585 23.3457 110.031 21.4438C104.477 19.5418 88.4523 51.6461 85.0893 61.4667Z" fill="#394167"/>
<path d="M60.3349 60.9627C65.0991 71.1214 64.6525 81.3774 59.3373 83.8701C54.0221 86.3629 45.8511 80.1484 41.0869 69.9898C36.3226 59.8312 24.3088 23.0063 29.624 20.5136C34.9392 18.0208 55.5706 50.8041 60.3349 60.9627Z" fill="#394167"/>
<path d="M87.7474 106.611C87.7777 106.611 87.798 106.6 87.8283 106.572C87.3943 106.6 87.3337 106.611 87.7474 106.611Z" fill="white"/>
<path d="M91.8503 106.576C91.8706 106.596 91.8906 106.606 91.9109 106.606C92.2743 106.606 92.2237 106.596 91.8503 106.576Z" fill="white"/>
<path d="M72.0664 28.129C72.5589 27.9601 86.3128 27.9593 93.1868 39.2713C96.425 45.1012 102.565 62.6121 101.219 86.0166C101.219 90.5431 100.435 101.819 91.5636 107.476C84.0338 112.275 77.967 112.899 73.242 113.031C67.9675 113.178 61.2653 112.973 52.9142 107.646C44.0421 101.991 42.928 90.7152 42.9277 86.1887C41.4743 58.8455 47.6638 43.6317 50.9402 39.4427C57.8201 28.1298 71.574 27.9603 72.0664 28.129Z" fill="#394167"/>
<path d="M89.8719 108.78C89.8819 108.78 89.892 108.769 89.9022 108.76C89.7201 108.769 89.6898 108.78 89.8719 108.78Z" fill="white"/>
<path d="M86.1847 40.7998C82.5342 36.8459 78.3026 40.2093 75.6122 42.9743C73.6227 45.0244 73.2092 45.3527 72.1723 45.3673C71.0934 45.3821 70.5047 45.0246 68.5219 42.9747C65.8313 40.2028 61.5993 36.8398 57.9491 40.8015C54.2991 44.7556 48.3372 51.6865 49.2983 74.0464C50.2596 96.4068 59.9707 102.789 65.0224 104.867C69.6677 106.778 75.1466 107.529 81.5783 104.393C85.5648 102.445 93.8809 96.3963 94.8395 74.0364C95.7981 51.6836 89.8422 44.7608 86.1847 40.7998Z" fill="white"/>
<path d="M89.7591 108.763C89.7691 108.772 89.7792 108.772 89.7894 108.772C89.9412 108.783 89.9209 108.772 89.7591 108.763Z" fill="white"/>
<path d="M76.5308 62.2501C74.594 59.0117 73.6912 58.2362 72.881 58.2363C72.0709 58.2363 70.9676 58.7641 68.9771 62.1626C68.3059 63.3221 67.5499 65.0571 67.7352 65.9127C67.9126 66.7684 72.0175 68.3352 73.1825 68.2393C74.3785 68.1433 77.4801 66.6958 77.6729 65.9841C77.8813 65.2084 77.2484 63.4414 76.5308 62.2501Z" fill="#FF9200"/>
<path d="M48 115.419C48 110.769 51.7694 107 56.4192 107H61.9867C66.6366 107 70.406 110.769 70.406 115.419C70.406 117.069 69.0684 118.407 67.4185 118.407H50.9875C49.3375 118.407 48 117.069 48 115.419Z" fill="#FF9200"/>
<path d="M75 115.419C75 110.769 78.7694 107 83.4192 107H88.9867C93.6366 107 97.406 110.769 97.406 115.419C97.406 117.069 96.0684 118.407 94.4185 118.407H77.9875C76.3375 118.407 75 117.069 75 115.419Z" fill="#FF9200"/>
<path d="M83.0475 52.028L77.0373 56.0127L83.0308 58.528" stroke="#394167" stroke-width="2" stroke-linecap="round" stroke-linejoin="round"/>
<path d="M62.0475 51.9743L68.0373 55.9897L62.0309 58.4743" stroke="#394167" stroke-width="2" stroke-linecap="round" stroke-linejoin="round"/>
<rect x="9.797" y="0.138733" width="11" height="45.1666" rx="2" transform="rotate(0.169443 9.797 0.138733)" fill="#4BBFE8"/>
<rect width="11" height="45.1666" rx="2" transform="matrix(-0.999996 0.00295733 0.00295733 0.999996 131 0)" fill="#4BBFE8"/>
<rect x="0.255005" y="7.55164" width="11" height="31.0902" rx="2" transform="rotate(0.169443 0.255005 7.55164)" fill="#4BBFE8"/>
<rect width="11" height="31.0902" rx="2" transform="matrix(-0.999996 0.00295733 0.00295733 0.999996 140.542 7.41284)" fill="#4BBFE8"/>
<rect x="19.9999" y="20" width="102" height="6" fill="#4BBFE8"/>
</svg>
