<svg width="31" height="23" viewBox="0 0 31 23" fill="none" xmlns="http://www.w3.org/2000/svg">
<path d="M4.67806 0.660742H4.67805C4.48746 0.660742 4.31401 0.73014 4.18477 0.851476L4.67806 0.660742ZM4.67806 0.660742H4.67806M4.67806 0.660742H4.67806M4.67806 0.660742H4.67807M4.67806 0.660742H4.67807M4.67807 0.660742H4.67807M4.67807 0.660742H4.67807M4.67807 0.660742H4.67808M4.67807 0.660742H4.67808M4.67808 0.660742H4.67808M4.67808 0.660742H4.67808M4.67808 0.660742H4.67809M4.67808 0.660742H4.67809M4.67809 0.660742H4.67809M4.67809 0.660742H4.67809M4.67809 0.660742H4.6781M4.67809 0.660742H4.6781M4.6781 0.660742H4.6781M4.6781 0.660742H4.6781M4.6781 0.660742H4.67811M4.6781 0.660742H4.67811M4.67811 0.660742H4.67811M4.67811 0.660742H4.67811M4.67811 0.660742H4.67812M4.67811 0.660742H4.67812M4.67812 0.660742H4.67812M4.67812 0.660742H4.67812M4.67812 0.660742H4.67813M4.67812 0.660742H4.67813M4.67813 0.660742H4.67813M4.67813 0.660742H4.67813M4.67813 0.660742H4.67813M4.67813 0.660742H4.67813M4.67813 0.660742H4.67814M4.67813 0.660742H4.67814M4.67814 0.660742H4.67814M4.67814 0.660742H4.67814M4.67814 0.660742H4.67815M4.67814 0.660742H4.67815M4.67815 0.660742H4.67815M4.67815 0.660742H4.67815M4.67815 0.660742H4.67816M4.67815 0.660742H4.67816M4.67816 0.660742H4.67816M4.67816 0.660742H4.67816M4.67816 0.660742H4.67817M4.67816 0.660742H4.67817M4.67817 0.660742H4.67817M4.67817 0.660742H4.67817M4.67817 0.660742H4.67818M4.67817 0.660742H4.67818M4.67818 0.660742H4.67818M4.67818 0.660742H4.67818M4.67818 0.660742H4.67819M4.67818 0.660742H4.67819M4.67819 0.660742H4.67819M4.67819 0.660742H4.67819M4.67819 0.660742H4.6782M4.67819 0.660742H4.6782M4.6782 0.660742H4.6782M4.6782 0.660742H4.6782M4.6782 0.660742H4.67821M4.6782 0.660742H4.67821M4.67821 0.660742H4.67821M4.67821 0.660742H4.67821M4.67821 0.660742H4.67822M4.67821 0.660742H4.67822M4.67822 0.660742H4.67822M4.67822 0.660742H4.67822M4.67822 0.660742H4.67823M4.67822 0.660742H4.67823M4.67823 0.660742H4.67823M4.67823 0.660742H4.67823M4.67823 0.660742H4.67824M4.67823 0.660742H4.67824M4.67824 0.660742H4.67824M4.67824 0.660742H4.67824M4.67824 0.660742H4.67825M4.67824 0.660742H4.67825M4.67825 0.660742H4.67825M4.67825 0.660742H4.67825M4.67825 0.660742H4.67826M4.67825 0.660742H4.67826M4.67826 0.660742H4.67826M4.67826 0.660742H4.67826M4.67826 0.660742H4.67827M4.67826 0.660742H4.67827M4.67827 0.660742H4.67827M4.67827 0.660742H4.67827M4.67827 0.660742H4.67828M4.67827 0.660742H4.67828M4.67828 0.660742H4.67828M4.67828 0.660742H4.67828M4.67828 0.660742H4.67829M4.67828 0.660742H4.67829M4.67829 0.660742H4.67829M4.67829 0.660742H4.67829M4.67829 0.660742H4.6783M4.67829 0.660742H4.6783M4.6783 0.660742H4.6783M4.6783 0.660742H4.6783M4.6783 0.660742H4.67831M4.6783 0.660742H4.67831M4.67831 0.660742H4.67831M4.67831 0.660742H4.67831M4.67831 0.660742H4.67832M4.67831 0.660742H4.67832M4.67832 0.660742H4.67832M4.67832 0.660742H4.67832M4.67832 0.660742H4.67833M4.67832 0.660742H4.67833M4.67833 0.660742H4.67833M4.67833 0.660742H4.67833M4.67833 0.660742H4.67834M4.67833 0.660742H4.67834M4.67834 0.660742H4.67834M4.67834 0.660742H4.67834M4.67834 0.660742H4.67835M4.67834 0.660742H4.67835M4.67835 0.660742H4.67835M4.67835 0.660742H4.67835M4.67835 0.660742H4.67836M4.67835 0.660742H4.67836M4.67836 0.660742H4.67836M4.67836 0.660742H4.67836M4.67836 0.660742H4.67837M4.67836 0.660742H4.67837M4.67837 0.660742H4.67837M4.67837 0.660742H4.67837M4.67837 0.660742H4.67838M4.67837 0.660742H4.67838M4.67838 0.660742H4.67838M4.67838 0.660742H4.67838M4.67838 0.660742H4.67839M4.67838 0.660742H4.67839M4.67839 0.660742H4.67839M4.67839 0.660742H4.67839M4.67839 0.660742H4.6784M4.67839 0.660742H4.6784M4.6784 0.660742H4.6784M4.6784 0.660742H4.6784M4.6784 0.660742H4.67841M4.6784 0.660742H4.67841M4.67841 0.660742H4.67841M4.67841 0.660742H4.67841M4.67841 0.660742H4.67842M4.67841 0.660742H4.67842M4.67842 0.660742H4.67842M4.67842 0.660742H4.67842M4.67842 0.660742H4.67843M4.67842 0.660742H4.67843M4.67843 0.660742H4.67843M4.67843 0.660742H4.67843M4.67843 0.660742H4.67844M4.67843 0.660742H4.67844M4.67844 0.660742H4.67844M4.67844 0.660742H4.67844M4.67844 0.660742H4.67845M4.67844 0.660742H4.67845M4.67845 0.660742H4.67845M4.67845 0.660742H4.67845M4.67845 0.660742H4.67846M4.67845 0.660742H4.67846M4.67846 0.660742H4.67846M4.67846 0.660742H4.67846M4.67846 0.660742H4.67847M4.67846 0.660742H4.67847M4.67847 0.660742H4.67847M4.67847 0.660742H4.67847M4.67847 0.660742H4.67848M4.67847 0.660742H4.67848M4.67848 0.660742H4.67848M4.67848 0.660742H4.67848M4.67848 0.660742H4.67849M4.67848 0.660742H4.67849M4.67849 0.660742H4.67849M4.67849 0.660742H4.67849M4.67849 0.660742H4.6785M4.67849 0.660742H4.6785M4.6785 0.660742H4.6785M4.6785 0.660742H4.6785M4.6785 0.660742H4.67851M4.6785 0.660742H4.67851M4.67851 0.660742H4.67851M4.67851 0.660742H4.67851M4.67851 0.660742H4.67852M4.67851 0.660742H4.67852M4.67852 0.660742H4.67852M4.67852 0.660742H4.67852M4.67852 0.660742H4.67853M4.67852 0.660742H4.67853M4.67853 0.660742H4.67853M4.67853 0.660742H4.67853M4.67853 0.660742H4.67854M4.67853 0.660742H4.67854M4.67854 0.660742H4.67854M4.67854 0.660742H4.67854M4.67854 0.660742H4.67855M4.67854 0.660742H4.67855M4.67855 0.660742H4.67855M4.67855 0.660742H4.67855M4.67855 0.660742H4.67856M4.67855 0.660742H4.67856M4.67856 0.660742H4.67856M4.67856 0.660742H4.67856M4.67856 0.660742H4.67857M4.67856 0.660742H4.67857M4.67857 0.660742H4.67857M4.67857 0.660742H4.67857M4.67857 0.660742H4.67858M4.67857 0.660742H4.67858M4.67858 0.660742H4.67858M4.67858 0.660742H4.67858M4.67858 0.660742H4.67859M4.67858 0.660742H4.67859M4.67859 0.660742H4.67859M4.67859 0.660742H4.67859M4.67859 0.660742H4.6786M4.67859 0.660742H4.6786M4.6786 0.660742H4.6786M4.6786 0.660742H4.6786M4.6786 0.660742H4.67861M4.6786 0.660742H4.67861M4.67861 0.660742H4.67861M4.67861 0.660742H4.67861M4.67861 0.660742H4.67862M4.67861 0.660742H4.67862M4.67862 0.660742H4.67862M4.67862 0.660742H4.67862M4.67862 0.660742H4.67863M4.67862 0.660742H4.67863M4.67863 0.660742H4.67863M4.67863 0.660742H4.67863M4.67863 0.660742H4.67864M4.67863 0.660742H4.67864M4.67864 0.660742H4.67864M4.67864 0.660742H4.67864M4.67864 0.660742H4.67865M4.67864 0.660742H4.67865M4.67865 0.660742H4.67865M4.67865 0.660742H4.67865M4.67865 0.660742H4.67866M4.67865 0.660742H4.67866M4.67866 0.660742H4.67866M4.67866 0.660742H4.67866M4.67866 0.660742H4.67867M4.67866 0.660742H4.67867M4.67867 0.660742H4.67867M4.67867 0.660742H4.67867M4.67867 0.660742H4.67868M4.67867 0.660742H4.67868M4.67868 0.660742H4.67868M4.67868 0.660742H4.67868M4.67868 0.660742H4.67869M4.67868 0.660742H4.67869M4.67869 0.660742H4.67869M4.67869 0.660742H4.67869M4.67869 0.660742H4.6787M4.67869 0.660742H4.6787M4.6787 0.660742H4.6787M4.6787 0.660742H4.6787M4.6787 0.660742H4.67871M4.6787 0.660742H4.67871M4.67871 0.660742H4.67871M4.67871 0.660742H4.67871M4.67871 0.660742H4.67872M4.67871 0.660742H4.67872M4.67872 0.660742H4.67872M4.67872 0.660742H4.67872M4.67872 0.660742H4.67873M4.67872 0.660742H4.67873M4.67873 0.660742H4.67873M4.67873 0.660742H4.67873M4.67873 0.660742H4.67874M4.67873 0.660742H4.67874M4.67874 0.660742H4.67874M4.67874 0.660742H4.67874M4.67874 0.660742H4.67875M4.67874 0.660742H4.67875M4.67875 0.660742H4.67875M4.67875 0.660742H4.67875M4.67875 0.660742H4.67876M4.67875 0.660742H4.67876M4.67876 0.660742H4.67876M4.67876 0.660742H4.67876M4.67876 0.660742H4.67877M4.67876 0.660742H4.67877M4.67877 0.660742H4.67877M4.67877 0.660742H4.67877M4.67877 0.660742H4.67878M4.67877 0.660742H4.67878M4.67878 0.660742H4.67878M4.67878 0.660742H4.67878M4.67878 0.660742H4.67879M4.67878 0.660742H4.67879M4.67879 0.660742H4.67879M4.67879 0.660742H4.67879M4.67879 0.660742H4.6788M4.67879 0.660742H4.6788M4.6788 0.660742H4.6788M4.6788 0.660742H4.6788M4.6788 0.660742H4.67881M4.6788 0.660742H4.67881M4.67881 0.660742H4.67881M4.67881 0.660742H4.67881M4.67881 0.660742H4.67882M4.67881 0.660742H4.67882M4.67882 0.660742H4.67882M4.67882 0.660742H4.67882M4.67882 0.660742H4.67883M4.67882 0.660742H4.67883M4.67883 0.660742H4.67883M4.67883 0.660742H4.67883M4.67883 0.660742H4.67884M4.67883 0.660742H4.67884M4.67884 0.660742H4.67884M4.67884 0.660742H4.67884M4.67884 0.660742H4.67885M4.67884 0.660742H4.67885M4.67885 0.660742H4.67885M4.67885 0.660742H4.67885M4.67885 0.660742H4.67886M4.67885 0.660742H4.67886M4.67886 0.660742H4.67886M4.67886 0.660742H4.67886M4.67886 0.660742H4.67887M4.67886 0.660742H4.67887M4.67887 0.660742H4.67887M4.67887 0.660742H4.67887M4.67887 0.660742H4.67888M4.67887 0.660742H4.67888M4.67888 0.660742H4.67888M4.67888 0.660742H4.67888M4.67888 0.660742H4.67889M4.67888 0.660742H4.67889M4.67889 0.660742H4.67889M4.67889 0.660742H4.67889M4.67889 0.660742H4.6789M4.67889 0.660742H4.6789M4.6789 0.660742H4.6789M4.6789 0.660742H4.6789M4.6789 0.660742H4.67891M4.6789 0.660742H4.67891M4.67891 0.660742H4.67892M4.67891 0.660742H4.67892M4.67892 0.660742H4.67892M4.67892 0.660742H4.67892M4.67892 0.660742H4.67893M4.67892 0.660742H4.67893M4.67893 0.660742H4.67893M4.67893 0.660742H4.67893M4.67893 0.660742H4.67894M4.67893 0.660742H4.67894M4.67894 0.660742H4.67894M4.67894 0.660742H4.67894M4.67894 0.660742H4.67895M4.67894 0.660742H4.67895M4.67895 0.660742H4.67895M4.67895 0.660742H4.67895M4.67895 0.660742H4.67896M4.67895 0.660742H4.67896M4.67896 0.660742H4.67896M4.67896 0.660742H4.67896M4.67896 0.660742H4.67897M4.67896 0.660742H4.67897M4.67897 0.660742H4.67897M4.67897 0.660742H4.67897M4.67897 0.660742H4.67898M4.67897 0.660742H4.67898M4.67898 0.660742H4.67898M4.67898 0.660742H4.67898M4.67898 0.660742H4.67899M4.67898 0.660742H4.67899M4.67899 0.660742H4.67899M4.67899 0.660742H4.67899M4.67899 0.660742H4.679M4.67899 0.660742H4.679M4.679 0.660742H4.679M4.679 0.660742H4.679M4.679 0.660742H4.67901M4.679 0.660742H4.67901M4.67901 0.660742H4.67901M4.67901 0.660742H4.67901M4.67901 0.660742H4.67902M4.67901 0.660742H4.67902M4.67902 0.660742H4.67902M4.67902 0.660742H4.67902M4.67902 0.660742H4.67903M4.67902 0.660742H4.67903M4.67903 0.660742H4.67903M4.67903 0.660742H4.67903M4.67903 0.660742H4.67904M4.67903 0.660742H4.67904M4.67904 0.660742H4.67904M4.67904 0.660742H4.67904M4.67904 0.660742H4.67905M4.67904 0.660742H4.67905M4.67905 0.660742H4.67905M4.67905 0.660742H4.67905M4.67905 0.660742H4.67906M4.67905 0.660742H4.67906M4.67906 0.660742H4.67906M4.67906 0.660742H4.67906M4.67906 0.660742H4.67907M4.67906 0.660742H4.67907M4.67907 0.660742H4.67907M4.67907 0.660742H4.67907M4.67907 0.660742H4.67908M4.67907 0.660742H4.67908M4.67908 0.660742H4.67908M4.67908 0.660742H4.67908M4.67908 0.660742H4.67909M4.67908 0.660742H4.67909M4.67909 0.660742H4.67909M4.67909 0.660742H4.67909M4.67909 0.660742H4.6791M4.67909 0.660742H4.6791M4.6791 0.660742H4.6791M4.6791 0.660742H4.6791M4.6791 0.660742H4.67911M4.6791 0.660742H4.67911M4.67911 0.660742H4.67911M4.67911 0.660742H4.67911M4.67911 0.660742H4.67912M4.67911 0.660742H4.67912M4.67912 0.660742H4.67912M4.67912 0.660742H4.67912M4.67912 0.660742H4.67913M4.67912 0.660742H4.67913M4.67913 0.660742H4.67913M4.67913 0.660742H4.67913M4.67913 0.660742H4.67914M4.67913 0.660742H4.67914M4.67914 0.660742H4.67914M4.67914 0.660742H4.67914M4.67914 0.660742H4.67915M4.67914 0.660742H4.67915M4.67915 0.660742H4.67916M4.67915 0.660742H4.67916M4.67916 0.660742H4.67916M4.67916 0.660742H4.67916M4.67916 0.660742H4.67917M4.67916 0.660742H4.67917M4.67917 0.660742H4.67917M4.67917 0.660742H4.67917M4.67917 0.660742H4.67918M4.67917 0.660742H4.67918M4.67918 0.660742H4.67918M4.67918 0.660742H4.67918M4.67918 0.660742H4.67919M4.67918 0.660742H4.67919M4.67919 0.660742H4.67919M4.67919 0.660742H4.67919M4.67919 0.660742H4.6792M4.67919 0.660742H4.6792M4.6792 0.660742H4.6792M4.6792 0.660742H4.6792M4.6792 0.660742H4.67921M4.6792 0.660742H4.67921M4.67921 0.660742H4.67921M4.67921 0.660742H4.67921M4.67921 0.660742H4.67922M4.67921 0.660742H4.67922M4.67922 0.660742H4.67922M4.67922 0.660742H4.67922M4.67922 0.660742H4.67923M4.67922 0.660742H4.67923M4.67923 0.660742H4.67923M4.67923 0.660742H4.67923M4.67923 0.660742H4.67924M4.67923 0.660742H4.67924M4.67924 0.660742H4.67924M4.67924 0.660742H4.67924M4.67924 0.660742H4.67925M4.67924 0.660742H4.67925M4.67925 0.660742H4.67925M4.67925 0.660742H4.67925M4.67925 0.660742H4.67926M4.67925 0.660742H4.67926M4.67926 0.660742H4.67926M4.67926 0.660742H4.67926M4.67926 0.660742H4.67927M4.67926 0.660742H4.67927M4.67927 0.660742H4.67927M4.67927 0.660742H4.67927M4.67927 0.660742H4.67928M4.67927 0.660742H4.67928M4.67928 0.660742H4.67928M4.67928 0.660742H4.67928M4.67928 0.660742H4.67929M4.67928 0.660742H4.67929M4.67929 0.660742H4.67929M4.67929 0.660742H4.67929M4.67929 0.660742H4.6793M4.67929 0.660742H4.6793M4.6793 0.660742H4.6793M4.6793 0.660742H4.6793M4.6793 0.660742H4.67931M4.6793 0.660742H4.67931M4.67931 0.660742H4.67931M4.67931 0.660742H4.67931M4.67931 0.660742H4.67932M4.67931 0.660742H4.67932M4.67932 0.660742H4.67932M4.67932 0.660742H4.67932M4.67932 0.660742H4.67933M4.67932 0.660742H4.67933M4.67933 0.660742H4.67933M4.67933 0.660742H4.67933M4.67933 0.660742H4.67934M4.67933 0.660742H4.67934M4.67934 0.660742H4.67935M4.67934 0.660742H4.67935M4.67935 0.660742H4.67935M4.67935 0.660742H4.67935M4.67935 0.660742H4.67936M4.67935 0.660742H4.67936M4.67936 0.660742H4.67936M4.67936 0.660742H4.67936M4.67936 0.660742H4.67937M4.67936 0.660742H4.67937M4.67937 0.660742H4.67937M4.67937 0.660742H4.67937M4.67937 0.660742H4.67938M4.67937 0.660742H4.67938M4.67938 0.660742H4.67938M4.67938 0.660742H4.67938M4.67938 0.660742H4.67939M4.67938 0.660742H4.67939M4.67939 0.660742H4.67939M4.67939 0.660742H4.67939M4.67939 0.660742H4.6794M4.67939 0.660742H4.6794M4.6794 0.660742H4.6794M4.6794 0.660742H4.6794M4.6794 0.660742H4.67941M4.6794 0.660742H4.67941M4.67941 0.660742H4.67941M4.67941 0.660742H4.67941M4.67941 0.660742H4.67942M4.67941 0.660742H4.67942M4.67942 0.660742H4.67942M4.67942 0.660742H4.67942M4.67942 0.660742H4.67943M4.67942 0.660742H4.67943M4.67943 0.660742H4.67943M4.67943 0.660742H4.67943M4.67943 0.660742H4.67944M4.67943 0.660742H4.67944M4.67944 0.660742H4.67944M4.67944 0.660742H4.67944M4.67944 0.660742H4.67945M4.67944 0.660742H4.67945M4.67945 0.660742H4.67945M4.67945 0.660742H4.67945M4.67945 0.660742H4.67946M4.67945 0.660742H4.67946M4.67946 0.660742H4.67946M4.67946 0.660742H4.67946M4.67946 0.660742H4.67947M4.67946 0.660742H4.67947M4.67947 0.660742H4.67947M4.67947 0.660742H4.67947M4.67947 0.660742H4.67948M4.67947 0.660742H4.67948M4.67948 0.660742H4.67948M4.67948 0.660742H4.67948M4.67948 0.660742H4.67949M4.67948 0.660742H4.67949M4.67949 0.660742H4.67949M4.67949 0.660742H4.67949M4.67949 0.660742H4.6795M4.67949 0.660742H4.6795M4.6795 0.660742H4.6795M4.6795 0.660742H4.6795M4.6795 0.660742H4.67951M4.6795 0.660742H4.67951M4.67951 0.660742H4.67951M4.67951 0.660742H4.67951M4.67951 0.660742H4.67952M4.67951 0.660742H4.67952M4.67952 0.660742H4.67952M4.67952 0.660742H4.67952M4.67952 0.660742H4.67953M4.67952 0.660742H4.67953M4.67953 0.660742H4.67953M4.67953 0.660742H4.67953M4.67953 0.660742H4.67954M4.67953 0.660742H4.67954M4.67954 0.660742H4.67955M4.67954 0.660742H4.67955M4.67955 0.660742H4.67955M4.67955 0.660742H4.67955M4.67955 0.660742H4.67956M4.67955 0.660742H4.67956M4.67956 0.660742H4.67956M4.67956 0.660742H4.67956M4.67956 0.660742H4.67957M4.67956 0.660742H4.67957M4.67957 0.660742H4.67957M4.67957 0.660742H4.67957M4.67957 0.660742H4.67958M4.67957 0.660742H4.67958M4.67958 0.660742H4.67958M4.67958 0.660742H4.67958M4.67958 0.660742H4.67959M4.67958 0.660742H4.67959M4.67959 0.660742H4.67959M4.67959 0.660742H4.67959M4.67959 0.660742H4.6796M4.67959 0.660742H4.6796M4.6796 0.660742H4.6796M4.6796 0.660742H4.6796M4.6796 0.660742H4.67961M4.6796 0.660742H4.67961M4.67961 0.660742H4.67961M4.67961 0.660742H4.67961M4.67961 0.660742H4.67962M4.67961 0.660742H4.67962M4.67962 0.660742H4.67962M4.67962 0.660742H4.67962M4.67962 0.660742H4.67963M4.67962 0.660742H4.67963M4.67963 0.660742H4.67963M4.67963 0.660742H4.67963M4.67963 0.660742H4.67964M4.67963 0.660742H4.67964M4.67964 0.660742H4.67964M4.67964 0.660742H4.67964M4.67964 0.660742H4.67965M4.67964 0.660742H4.67965M4.67965 0.660742H4.67965M4.67965 0.660742H4.67965M4.67965 0.660742H4.67966M4.67965 0.660742H4.67966M4.67966 0.660742H4.67966M4.67966 0.660742H4.67966M4.67966 0.660742H4.67967M4.67966 0.660742H4.67967M4.67967 0.660742H4.67967M4.67967 0.660742H4.67967M4.67967 0.660742H4.67968M4.67967 0.660742H4.67968M4.67968 0.660742H4.67968M4.67968 0.660742H4.67968M4.67968 0.660742H4.67969M4.67968 0.660742H4.67969M4.67969 0.660742H4.67969M4.67969 0.660742H4.67969M4.67969 0.660742H4.6797M4.67969 0.660742H4.6797M4.6797 0.660742H4.6797M4.6797 0.660742H4.6797M4.6797 0.660742H4.67971M4.6797 0.660742H4.67971M4.67971 0.660742H4.67971M4.67971 0.660742H4.67971M4.67971 0.660742H4.67972M4.67971 0.660742H4.67972M4.67972 0.660742H4.67972M4.67972 0.660742H4.67972M4.67972 0.660742H4.67973M4.67972 0.660742H4.67973M4.67973 0.660742H4.67973M4.67973 0.660742H4.67973M4.67973 0.660742H4.67974M4.67973 0.660742H4.67974M4.67974 0.660742H4.67974M4.67974 0.660742H4.67974M4.67974 0.660742H4.67975M4.67974 0.660742H4.67975M4.67975 0.660742H4.67975M4.67975 0.660742H4.67975M4.67975 0.660742H4.67976M4.67975 0.660742H4.67976M4.67976 0.660742H4.67976M4.67976 0.660742H4.67976M4.67976 0.660742H4.67977M4.67976 0.660742H4.67977M4.67977 0.660742H4.67977M4.67977 0.660742H4.67977M4.67977 0.660742H4.67978M4.67977 0.660742H4.67978M4.67978 0.660742H4.67979M4.67978 0.660742H4.67979M4.67979 0.660742H4.67979M4.67979 0.660742H4.67979M4.67979 0.660742H4.6798M4.67979 0.660742H4.6798M4.6798 0.660742H4.6798M4.6798 0.660742H4.6798M4.6798 0.660742H4.67981M4.6798 0.660742H4.67981M4.67981 0.660742H4.67981M4.67981 0.660742H4.67981M4.67981 0.660742H4.67982M4.67981 0.660742H4.67982M4.67982 0.660742H4.67982M4.67982 0.660742H4.67982M4.67982 0.660742H4.67983M4.67982 0.660742H4.67983M4.67983 0.660742H4.67983M4.67983 0.660742H4.67983M4.67983 0.660742H4.67984M4.67983 0.660742H4.67984M4.67984 0.660742H4.67984M4.67984 0.660742H4.67984M4.67984 0.660742H4.67985M4.67984 0.660742H4.67985M4.67985 0.660742H4.67985M4.67985 0.660742H4.67985M4.67985 0.660742H4.67986M4.67985 0.660742H4.67986M4.67986 0.660742H4.67986M4.67986 0.660742H4.67986M4.67986 0.660742H4.67987M4.67986 0.660742H4.67987M4.67987 0.660742H4.67987M4.67987 0.660742H4.67987M4.67987 0.660742H4.67988M4.67987 0.660742H4.67988M4.67988 0.660742H4.67988M4.67988 0.660742H4.67988M4.67988 0.660742H4.67989M4.67988 0.660742H4.67989M4.67989 0.660742H4.67989M4.67989 0.660742H4.67989M4.67989 0.660742H4.6799M4.67989 0.660742H4.6799M4.6799 0.660742H4.6799M4.6799 0.660742H4.6799M4.6799 0.660742H4.67991M4.6799 0.660742H4.67991M4.67991 0.660742H4.67991M4.67991 0.660742H4.67991M4.67991 0.660742H4.67992M4.67991 0.660742H4.67992M4.67992 0.660742H4.67992M4.67992 0.660742H4.67992M4.67992 0.660742H4.67993M4.67992 0.660742H4.67993M4.67993 0.660742H4.67993M4.67993 0.660742H4.67993M4.67993 0.660742H4.67994M4.67993 0.660742H4.67994M4.67994 0.660742H4.67994M4.67994 0.660742H4.67994M4.67994 0.660742H4.67995M4.67994 0.660742H4.67995M4.67995 0.660742H4.67995M4.67995 0.660742H4.67995M4.67995 0.660742H4.67996M4.67995 0.660742H4.67996M4.67996 0.660742H4.67996M4.67996 0.660742H4.67996M4.67996 0.660742H4.67997M4.67996 0.660742H4.67997M4.67997 0.660742H4.67997M4.67997 0.660742H4.67997M4.67997 0.660742H4.67998M4.67997 0.660742H4.67998M4.67998 0.660742H4.67998M4.67998 0.660742H4.67998M4.67998 0.660742H4.67999M4.67998 0.660742H4.67999M4.67999 0.660742H4.67999M4.67999 0.660742H4.67999M4.67999 0.660742H4.68M4.67999 0.660742H4.68M4.68 0.660742H4.68M4.68 0.660742H4.68M4.68 0.660742H4.68001M4.68 0.660742H4.68001M4.68001 0.660742H4.68001M4.68001 0.660742H4.68001M4.68001 0.660742H4.68002M4.68001 0.660742H4.68002M4.68002 0.660742H4.68002M4.68002 0.660742H4.68002M4.68002 0.660742H4.68003M4.68002 0.660742H4.68003M4.68003 0.660742H4.68003M4.68003 0.660742H4.68003M4.68003 0.660742H4.68004M4.68003 0.660742H4.68004M4.68004 0.660742H4.68004M4.68004 0.660742H4.68004M4.68004 0.660742H4.68005M4.68004 0.660742H4.68005M4.68005 0.660742H4.68005M4.68005 0.660742H4.68005M4.68005 0.660742H4.68006M4.68005 0.660742H4.68006M4.68006 0.660742H4.68006M4.68006 0.660742H4.68006M4.68006 0.660742H4.68007M4.68006 0.660742H4.68007M4.68007 0.660742H4.68007M4.68007 0.660742H4.68007M4.68007 0.660742H4.68008M4.68007 0.660742H4.68008M4.68008 0.660742H4.68008M4.68008 0.660742H4.68008M4.68008 0.660742H4.68009M4.68008 0.660742H4.68009M4.68009 0.660742H4.68009M4.68009 0.660742H4.68009M4.68009 0.660742H4.6801M4.68009 0.660742H4.6801M4.6801 0.660742H4.6801M4.6801 0.660742H4.6801M4.6801 0.660742H4.68011M4.6801 0.660742H4.68011M4.68011 0.660742H4.68011M4.68011 0.660742H4.68011M4.68011 0.660742H4.68012M4.68011 0.660742H4.68012M4.68012 0.660742H4.68012M4.68012 0.660742H4.68012M4.68012 0.660742H4.68013M4.68012 0.660742H4.68013M4.68013 0.660742H4.68013M4.68013 0.660742H4.68013M4.68013 0.660742H4.68014M4.68013 0.660742H4.68014M4.68014 0.660742H4.68014M4.68014 0.660742H4.68014M4.68014 0.660742H4.68015M4.68014 0.660742H4.68015M4.68015 0.660742H4.68015M4.68015 0.660742H4.68015M4.68015 0.660742H4.68016M4.68015 0.660742H4.68016M4.68016 0.660742H4.68016M4.68016 0.660742H4.68016M4.68016 0.660742H4.68017M4.68016 0.660742H4.68017M4.68017 0.660742H4.68017M4.68017 0.660742H4.68017M4.68017 0.660742H4.68018M4.68017 0.660742H4.68018M4.68018 0.660742H4.68018M4.68018 0.660742H4.68018M4.68018 0.660742H4.68019M4.68018 0.660742H4.68019M4.68019 0.660742H4.68019M4.68019 0.660742H4.68019M4.68019 0.660742C7.22008 0.666398 11.6684 1.22788 13.9642 4.7076C14.0163 4.78681 14.0485 4.88953 14.0485 5.00915V20.2821C11.0429 17.8099 7.07576 17.3784 4.68592 17.373C4.27727 17.3721 3.98875 17.0651 3.98875 16.7429V1.29121C3.98875 1.12893 4.05472 0.973576 4.18476 0.851479L4.68019 0.660742Z" stroke="#394167" stroke-width="0.8"/>
<path d="M26.6075 16.743V1.29121C26.6075 1.12893 26.5415 0.973572 26.4115 0.851476M26.6075 16.743L26.4115 0.851476M26.6075 16.743C26.6075 17.0651 26.319 17.3721 25.9105 17.373C23.5206 17.3784 19.5534 17.8099 16.5478 20.2821V5.00924C16.5478 4.88936 16.5801 4.78661 16.6322 4.70749C18.9282 1.22796 23.3763 0.666496 25.9161 0.660742M26.6075 16.743L25.9161 0.660742M26.4115 0.851476C26.2823 0.730155 26.1086 0.660742 25.9183 0.660742H25.9183H25.9183H25.9183H25.9183H25.9183H25.9183H25.9182H25.9182H25.9182H25.9182H25.9182H25.9182H25.9182H25.9182H25.9182H25.9181H25.9181H25.9181H25.9181H25.9181H25.9181H25.9181H25.9181H25.9181H25.918H25.918H25.918H25.918H25.918H25.918H25.918H25.918H25.918H25.9179H25.9179H25.9179H25.9179H25.9179H25.9179H25.9179H25.9179H25.9179H25.9179H25.9178H25.9178H25.9178H25.9178H25.9178H25.9178H25.9178H25.9178H25.9178H25.9177H25.9177H25.9177H25.9177H25.9177H25.9177H25.9177H25.9177H25.9177H25.9176H25.9176H25.9176H25.9176H25.9176H25.9176H25.9176H25.9176H25.9176H25.9175H25.9175H25.9175H25.9175H25.9175H25.9175H25.9175H25.9175H25.9175H25.9175H25.9174H25.9174H25.9174H25.9174H25.9174H25.9174H25.9174H25.9174H25.9174H25.9173H25.9173H25.9173H25.9173H25.9173H25.9173H25.9173H25.9173H25.9173H25.9172H25.9172H25.9172H25.9172H25.9172H25.9172H25.9172H25.9172H25.9172H25.9172H25.9171H25.9171H25.9171H25.9171H25.9171H25.9171H25.9171H25.9171H25.9171H25.917H25.917H25.917H25.917H25.917H25.917H25.917H25.917H25.917H25.917H25.9169H25.9169H25.9169H25.9169H25.9169H25.9169H25.9169H25.9169H25.9169H25.9168H25.9168H25.9168H25.9168H25.9168H25.9168H25.9168H25.9168H25.9168H25.9168H25.9167H25.9167H25.9167H25.9167H25.9167H25.9167H25.9167H25.9167H25.9167H25.9166H25.9166H25.9166H25.9166H25.9166H25.9166H25.9166H25.9166H25.9166H25.9166H25.9165H25.9165H25.9165H25.9165H25.9165H25.9165H25.9165H25.9165H25.9165H25.9164H25.9164H25.9164H25.9164H25.9164H25.9164H25.9164H25.9164H25.9164H25.9164H25.9163H25.9163H25.9163H25.9163H25.9163H25.9163H25.9163H25.9163H25.9163H25.9163H25.9162H25.9162H25.9162H25.9162H25.9162H25.9162H25.9162H25.9162H25.9162H25.9162H25.9161H25.9161H25.9161H25.9161H25.9161H25.9161H25.9161M26.4115 0.851476L25.9161 0.660742" stroke="#394167" stroke-width="0.8"/>
<path d="M19.3414 21.3131C21.5548 20.0434 24.17 19.7768 25.917 19.7729H25.917C27.6533 19.7689 29.1079 18.4332 29.1079 16.7429V4.22422H29.5018C29.9077 4.22422 30.1965 4.52988 30.1965 4.85442V4.85449V21.2306C30.1965 21.4143 30.1102 21.5914 29.945 21.7155L19.3414 21.3131ZM19.3414 21.3131C23.2223 20.7829 27.0456 21.3513 29.3406 21.8435C29.5577 21.89 29.7773 21.8412 29.9448 21.7156L19.3414 21.3131Z" stroke="#394167" stroke-width="0.8"/>
<path d="M1.25581 21.8433L1.25584 21.8432C3.55077 21.3509 7.37413 20.7826 11.2548 21.3128C9.04159 20.0432 6.42639 19.7768 4.67949 19.7728C2.94327 19.7689 1.48852 18.4332 1.48852 16.743V4.22422H1.09466C0.688885 4.22422 0.4 4.52985 0.4 4.85449V21.2304C0.4 21.4142 0.486302 21.5911 0.651523 21.7153L1.25581 21.8433ZM1.25581 21.8433C1.0384 21.8899 0.819041 21.8409 0.651645 21.7153L1.25581 21.8433Z" stroke="#394167" stroke-width="0.8"/>
</svg>
