<svg width="24" height="24" viewBox="0 0 24 24" fill="none" xmlns="http://www.w3.org/2000/svg">
<path d="M13.2076 1.00102L13.2076 1.00094C12.884 0.67722 12.4564 0.5 11.9989 0.5C11.5414 0.5 11.1138 0.677102 10.79 1.00083L10.4372 0.648013L10.79 1.00083L1.00623 10.7844L1.00592 10.7848L1.00493 10.7858L0.996195 10.7947C0.333445 11.4612 0.334697 12.5438 0.999391 13.2085L0.999473 13.2086C1.30353 13.5128 1.70365 13.6884 2.1334 13.7069L2.14698 13.7075L2.16051 13.7088C2.16672 13.7094 2.17322 13.7097 2.18008 13.7097H2.57028H3.07028V14.2097V21.4144C3.07028 22.5638 4.00635 23.5 5.15627 23.5H8.98647C9.0986 23.5 9.1896 23.409 9.1896 23.2969V17.6484C9.1896 16.7217 9.94263 15.9687 10.8693 15.9687H13.1285C14.0552 15.9687 14.8083 16.7217 14.8083 17.6484V23.2969C14.8083 23.4091 14.8992 23.5 15.0114 23.5H18.8416C19.9915 23.5 20.9276 22.5638 20.9276 21.4144V14.2097V13.7097H21.4276H21.7894C22.2466 13.7097 22.6742 13.5327 22.9982 13.209C22.9982 13.2089 22.9983 13.2089 22.9984 13.2088M13.2076 1.00102L23.3529 10.4388C24.2128 11.3005 24.2124 12.7013 23.3518 13.5624L22.9984 13.2088M13.2076 1.00102L22.9977 10.7907L22.9977 10.7908L22.9978 10.7908L22.9978 10.7908L22.9978 10.7908L22.9978 10.7908L22.9978 10.7908L22.9978 10.7908L22.9978 10.7908L22.9978 10.7909L22.9979 10.7909L22.9979 10.7909L22.9979 10.7909L22.9979 10.7909L22.9979 10.7909L22.9979 10.7909L22.9979 10.791L22.9979 10.791L22.998 10.791L22.998 10.791L22.998 10.791L22.998 10.791L22.998 10.791L22.998 10.791L22.998 10.7911L22.998 10.7911L22.9981 10.7911L22.9981 10.7911L22.9981 10.7911L22.9981 10.7911L22.9981 10.7911L22.9981 10.7911L22.9981 10.7912L22.9981 10.7912L22.9982 10.7912L22.9982 10.7912L22.9982 10.7912L22.9982 10.7912L22.9982 10.7912L22.9982 10.7912L22.9982 10.7913L22.9983 10.7913L22.9983 10.7913L22.9983 10.7913L22.9983 10.7913L22.9983 10.7913L22.9983 10.7913L22.9983 10.7914L22.9983 10.7914L22.9984 10.7914L22.9984 10.7914L22.9984 10.7914L22.9984 10.7914L22.9984 10.7914L22.9984 10.7914L22.9984 10.7915L22.9984 10.7915L22.9985 10.7915L22.9985 10.7915L22.9985 10.7915L22.9985 10.7915L22.9985 10.7915L22.9985 10.7915L22.9985 10.7916L22.9986 10.7916L22.9986 10.7916L22.9986 10.7916L22.9986 10.7916L22.9986 10.7916L22.9986 10.7916L22.9986 10.7916L22.9986 10.7917L22.9987 10.7917L22.9987 10.7917L22.9987 10.7917L22.9987 10.7917L22.9987 10.7917L22.9987 10.7917L22.9987 10.7917L22.9987 10.7918L22.9988 10.7918L22.9988 10.7918L22.9988 10.7918L22.9988 10.7918L22.9988 10.7918L22.9988 10.7918L22.9988 10.7919L22.9988 10.7919L22.9989 10.7919L22.9989 10.7919L22.9989 10.7919L22.9989 10.7919L22.9989 10.7919L22.9989 10.7919L22.9989 10.792L22.9989 10.792L22.999 10.792L22.999 10.792L22.999 10.792L22.999 10.792L23.3516 10.4402L22.9994 10.7924L22.9994 10.7924L22.9993 10.7924L22.9993 10.7924M13.2076 1.00102L22.9993 10.7924M22.9984 13.2088C23.6636 12.5429 23.664 11.4588 22.9993 10.7924M22.9984 13.2088L22.9993 10.7924M22.9993 10.7924L22.9993 10.7923L22.9993 10.7923L22.9993 10.7923L22.9993 10.7923M22.9993 10.7924C22.9993 10.7923 22.9993 10.7923 22.9993 10.7923M22.9993 10.7923L22.9993 10.7923L22.9993 10.7923L22.9992 10.7923L22.9992 10.7922L22.9992 10.7922L22.9992 10.7922L22.9992 10.7922L22.9992 10.7922L22.9991 10.7922L22.9991 10.7921L22.9993 10.7923ZM22.999 10.792L22.999 10.792L22.999 10.7921C22.9991 10.7921 22.9991 10.7921 22.9991 10.7921C22.9991 10.7921 22.9991 10.7921 22.9991 10.7921L22.999 10.792Z" stroke="#394167"/>
</svg>
