<svg width="24" height="25" viewBox="0 0 24 25" fill="none" xmlns="http://www.w3.org/2000/svg">
<path d="M13.8528 1.17337L13.8527 1.17346L12.1593 2.8668L12.1593 2.8668C11.5667 3.45933 11.563 4.41899 12.1593 5.0163L13.8528 1.17337ZM13.8528 1.17337C14.4446 0.581136 15.4095 0.581195 16.0022 1.17346C16.0023 1.17349 16.0023 1.17352 16.0023 1.17355L23.0871 8.25822C23.6793 8.85083 23.6792 9.8158 23.0872 10.4078L21.3938 12.1012L21.6767 12.384L21.3938 12.1012C20.8018 12.6932 19.8419 12.698 19.2441 12.101L12.1595 5.01649L13.8528 1.17337ZM2.60582 12.4201L2.60583 12.4201C3.19847 11.8275 4.1583 11.8238 4.75556 12.4203L11.8402 19.5048C12.4366 20.102 12.433 21.0619 11.8403 21.6545L10.147 23.3478L10.1466 23.3482C9.55973 23.9365 8.5935 23.9439 7.99742 23.3478L0.912547 16.2631C0.320302 15.6705 0.320433 14.7055 0.912456 14.1135L2.60582 12.4201ZM0.645999 18.6877L5.57283 23.6144C4.92347 24.0289 4.15665 23.8912 3.68145 23.416L0.844311 20.5789C0.844307 20.5789 0.844303 20.5789 0.844299 20.5789C0.365506 20.1001 0.234797 19.333 0.645999 18.6877ZM8.38044 12.7451L12.484 8.64155C12.6279 8.49796 12.8612 8.49796 13.005 8.64155L15.6192 11.2557C15.763 11.3995 15.763 11.6324 15.6192 11.7762L11.5158 15.8795C11.5158 15.8796 11.5157 15.8797 11.5156 15.8797C11.3708 16.0238 11.1377 16.0228 10.9949 15.88L8.38044 13.2656C8.23666 13.1218 8.23666 12.8889 8.38044 12.7451ZM23.1553 3.9424C23.6294 4.41646 23.7684 5.18363 23.3546 5.83279L18.4278 0.906086C19.0735 0.494843 19.8401 0.62769 20.3182 1.1053C20.3182 1.10534 20.3183 1.10537 20.3183 1.1054L23.1553 3.9424Z" stroke="#394167" stroke-width="0.8"/>
</svg>
